<svg width="1280" height="720" xmlns="http://www.w3.org/2000/svg" xmlns:xlink="http://www.w3.org/1999/xlink" overflow="hidden"><defs><filter id="fx0" x="-10%" y="-10%" width="120%" height="120%" filterUnits="userSpaceOnUse" primitiveUnits="userSpaceOnUse"><feComponentTransfer color-interpolation-filters="sRGB"><feFuncR type="discrete" tableValues="0 0"/><feFuncG type="discrete" tableValues="0 0"/><feFuncB type="discrete" tableValues="0 0"/><feFuncA type="linear" slope="0.4" intercept="0"/></feComponentTransfer><feGaussianBlur stdDeviation="1.77778 1.77778"/></filter><filter id="fx1" x="-10%" y="-10%" width="120%" height="120%" filterUnits="userSpaceOnUse" primitiveUnits="userSpaceOnUse"><feComponentTransfer color-interpolation-filters="sRGB"><feFuncR type="discrete" tableValues="0 0"/><feFuncG type="discrete" tableValues="0 0"/><feFuncB type="discrete" tableValues="0 0"/><feFuncA type="linear" slope="0.4" intercept="0"/></feComponentTransfer><feGaussianBlur stdDeviation="1.77778 1.77778"/></filter><filter id="fx2" x="-10%" y="-10%" width="120%" height="120%" filterUnits="userSpaceOnUse" primitiveUnits="userSpaceOnUse"><feComponentTransfer color-interpolation-filters="sRGB"><feFuncR type="discrete" tableValues="0 0"/><feFuncG type="discrete" tableValues="0 0"/><feFuncB type="discrete" tableValues="0 0"/><feFuncA type="linear" slope="0.4" intercept="0"/></feComponentTransfer><feGaussianBlur stdDeviation="1.77778 1.77778"/></filter><filter id="fx3" x="-10%" y="-10%" width="120%" height="120%" filterUnits="userSpaceOnUse" primitiveUnits="userSpaceOnUse"><feComponentTransfer color-interpolation-filters="sRGB"><feFuncR type="discrete" tableValues="0 0"/><feFuncG type="discrete" tableValues="0 0"/><feFuncB type="discrete" tableValues="0 0"/><feFuncA type="linear" slope="0.4" intercept="0"/></feComponentTransfer><feGaussianBlur stdDeviation="1.77778 1.77778"/></filter><filter id="fx4" x="-10%" y="-10%" width="120%" height="120%" filterUnits="userSpaceOnUse" primitiveUnits="userSpaceOnUse"><feComponentTransfer color-interpolation-filters="sRGB"><feFuncR type="discrete" tableValues="0 0"/><feFuncG type="discrete" tableValues="0 0"/><feFuncB type="discrete" tableValues="0 0"/><feFuncA type="linear" slope="0.4" intercept="0"/></feComponentTransfer><feGaussianBlur stdDeviation="1.77778 1.77778"/></filter><filter id="fx5" x="-10%" y="-10%" width="120%" height="120%" filterUnits="userSpaceOnUse" primitiveUnits="userSpaceOnUse"><feComponentTransfer color-interpolation-filters="sRGB"><feFuncR type="discrete" tableValues="0 0"/><feFuncG type="discrete" tableValues="0 0"/><feFuncB type="discrete" tableValues="0 0"/><feFuncA type="linear" slope="0.4" intercept="0"/></feComponentTransfer><feGaussianBlur stdDeviation="1.77778 1.77778"/></filter><filter id="fx6" x="-10%" y="-10%" width="120%" height="120%" filterUnits="userSpaceOnUse" primitiveUnits="userSpaceOnUse"><feComponentTransfer color-interpolation-filters="sRGB"><feFuncR type="discrete" tableValues="0 0"/><feFuncG type="discrete" tableValues="0 0"/><feFuncB type="discrete" tableValues="0 0"/><feFuncA type="linear" slope="0.4" intercept="0"/></feComponentTransfer><feGaussianBlur stdDeviation="1.77778 1.77778"/></filter><filter id="fx7" x="-10%" y="-10%" width="120%" height="120%" filterUnits="userSpaceOnUse" primitiveUnits="userSpaceOnUse"><feComponentTransfer color-interpolation-filters="sRGB"><feFuncR type="discrete" tableValues="0 0"/><feFuncG type="discrete" tableValues="0 0"/><feFuncB type="discrete" tableValues="0 0"/><feFuncA type="linear" slope="0.4" intercept="0"/></feComponentTransfer><feGaussianBlur stdDeviation="1.77778 1.77778"/></filter><filter id="fx8" x="-10%" y="-10%" width="120%" height="120%" filterUnits="userSpaceOnUse" primitiveUnits="userSpaceOnUse"><feComponentTransfer color-interpolation-filters="sRGB"><feFuncR type="discrete" tableValues="0 0"/><feFuncG type="discrete" tableValues="0 0"/><feFuncB type="discrete" tableValues="0 0"/><feFuncA type="linear" slope="0.4" intercept="0"/></feComponentTransfer><feGaussianBlur stdDeviation="1.77778 1.77778"/></filter><filter id="fx9" x="-10%" y="-10%" width="120%" height="120%" filterUnits="userSpaceOnUse" primitiveUnits="userSpaceOnUse"><feComponentTransfer color-interpolation-filters="sRGB"><feFuncR type="discrete" tableValues="0 0"/><feFuncG type="discrete" tableValues="0 0"/><feFuncB type="discrete" tableValues="0 0"/><feFuncA type="linear" slope="0.4" intercept="0"/></feComponentTransfer><feGaussianBlur stdDeviation="1.77778 1.77778"/></filter><filter id="fx10" x="-10%" y="-10%" width="120%" height="120%" filterUnits="userSpaceOnUse" primitiveUnits="userSpaceOnUse"><feComponentTransfer color-interpolation-filters="sRGB"><feFuncR type="discrete" tableValues="0 0"/><feFuncG type="discrete" tableValues="0 0"/><feFuncB type="discrete" tableValues="0 0"/><feFuncA type="linear" slope="0.4" intercept="0"/></feComponentTransfer><feGaussianBlur stdDeviation="1.77778 1.77778"/></filter><filter id="fx11" x="-10%" y="-10%" width="120%" height="120%" filterUnits="userSpaceOnUse" primitiveUnits="userSpaceOnUse"><feComponentTransfer color-interpolation-filters="sRGB"><feFuncR type="discrete" tableValues="0 0"/><feFuncG type="discrete" tableValues="0 0"/><feFuncB type="discrete" tableValues="0 0"/><feFuncA type="linear" slope="0.4" intercept="0"/></feComponentTransfer><feGaussianBlur stdDeviation="1.77778 1.77778"/></filter><filter id="fx12" x="-10%" y="-10%" width="120%" height="120%" filterUnits="userSpaceOnUse" primitiveUnits="userSpaceOnUse"><feComponentTransfer color-interpolation-filters="sRGB"><feFuncR type="discrete" tableValues="0 0"/><feFuncG type="discrete" tableValues="0 0"/><feFuncB type="discrete" tableValues="0 0"/><feFuncA type="linear" slope="0.4" intercept="0"/></feComponentTransfer><feGaussianBlur stdDeviation="1.77778 1.77778"/></filter><filter id="fx13" x="-10%" y="-10%" width="120%" height="120%" filterUnits="userSpaceOnUse" primitiveUnits="userSpaceOnUse"><feComponentTransfer color-interpolation-filters="sRGB"><feFuncR type="discrete" tableValues="0 0"/><feFuncG type="discrete" tableValues="0 0"/><feFuncB type="discrete" tableValues="0 0"/><feFuncA type="linear" slope="0.4" intercept="0"/></feComponentTransfer><feGaussianBlur stdDeviation="1.77778 1.77778"/></filter><clipPath id="clip14"><rect x="0" y="0" width="1280" height="720"/></clipPath><clipPath id="clip15"><path d="M70 47 70 184 292 184 292 47ZM1.90735e-05 1.07288e-05 1280 1.07288e-05 1280 720 1.90735e-05 720Z" fill-rule="evenodd" clip-rule="evenodd"/></clipPath><clipPath id="clip16"><rect x="-2" y="-2" width="242" height="157"/></clipPath><clipPath id="clip17"><rect x="0" y="0" width="240" height="155"/></clipPath><clipPath id="clip18"><rect x="17" y="9" width="194" height="41"/></clipPath><clipPath id="clip19"><rect x="0" y="0" width="225" height="70"/></clipPath><clipPath id="clip20"><path d="M383 47 383 184 605 184 605 47ZM1.90735e-05 1.07288e-05 1280 1.07288e-05 1280 720 1.90735e-05 720Z" fill-rule="evenodd" clip-rule="evenodd"/></clipPath><clipPath id="clip21"><rect x="-2" y="-2" width="242" height="157"/></clipPath><clipPath id="clip22"><rect x="0" y="0" width="240" height="155"/></clipPath><clipPath id="clip23"><rect x="17" y="9" width="74" height="41"/></clipPath><clipPath id="clip24"><rect x="0" y="0" width="105" height="70"/></clipPath><clipPath id="clip25"><path d="M696 47 696 184 918 184 918 47ZM1.90735e-05 1.07288e-05 1280 1.07288e-05 1280 720 1.90735e-05 720Z" fill-rule="evenodd" clip-rule="evenodd"/></clipPath><clipPath id="clip26"><rect x="-2" y="-2" width="242" height="157"/></clipPath><clipPath id="clip27"><rect x="0" y="0" width="240" height="155"/></clipPath><clipPath id="clip28"><rect x="17" y="9" width="159" height="41"/></clipPath><clipPath id="clip29"><rect x="0" y="0" width="190" height="70"/></clipPath><clipPath id="clip30"><path d="M70 495 70 631 292 631 292 495ZM1.90735e-05 1.07288e-05 1280 1.07288e-05 1280 720 1.90735e-05 720Z" fill-rule="evenodd" clip-rule="evenodd"/></clipPath><clipPath id="clip31"><rect x="-2" y="-2" width="242" height="157"/></clipPath><clipPath id="clip32"><rect x="0" y="0" width="240" height="154"/></clipPath><clipPath id="clip33"><rect x="17" y="9" width="194" height="41"/></clipPath><clipPath id="clip34"><rect x="0" y="0" width="225" height="70"/></clipPath><clipPath id="clip35"><path d="M383 495 383 631 605 631 605 495ZM1.90735e-05 1.07288e-05 1280 1.07288e-05 1280 720 1.90735e-05 720Z" fill-rule="evenodd" clip-rule="evenodd"/></clipPath><clipPath id="clip36"><rect x="-2" y="-2" width="242" height="157"/></clipPath><clipPath id="clip37"><rect x="0" y="0" width="240" height="154"/></clipPath><clipPath id="clip38"><rect x="17" y="9" width="74" height="41"/></clipPath><clipPath id="clip39"><rect x="0" y="0" width="105" height="70"/></clipPath><clipPath id="clip40"><path d="M696 495 696 631 918 631 918 495ZM1.90735e-05 1.07288e-05 1280 1.07288e-05 1280 720 1.90735e-05 720Z" fill-rule="evenodd" clip-rule="evenodd"/></clipPath><clipPath id="clip41"><rect x="-2" y="-2" width="242" height="157"/></clipPath><clipPath id="clip42"><rect x="0" y="0" width="240" height="154"/></clipPath><clipPath id="clip43"><rect x="17" y="9" width="171" height="41"/></clipPath><clipPath id="clip44"><rect x="0" y="0" width="202" height="70"/></clipPath><clipPath id="clip45"><path d="M993 251 993 387 1214 387 1214 251ZM1.90735e-05 1.07288e-05 1280 1.07288e-05 1280 720 1.90735e-05 720Z" fill-rule="evenodd" clip-rule="evenodd"/></clipPath><clipPath id="clip46"><rect x="-2" y="-2" width="242" height="157"/></clipPath><clipPath id="clip47"><rect x="0" y="0" width="239" height="154"/></clipPath><clipPath id="clip48"><rect x="17" y="9" width="89" height="35"/></clipPath><clipPath id="clip49"><rect x="0" y="0" width="126" height="70"/></clipPath></defs><g clip-path="url(#clip14)"><rect x="0" y="0" width="1280" height="720" fill="#FFFFFF"/><g clip-path="url(#clip15)"><g clip-path="url(#clip16)" filter="url(#fx0)" transform="translate(64 41)"><g clip-path="url(#clip17)"><rect x="8.82843" y="8.82843" width="222" height="137" stroke="#000000" stroke-width="4" stroke-miterlimit="8" fill="#F2F2F2"/></g></g><g clip-path="url(#clip18)" filter="url(#fx1)" transform="translate(71 103)"><g clip-path="url(#clip19)"><path d="M12.42-8.04558 17.793 0 14.6197 0 9.51666-7.695 4.617-7.695 4.617 0 1.755 0 1.755-19.413 10.341-19.413C12.5317-19.413 14.2493-18.8991 15.494-17.8713 16.7387-16.8434 17.361-15.4403 17.361-13.662 17.361-12.1899 16.9069-10.9524 15.9986-9.9495 15.0903-8.94656 13.8974-8.31192 12.42-8.04558ZM14.472-13.608C14.472-14.616 14.1089-15.408 13.3827-15.984 12.6565-16.56 11.6246-16.848 10.287-16.848L4.617-16.848 4.617-10.233 10.098-10.233C11.4528-10.233 12.5205-10.5394 13.3011-11.1523 14.0817-11.7651 14.472-12.5837 14.472-13.608ZM30.676 0 28.003 0 28.003-2.133C27.7808-1.41469 27.2043-0.834609 26.2735-0.392766 25.3427 0.0490781 24.3442 0.27 23.278 0.27 21.7713 0.27 20.5397-0.117422 19.583-0.892266 18.6263-1.66711 18.148-2.69269 18.148-3.969 18.148-5.36428 18.6821-6.4196 19.7503-7.13496 20.8185-7.85032 22.3724-8.208 24.412-8.208L27.976-8.208C27.9588-9.19659 27.6646-9.99724 27.0932-10.6099 26.5219-11.2226 25.7001-11.529 24.628-11.529 23.9817-11.529 23.3417-11.392 22.708-11.1179 22.0744-10.8438 21.3717-10.3958 20.5999-9.774L19.201-11.5151C20.0287-12.3602 20.9097-12.9743 21.844-13.3574 22.7784-13.7405 23.7783-13.932 24.844-13.932 26.6713-13.932 28.1001-13.3885 29.1305-12.3015 30.1608-11.2144 30.676-9.73294 30.676-7.857ZM27.976-5.994 24.439-5.994C23.1728-5.994 22.2578-5.83291 21.6939-5.51074 21.13-5.18857 20.848-4.69266 20.848-4.023 20.848-3.44616 21.0937-2.96445 21.585-2.57787 22.0764-2.19129 22.7217-1.998 23.521-1.998 24.7416-1.998 25.7721-2.39266 26.6123-3.18199 27.4525-3.97132 27.9071-4.90866 27.976-5.994ZM32.431-13.554 35.131-13.554 35.131-11.556C35.3445-12.2524 35.8722-12.8135 36.7141-13.2393 37.556-13.6651 38.4953-13.878 39.532-13.878 41.3466-13.878 42.7633-13.2931 43.782-12.1234 44.8007-10.9537 45.31-9.36956 45.31-7.371L45.31 0 42.583 0 42.583-7.236C42.583-8.53537 42.2692-9.55322 41.6416-10.2895 41.014-11.0258 40.1398-11.394 39.019-11.394 37.8563-11.394 36.9221-10.9992 36.2165-10.2096 35.5108-9.41998 35.158-8.38378 35.158-7.101L35.158 0 32.431 0ZM57.7357-19.413 60.4897-19.413 60.4897 0 57.7627 0 57.7627-2.106C57.4637-1.38488 56.8781-0.808594 56.0058-0.377156 55.1335 0.0542812 54.1981 0.27 53.1997 0.27 51.3043 0.27 49.7145-0.390867 48.4302-1.7126 47.1458-3.03434 46.5037-4.71347 46.5037-6.75 46.5037-8.78934 47.1631-10.4872 48.4821-11.8435 49.801-13.1998 51.4275-13.878 53.3617-13.878 54.3019-13.878 55.1909-13.6851 56.0288-13.2992 56.8666-12.9133 57.4356-12.4042 57.7357-11.772ZM53.4427-2.16C54.6745-2.16 55.7115-2.60655 56.5536-3.49966 57.3956-4.39277 57.8167-5.50322 57.8167-6.831 57.8167-8.16216 57.4098-9.25994 56.5962-10.1244 55.7825-10.9888 54.7674-11.421 53.5507-11.421 52.2952-11.421 51.2703-10.9985 50.476-10.1535 49.6818-9.30846 49.2847-8.19197 49.2847-6.804 49.2847-5.40281 49.6745-4.27852 50.4541-3.43111 51.2337-2.5837 52.2299-2.16 53.4427-2.16ZM75.7913-6.777C75.7913-4.73934 75.1084-3.03293 73.7425-1.65776 72.3766-0.282586 70.6926 0.405 68.6903 0.405 66.6873 0.405 65.0165-0.278297 63.678-1.64489 62.3396-3.01148 61.6703-4.71319 61.6703-6.75 61.6703-8.775 62.3519-10.4738 63.7152-11.8463 65.0784-13.2188 66.7638-13.905 68.7713-13.905 70.7744-13.905 72.4452-13.2217 73.7836-11.8551 75.1221-10.4885 75.7913-8.79581 75.7913-6.777ZM64.4513-6.75C64.4513-5.40253 64.8637-4.27816 65.6885-3.3769 66.5133-2.47563 67.5319-2.025 68.7443-2.025 69.936-2.025 70.9449-2.47641 71.7711-3.37922 72.5973-4.28203 73.0103-5.41463 73.0103-6.777 73.0103-8.08847 72.5935-9.19934 71.7597-10.1096 70.9259-11.0199 69.9118-11.475 68.7173-11.475 67.5201-11.475 66.5097-11.0251 65.6864-10.1252 64.863-9.22535 64.4513-8.10028 64.4513-6.75ZM77.0977-13.554 79.7977-13.554 79.7977-12.015C79.9782-12.5871 80.3987-13.0406 81.0591-13.3755 81.7195-13.7105 82.46-13.878 83.2807-13.878 84.2274-13.878 85.0734-13.6773 85.8189-13.2758 86.5643-12.8743 87.0825-12.346 87.3733-11.691 87.7178-12.3503 88.2847-12.8796 89.0739-13.2789 89.8631-13.6783 90.749-13.878 91.7317-13.878 93.3449-13.878 94.6302-13.3566 95.5876-12.3139 96.545-11.2712 97.0237-9.92953 97.0237-8.289L97.0237 0 94.2697 0 94.2697-8.154C94.2697-9.18197 94.0195-9.97896 93.5192-10.545 93.0188-11.111 92.315-11.394 91.4077-11.394 90.515-11.394 89.7923-11.0846 89.2397-10.4659 88.687-9.84713 88.4107-9.0315 88.4107-8.019L88.4107 0 85.6837 0 85.6837-8.154C85.6837-9.18197 85.4335-9.97896 84.9332-10.545 84.4328-11.111 83.729-11.394 82.8217-11.394 81.929-11.394 81.2063-11.0846 80.6537-10.4659 80.101-9.84713 79.8247-9.0315 79.8247-8.019L79.8247 0 77.0977 0ZM116.089-5.589C116.089-6.58097 115.692-7.31081 114.899-7.77853 114.105-8.24625 112.779-8.50669 110.921-8.55984 108.295-8.68781 106.376-9.16376 105.164-9.98768 103.951-10.8116 103.345-12.0904 103.345-13.824 103.345-15.5168 104.062-16.9346 105.495-18.0771 106.928-19.2197 108.722-19.791 110.878-19.791 112.443-19.791 113.858-19.5213 115.123-18.9818 116.388-18.4424 117.52-17.5725 118.519-16.3721L116.785-14.58C115.924-15.4558 114.998-16.1113 114.006-16.5464 113.014-16.9815 111.971-17.199 110.878-17.199 109.499-17.199 108.371-16.8872 107.495-16.2637 106.618-15.6402 106.18-14.8899 106.18-14.013 106.18-13.0764 106.568-12.3958 107.342-11.9711 108.116-11.5464 109.415-11.3078 111.238-11.2552 113.871-11.1447 115.811-10.6507 117.056-9.77337 118.302-8.89601 118.924-7.56422 118.924-5.778 118.924-3.99769 118.184-2.52661 116.704-1.36477 115.223-0.202922 113.344 0.378 111.067 0.378 109.226 0.378 107.635 0.0822656 106.295-0.509203 104.955-1.10067 103.747-2.10164 102.67-3.51211L104.377-5.319C105.405-4.20497 106.441-3.40896 107.484-2.93098 108.527-2.45299 109.721-2.214 111.067-2.214 112.555-2.214 113.763-2.53962 114.694-3.19085 115.624-3.84209 116.089-4.64147 116.089-5.589ZM123.158 4.86 120.431 4.86 120.431-13.554 123.131-13.554 123.131-11.475C123.405-12.1747 123.984-12.7457 124.868-13.1878 125.752-13.6299 126.694-13.851 127.694-13.851 129.61-13.851 131.206-13.1907 132.479-11.8701 133.753-10.5495 134.39-8.86978 134.39-6.831 134.39-4.76072 133.729-3.05515 132.407-1.71429 131.085-0.37343 129.46 0.297 127.532 0.297 126.605 0.297 125.716 0.105047 124.864-0.278859 124.012-0.662766 123.443-1.18181 123.158-1.836ZM127.451-11.394C126.213-11.394 125.175-10.949 124.336-10.059 123.497-9.16896 123.077-8.05697 123.077-6.723 123.077-5.39522 123.489-4.29827 124.312-3.43216 125.136-2.56605 126.155-2.133 127.37-2.133 128.62-2.133 129.639-2.55255 130.427-3.39166 131.215-4.23077 131.609-5.35922 131.609-6.777 131.609-8.16075 131.224-9.27619 130.453-10.1233 129.682-10.9704 128.681-11.394 127.451-11.394ZM135.733-17.928 138.703-17.928 138.703-15.012 135.733-15.012ZM135.841 0 135.841-13.554 138.595-13.554 138.595 0ZM140.931-19.413 143.658-19.413 143.658-8.046 149.38-13.554 152.676-13.554 152.676-13.1321 145.683-7.08033 152.703-0.417234 152.703 0 149.404 0 143.658-6.048 143.658 0 140.931 0ZM159.825-1.971C160.643-1.971 161.397-2.14594 162.088-2.49581 162.779-2.84569 163.481-3.42675 164.195-4.239L165.819-2.77552C165.016-1.64433 164.1-0.831445 163.074-0.336867 162.047 0.157711 160.901 0.405 159.636 0.405 157.597 0.405 155.926-0.264938 154.624-1.60481 153.322-2.94469 152.67-4.65975 152.67-6.75 152.67-8.77134 153.334-10.4647 154.662-11.83 155.99-13.1953 157.63-13.878 159.582-13.878 161.571-13.878 163.185-13.2311 164.422-11.9374 165.66-10.6436 166.278-8.9685 166.278-6.912 166.278-6.87375 166.273-6.76364 166.261-6.58167 166.25-6.3997 166.216-6.11381 166.161-5.724L155.478-5.724C155.613-4.69941 156.084-3.81776 156.89-3.07905 157.697-2.34035 158.675-1.971 159.825-1.971ZM159.609-11.502C158.547-11.502 157.635-11.1549 156.873-10.4608 156.111-9.76669 155.646-8.92575 155.478-7.938L163.524-7.938C163.37-8.94741 162.939-9.79376 162.231-10.4771 161.522-11.1604 160.648-11.502 159.609-11.502ZM178.641-4.077C178.641-2.76103 178.089-1.69404 176.986-0.876023 175.882-0.0580078 174.463 0.351 172.728 0.351 171.591 0.351 170.527 0.170508 169.537-0.190477 168.547-0.551461 167.621-1.14595 166.761-1.97395L168.105-3.969C169.073-3.23887 169.901-2.72784 170.588-2.43591 171.275-2.14397 172.006-1.998 172.782-1.998 173.767-1.998 174.549-2.18123 175.127-2.5477 175.706-2.91417 175.995-3.37894 175.995-3.942 175.995-4.49888 175.757-4.9083 175.28-5.17029 174.804-5.43227 173.967-5.57184 172.769-5.589 170.893-5.66325 169.508-6.01755 168.614-6.65191 167.72-7.28627 167.274-8.28197 167.274-9.639 167.274-10.8638 167.783-11.8811 168.802-12.6906 169.821-13.5002 171.121-13.905 172.701-13.905 173.758-13.905 174.752-13.7372 175.684-13.4017 176.616-13.0662 177.493-12.5266 178.317-11.783L177.056-9.828C176.184-10.4434 175.419-10.8807 174.762-11.14 174.105-11.3993 173.409-11.529 172.674-11.529 171.848-11.529 171.183-11.3525 170.678-10.9995 170.172-10.6466 169.92-10.2291 169.92-9.747 169.92-9.20306 170.141-8.80488 170.582-8.55246 171.024-8.30004 171.774-8.14781 172.832-8.09578 174.842-8.04037 176.312-7.6957 177.243-7.06177 178.175-6.42783 178.641-5.43291 178.641-4.077Z" transform="translate(23.4635 37)"/></g></g></g><rect x="70" y="47" width="222" height="137" stroke="#000000" stroke-width="4" stroke-miterlimit="8" fill="#F2F2F2"/><text font-family="IntelOne Display AR Regular,IntelOne Display AR Regular_MSFontService,sans-serif" font-weight="700" font-size="27" transform="translate(91.6351 137)">Random Spikes</text><rect x="279" y="111" width="23" height="23" fill="#7030A0"/><rect x="70.5001" y="47.5001" width="222" height="33" stroke="#000000" stroke-width="3" stroke-miterlimit="8" fill="#595959"/><text fill="#FFFFFF" font-family="IntelOne Display AR Regular,IntelOne Display AR Regular_MSFontService,sans-serif" font-weight="700" font-size="21" transform="translate(130.088 70)">Ring Buffer</text><path d="M301.513 121 366.761 121.546 366.736 124.545 301.488 124ZM365.286 118.533 374.248 123.108 365.211 127.533Z" fill="#00B050"/><g clip-path="url(#clip20)"><g clip-path="url(#clip21)" filter="url(#fx2)" transform="translate(377 41)"><g clip-path="url(#clip22)"><rect x="8.82843" y="8.82843" width="222" height="137" stroke="#000000" stroke-width="4" stroke-miterlimit="8" fill="#F2F2F2"/></g></g><g clip-path="url(#clip23)" filter="url(#fx3)" transform="translate(444 103)"><g clip-path="url(#clip24)"><path d="M1.944 0 1.944-19.413 4.806-19.413 4.806 0ZM7.431-13.554 10.131-13.554 10.131-11.556C10.3445-12.2524 10.8722-12.8135 11.7141-13.2393 12.556-13.6651 13.4953-13.878 14.532-13.878 16.3466-13.878 17.7633-13.2931 18.782-12.1234 19.8007-10.9537 20.31-9.36956 20.31-7.371L20.31 0 17.583 0 17.583-7.236C17.583-8.53537 17.2692-9.55322 16.6416-10.2895 16.014-11.0258 15.1398-11.394 14.019-11.394 12.8563-11.394 11.9221-10.9992 11.2165-10.2096 10.5108-9.41998 10.158-8.38378 10.158-7.101L10.158 0 7.431 0ZM24.8247 4.86 22.0977 4.86 22.0977-13.554 24.7977-13.554 24.7977-11.475C25.0713-12.1747 25.6502-12.7457 26.5343-13.1878 27.4184-13.6299 28.3605-13.851 29.3607-13.851 31.2771-13.851 32.8722-13.1907 34.146-11.8701 35.4198-10.5495 36.0567-8.86978 36.0567-6.831 36.0567-4.76072 35.3957-3.05515 34.0736-1.71429 32.7516-0.37343 31.1266 0.297 29.1987 0.297 28.2719 0.297 27.3826 0.105047 26.5305-0.278859 25.6785-0.662766 25.1099-1.18181 24.8247-1.836ZM29.1177-11.394C27.8799-11.394 26.8414-10.949 26.0023-10.059 25.1632-9.16896 24.7437-8.05697 24.7437-6.723 24.7437-5.39522 25.1555-4.29827 25.9791-3.43216 26.8028-2.56605 27.8219-2.133 29.0367-2.133 30.2865-2.133 31.3055-2.55255 32.0936-3.39166 32.8816-4.23077 33.2757-5.35922 33.2757-6.777 33.2757-8.16075 32.8902-9.27619 32.1193-10.1233 31.3484-10.9704 30.3479-11.394 29.1177-11.394ZM50.0083 0 47.2813 0 47.2813-1.998C47.0583-1.27856 46.5322-0.716203 45.7029-0.310922 44.8736 0.0943594 43.9328 0.297 42.8803 0.297 41.0846 0.297 39.6726-0.287789 38.6445-1.45737 37.6164-2.62695 37.1023-4.21116 37.1023-6.21L37.1023-13.554 39.8563-13.554 39.8563-6.345C39.8563-5.02791 40.1702-4.00113 40.798-3.26468 41.4257-2.52823 42.2998-2.16 43.4203-2.16 44.5591-2.16 45.4828-2.55649 46.1914-3.34948 46.9-4.14246 47.2543-5.18597 47.2543-6.48L47.2543-13.554 50.0083-13.554ZM52.66-3.753 52.66-11.097 50.878-11.097 50.878-13.554 52.66-13.554 52.66-17.55 55.387-17.55 55.387-13.554 58.411-13.554 58.411-11.097 55.387-11.097 55.387-3.942C55.387-3.42084 55.4924-3.04755 55.7032-2.82213 55.914-2.59671 56.2496-2.484 56.71-2.484L58.411-2.484 58.411 0 56.386 0C55.1032 0 54.1615-0.305227 53.5609-0.91568 52.9603-1.52613 52.66-2.47191 52.66-3.753Z" transform="translate(23.4724 37)"/></g></g></g><rect x="383" y="47" width="222" height="137" stroke="#000000" stroke-width="4" stroke-miterlimit="8" fill="#F2F2F2"/><text font-family="IntelOne Display AR Regular,IntelOne Display AR Regular_MSFontService,sans-serif" font-weight="700" font-size="27" transform="translate(464.644 137)">Input</text><rect x="593" y="112" width="21" height="21" fill="#7030A0"/><rect x="383.5" y="47.5001" width="222" height="33" stroke="#000000" stroke-width="3" stroke-miterlimit="8" fill="#595959"/><text fill="#FFFFFF" font-family="IntelOne Display AR Regular,IntelOne Display AR Regular_MSFontService,sans-serif" font-weight="700" font-size="21" transform="translate(464.264 70)">Dense</text><path d="M614.513 121 679.761 121.546 679.736 124.545 614.488 124ZM678.286 118.533 687.248 123.108 678.211 127.533Z" fill="#00B050"/><rect x="373" y="112" width="22" height="21" fill="#00B050"/><g clip-path="url(#clip25)"><g clip-path="url(#clip26)" filter="url(#fx4)" transform="translate(690 41)"><g clip-path="url(#clip27)"><rect x="8.82843" y="8.82843" width="222" height="137" stroke="#000000" stroke-width="4" stroke-miterlimit="8" fill="#F2F2F2"/></g></g><g clip-path="url(#clip28)" filter="url(#fx5)" transform="translate(715 103)"><g clip-path="url(#clip29)"><path d="M1.755 0 1.755-19.413 10.233-19.413C12.3713-19.413 14.0669-18.8714 15.3198-17.7881 16.5726-16.7049 17.199-15.2485 17.199-13.419 17.199-11.5521 16.5222-10.0593 15.1687-8.9408 13.8152-7.82227 12.026-7.263 9.801-7.263L4.617-7.263 4.617 0ZM14.283-13.365C14.283-14.4318 13.9238-15.27 13.2055-15.8796 12.4872-16.4892 11.4694-16.794 10.152-16.794L4.617-16.794 4.617-9.855 9.963-9.855C11.2984-9.855 12.3522-10.1699 13.1245-10.7996 13.8968-11.4293 14.283-12.2844 14.283-13.365ZM18.0977-13.554 20.7977-13.554 20.7977-11.934C20.8868-12.4535 21.2675-12.8668 21.9397-13.1741 22.6119-13.4814 23.4012-13.635 24.3077-13.635L25.7657-13.635 25.7657-11.043 24.2807-11.043C23.1169-11.043 22.2499-10.7456 21.6798-10.1507 21.1097-9.55589 20.8247-8.63831 20.8247-7.398L20.8247 0 18.0977 0ZM33.3253-1.971C34.1426-1.971 34.8968-2.14594 35.5879-2.49581 36.2789-2.84569 36.9813-3.42675 37.6951-4.239L39.3193-2.77552C38.5155-1.64433 37.6003-0.831445 36.5736-0.336867 35.5469 0.157711 34.4011 0.405 33.1363 0.405 31.097 0.405 29.4262-0.264938 28.1238-1.60481 26.8215-2.94469 26.1703-4.65975 26.1703-6.75 26.1703-8.77134 26.8343-10.4647 28.1622-11.83 29.4901-13.1953 31.1302-13.878 33.0823-13.878 35.0713-13.878 36.6846-13.2311 37.9221-11.9374 39.1596-10.6436 39.7783-8.9685 39.7783-6.912 39.7783-6.87375 39.7726-6.76364 39.7612-6.58167 39.7499-6.3997 39.7163-6.11381 39.6606-5.724L28.9783-5.724C29.1131-4.69941 29.5837-3.81776 30.3904-3.07905 31.197-2.34035 32.1753-1.971 33.3253-1.971ZM33.1093-11.502C32.0468-11.502 31.1346-11.1549 30.3728-10.4608 29.6111-9.76669 29.1462-8.92575 28.9783-7.938L37.0243-7.938C36.8705-8.94741 36.4393-9.79376 35.7307-10.4771 35.022-11.1604 34.1483-11.502 33.1093-11.502Z" transform="translate(22.6207 37)"/><path d="M0.756-6.723 0.756-9.342 8.343-9.342 8.343-6.723Z" transform="translate(62.2874 37)"/><path d="M12.474-4.077C12.474-2.76103 11.9223-1.69404 10.819-0.876023 9.71564-0.0580078 8.29631 0.351 6.561 0.351 5.42419 0.351 4.36064 0.170508 3.37036-0.190477 2.38008-0.551461 1.45462-1.14595 0.594-1.97395L1.93809-3.969C2.90644-3.23887 3.73409-2.72784 4.42104-2.43591 5.10799-2.14397 5.83931-1.998 6.615-1.998 7.6005-1.998 8.38237-2.18123 8.96063-2.5477 9.53887-2.91417 9.828-3.37894 9.828-3.942 9.828-4.49888 9.58985-4.9083 9.11355-5.17029 8.63726-5.43227 7.80019-5.57184 6.60234-5.589 4.72612-5.66325 3.34118-6.01755 2.44751-6.65191 1.55384-7.28627 1.107-8.28197 1.107-9.639 1.107-10.8638 1.61648-11.8811 2.63545-12.6906 3.65442-13.5002 4.95394-13.905 6.534-13.905 7.59094-13.905 8.58537-13.7372 9.51729-13.4017 10.4492-13.0662 11.3268-12.5266 12.15-11.783L10.889-9.828C10.0169-10.4434 9.25221-10.8807 8.59507-11.14 7.93793-11.3993 7.24191-11.529 6.507-11.529 5.68181-11.529 5.01652-11.3525 4.51111-10.9995 4.0057-10.6466 3.753-10.2291 3.753-9.747 3.753-9.20306 3.97392-8.80488 4.41577-8.55246 4.85761-8.30004 5.60756-8.14781 6.66563-8.09578 8.67488-8.04037 10.1453-7.6957 11.0768-7.06177 12.0082-6.42783 12.474-5.43291 12.474-4.077ZM18.1923-0.375469 12.6843-13.554 15.5446-13.554 19.5672-3.213 23.5898-13.554 26.3463-13.554 18.6644 4.86 15.9513 4.86ZM27.0977-13.554 29.7977-13.554 29.7977-11.556C30.0111-12.2524 30.5388-12.8135 31.3808-13.2393 32.2227-13.6651 33.162-13.878 34.1987-13.878 36.0133-13.878 37.4299-13.2931 38.4486-12.1234 39.4673-10.9537 39.9767-9.36956 39.9767-7.371L39.9767 0 37.2497 0 37.2497-7.236C37.2497-8.53537 36.9359-9.55322 36.3083-10.2895 35.6806-11.0258 34.8064-11.394 33.6857-11.394 32.523-11.394 31.5888-10.9992 30.8832-10.2096 30.1775-9.41998 29.8247-8.38378 29.8247-7.101L29.8247 0 27.0977 0ZM53.5093 0 50.8363 0 50.8363-2.133C50.6141-1.41469 50.0377-0.834609 49.1069-0.392766 48.1761 0.0490781 47.1776 0.27 46.1113 0.27 44.6047 0.27 43.373-0.117422 42.4163-0.892266 41.4597-1.66711 40.9813-2.69269 40.9813-3.969 40.9813-5.36428 41.5154-6.4196 42.5836-7.13496 43.6518-7.85032 45.2057-8.208 47.2453-8.208L50.8093-8.208C50.7922-9.19659 50.4979-9.99724 49.9266-10.6099 49.3552-11.2226 48.5335-11.529 47.4613-11.529 46.815-11.529 46.175-11.392 45.5414-11.1179 44.9077-10.8438 44.205-10.3958 43.4333-9.774L42.0343-11.5151C42.8621-12.3602 43.7431-12.9743 44.6774-13.3574 45.6117-13.7405 46.6117-13.932 47.6773-13.932 49.5046-13.932 50.9334-13.3885 51.9638-12.3015 52.9942-11.2144 53.5093-9.73294 53.5093-7.857ZM50.8093-5.994 47.2723-5.994C46.0061-5.994 45.0911-5.83291 44.5272-5.51074 43.9633-5.18857 43.6813-4.69266 43.6813-4.023 43.6813-3.44616 43.927-2.96445 44.4184-2.57787 44.9097-2.19129 45.555-1.998 46.3543-1.998 47.575-1.998 48.6054-2.39266 49.4456-3.18199 50.2859-3.97132 50.7404-4.90866 50.8093-5.994ZM57.9913 4.86 55.2643 4.86 55.2643-13.554 57.9643-13.554 57.9643-11.475C58.238-12.1747 58.8169-12.7457 59.701-13.1878 60.5851-13.6299 61.5272-13.851 62.5273-13.851 64.4438-13.851 66.0389-13.1907 67.3127-11.8701 68.5864-10.5495 69.2233-8.86978 69.2233-6.831 69.2233-4.76072 68.5623-3.05515 67.2403-1.71429 65.9183-0.37343 64.2933 0.297 62.3653 0.297 61.4386 0.297 60.5492 0.105047 59.6972-0.278859 58.8451-0.662766 58.2765-1.18181 57.9913-1.836ZM62.2843-11.394C61.0466-11.394 60.0081-10.949 59.169-10.059 58.3299-9.16896 57.9103-8.05697 57.9103-6.723 57.9103-5.39522 58.3222-4.29827 59.1458-3.43216 59.9694-2.56605 60.9886-2.133 62.2033-2.133 63.4532-2.133 64.4722-2.55255 65.2602-3.39166 66.0483-4.23077 66.4423-5.35922 66.4423-6.777 66.4423-8.16075 66.0569-9.27619 65.286-10.1233 64.5151-10.9704 63.5145-11.394 62.2843-11.394ZM71.16-3.753 71.16-11.097 69.378-11.097 69.378-13.554 71.16-13.554 71.16-17.55 73.887-17.55 73.887-13.554 76.911-13.554 76.911-11.097 73.887-11.097 73.887-3.942C73.887-3.42084 73.9924-3.04755 74.2032-2.82213 74.414-2.59671 74.7496-2.484 75.21-2.484L76.911-2.484 76.911 0 74.886 0C73.6032 0 72.6615-0.305227 72.0609-0.91568 71.4603-1.52613 71.16-2.47191 71.16-3.753ZM78.566-17.928 81.536-17.928 81.536-15.012 78.566-15.012ZM78.674 0 78.674-13.554 81.428-13.554 81.428 0ZM90.1903 0.405C88.1156 0.405 86.4269-0.255656 85.1243-1.57697 83.8216-2.89828 83.1703-4.62262 83.1703-6.75 83.1703-8.75419 83.8525-10.4477 85.2169-11.8306 86.5812-13.2135 88.257-13.905 90.2443-13.905 91.6832-13.905 92.9175-13.5697 93.9471-12.899 94.9768-12.2284 95.7585-11.1957 96.2923-9.801L94.0252-8.775C93.5555-9.73406 93.0137-10.4238 92.3999-10.8443 91.7861-11.2648 91.0586-11.475 90.2173-11.475 89.0181-11.475 88.0073-11.0214 87.1849-10.1142 86.3625-9.20707 85.9513-8.08566 85.9513-6.75 85.9513-5.38509 86.3636-4.25637 87.1881-3.36382 88.0125-2.47127 89.0403-2.025 90.2713-2.025 91.0591-2.025 91.7965-2.24121 92.4834-2.67363 93.1704-3.10605 93.7715-3.77184 94.2867-4.671L96.3733-3.57961C95.8094-2.27264 94.984-1.2818 93.8969-0.607078 92.8099 0.0676406 91.5744 0.405 90.1903 0.405Z" transform="translate(70.6207 37)"/></g></g></g><rect x="696" y="47" width="222" height="137" stroke="#000000" stroke-width="4" stroke-miterlimit="8" fill="#F2F2F2"/><text font-family="IntelOne Display AR Regular,IntelOne Display AR Regular_MSFontService,sans-serif" font-weight="700" font-size="27" transform="translate(734.792 137)">Pre<tspan font-size="27" x="39.6666" y="0">-</tspan><tspan font-size="27" x="48" y="0">synaptic</tspan></text><rect x="906" y="112" width="21" height="21" fill="#7030A0"/><rect x="696.5" y="47.5001" width="222" height="33" stroke="#000000" stroke-width="3" stroke-miterlimit="8" fill="#595959"/><text fill="#FFFFFF" font-family="IntelOne Display AR Regular,IntelOne Display AR Regular_MSFontService,sans-serif" font-weight="700" font-size="21" transform="translate(792.245 70)">LIF</text><rect x="686" y="112" width="22" height="21" fill="#00B050"/><g clip-path="url(#clip30)"><g clip-path="url(#clip31)" filter="url(#fx6)" transform="translate(64 489)"><g clip-path="url(#clip32)"><rect x="8.82843" y="8.82843" width="222" height="136" stroke="#000000" stroke-width="4" stroke-miterlimit="8" fill="#F2F2F2"/></g></g><g clip-path="url(#clip33)" filter="url(#fx7)" transform="translate(71 551)"><g clip-path="url(#clip34)"><path d="M12.42-8.04558 17.793 0 14.6197 0 9.51666-7.695 4.617-7.695 4.617 0 1.755 0 1.755-19.413 10.341-19.413C12.5317-19.413 14.2493-18.8991 15.494-17.8713 16.7387-16.8434 17.361-15.4403 17.361-13.662 17.361-12.1899 16.9069-10.9524 15.9986-9.9495 15.0903-8.94656 13.8974-8.31192 12.42-8.04558ZM14.472-13.608C14.472-14.616 14.1089-15.408 13.3827-15.984 12.6565-16.56 11.6246-16.848 10.287-16.848L4.617-16.848 4.617-10.233 10.098-10.233C11.4528-10.233 12.5205-10.5394 13.3011-11.1523 14.0817-11.7651 14.472-12.5837 14.472-13.608ZM30.676 0 28.003 0 28.003-2.133C27.7808-1.41469 27.2043-0.834609 26.2735-0.392766 25.3427 0.0490781 24.3442 0.27 23.278 0.27 21.7713 0.27 20.5397-0.117422 19.583-0.892266 18.6263-1.66711 18.148-2.69269 18.148-3.969 18.148-5.36428 18.6821-6.4196 19.7503-7.13496 20.8185-7.85032 22.3724-8.208 24.412-8.208L27.976-8.208C27.9588-9.19659 27.6646-9.99724 27.0932-10.6099 26.5219-11.2226 25.7001-11.529 24.628-11.529 23.9817-11.529 23.3417-11.392 22.708-11.1179 22.0744-10.8438 21.3717-10.3958 20.5999-9.774L19.201-11.5151C20.0287-12.3602 20.9097-12.9743 21.844-13.3574 22.7784-13.7405 23.7783-13.932 24.844-13.932 26.6713-13.932 28.1001-13.3885 29.1305-12.3015 30.1608-11.2144 30.676-9.73294 30.676-7.857ZM27.976-5.994 24.439-5.994C23.1728-5.994 22.2578-5.83291 21.6939-5.51074 21.13-5.18857 20.848-4.69266 20.848-4.023 20.848-3.44616 21.0937-2.96445 21.585-2.57787 22.0764-2.19129 22.7217-1.998 23.521-1.998 24.7416-1.998 25.7721-2.39266 26.6123-3.18199 27.4525-3.97132 27.9071-4.90866 27.976-5.994ZM32.431-13.554 35.131-13.554 35.131-11.556C35.3445-12.2524 35.8722-12.8135 36.7141-13.2393 37.556-13.6651 38.4953-13.878 39.532-13.878 41.3466-13.878 42.7633-13.2931 43.782-12.1234 44.8007-10.9537 45.31-9.36956 45.31-7.371L45.31 0 42.583 0 42.583-7.236C42.583-8.53537 42.2692-9.55322 41.6416-10.2895 41.014-11.0258 40.1398-11.394 39.019-11.394 37.8563-11.394 36.9221-10.9992 36.2165-10.2096 35.5108-9.41998 35.158-8.38378 35.158-7.101L35.158 0 32.431 0ZM57.7357-19.413 60.4897-19.413 60.4897 0 57.7627 0 57.7627-2.106C57.4637-1.38488 56.8781-0.808594 56.0058-0.377156 55.1335 0.0542812 54.1981 0.27 53.1997 0.27 51.3043 0.27 49.7145-0.390867 48.4302-1.7126 47.1458-3.03434 46.5037-4.71347 46.5037-6.75 46.5037-8.78934 47.1631-10.4872 48.4821-11.8435 49.801-13.1998 51.4275-13.878 53.3617-13.878 54.3019-13.878 55.1909-13.6851 56.0288-13.2992 56.8666-12.9133 57.4356-12.4042 57.7357-11.772ZM53.4427-2.16C54.6745-2.16 55.7115-2.60655 56.5536-3.49966 57.3956-4.39277 57.8167-5.50322 57.8167-6.831 57.8167-8.16216 57.4098-9.25994 56.5962-10.1244 55.7825-10.9888 54.7674-11.421 53.5507-11.421 52.2952-11.421 51.2703-10.9985 50.476-10.1535 49.6818-9.30846 49.2847-8.19197 49.2847-6.804 49.2847-5.40281 49.6745-4.27852 50.4541-3.43111 51.2337-2.5837 52.2299-2.16 53.4427-2.16ZM75.7913-6.777C75.7913-4.73934 75.1084-3.03293 73.7425-1.65776 72.3766-0.282586 70.6926 0.405 68.6903 0.405 66.6873 0.405 65.0165-0.278297 63.678-1.64489 62.3396-3.01148 61.6703-4.71319 61.6703-6.75 61.6703-8.775 62.3519-10.4738 63.7152-11.8463 65.0784-13.2188 66.7638-13.905 68.7713-13.905 70.7744-13.905 72.4452-13.2217 73.7836-11.8551 75.1221-10.4885 75.7913-8.79581 75.7913-6.777ZM64.4513-6.75C64.4513-5.40253 64.8637-4.27816 65.6885-3.3769 66.5133-2.47563 67.5319-2.025 68.7443-2.025 69.936-2.025 70.9449-2.47641 71.7711-3.37922 72.5973-4.28203 73.0103-5.41463 73.0103-6.777 73.0103-8.08847 72.5935-9.19934 71.7597-10.1096 70.9259-11.0199 69.9118-11.475 68.7173-11.475 67.5201-11.475 66.5097-11.0251 65.6864-10.1252 64.863-9.22535 64.4513-8.10028 64.4513-6.75ZM77.0977-13.554 79.7977-13.554 79.7977-12.015C79.9782-12.5871 80.3987-13.0406 81.0591-13.3755 81.7195-13.7105 82.46-13.878 83.2807-13.878 84.2274-13.878 85.0734-13.6773 85.8189-13.2758 86.5643-12.8743 87.0825-12.346 87.3733-11.691 87.7178-12.3503 88.2847-12.8796 89.0739-13.2789 89.8631-13.6783 90.749-13.878 91.7317-13.878 93.3449-13.878 94.6302-13.3566 95.5876-12.3139 96.545-11.2712 97.0237-9.92953 97.0237-8.289L97.0237 0 94.2697 0 94.2697-8.154C94.2697-9.18197 94.0195-9.97896 93.5192-10.545 93.0188-11.111 92.315-11.394 91.4077-11.394 90.515-11.394 89.7923-11.0846 89.2397-10.4659 88.687-9.84713 88.4107-9.0315 88.4107-8.019L88.4107 0 85.6837 0 85.6837-8.154C85.6837-9.18197 85.4335-9.97896 84.9332-10.545 84.4328-11.111 83.729-11.394 82.8217-11.394 81.929-11.394 81.2063-11.0846 80.6537-10.4659 80.101-9.84713 79.8247-9.0315 79.8247-8.019L79.8247 0 77.0977 0ZM116.089-5.589C116.089-6.58097 115.692-7.31081 114.899-7.77853 114.105-8.24625 112.779-8.50669 110.921-8.55984 108.295-8.68781 106.376-9.16376 105.164-9.98768 103.951-10.8116 103.345-12.0904 103.345-13.824 103.345-15.5168 104.062-16.9346 105.495-18.0771 106.928-19.2197 108.722-19.791 110.878-19.791 112.443-19.791 113.858-19.5213 115.123-18.9818 116.388-18.4424 117.52-17.5725 118.519-16.3721L116.785-14.58C115.924-15.4558 114.998-16.1113 114.006-16.5464 113.014-16.9815 111.971-17.199 110.878-17.199 109.499-17.199 108.371-16.8872 107.495-16.2637 106.618-15.6402 106.18-14.8899 106.18-14.013 106.18-13.0764 106.568-12.3958 107.342-11.9711 108.116-11.5464 109.415-11.3078 111.238-11.2552 113.871-11.1447 115.811-10.6507 117.056-9.77337 118.302-8.89601 118.924-7.56422 118.924-5.778 118.924-3.99769 118.184-2.52661 116.704-1.36477 115.223-0.202922 113.344 0.378 111.067 0.378 109.226 0.378 107.635 0.0822656 106.295-0.509203 104.955-1.10067 103.747-2.10164 102.67-3.51211L104.377-5.319C105.405-4.20497 106.441-3.40896 107.484-2.93098 108.527-2.45299 109.721-2.214 111.067-2.214 112.555-2.214 113.763-2.53962 114.694-3.19085 115.624-3.84209 116.089-4.64147 116.089-5.589ZM123.158 4.86 120.431 4.86 120.431-13.554 123.131-13.554 123.131-11.475C123.405-12.1747 123.984-12.7457 124.868-13.1878 125.752-13.6299 126.694-13.851 127.694-13.851 129.61-13.851 131.206-13.1907 132.479-11.8701 133.753-10.5495 134.39-8.86978 134.39-6.831 134.39-4.76072 133.729-3.05515 132.407-1.71429 131.085-0.37343 129.46 0.297 127.532 0.297 126.605 0.297 125.716 0.105047 124.864-0.278859 124.012-0.662766 123.443-1.18181 123.158-1.836ZM127.451-11.394C126.213-11.394 125.175-10.949 124.336-10.059 123.497-9.16896 123.077-8.05697 123.077-6.723 123.077-5.39522 123.489-4.29827 124.312-3.43216 125.136-2.56605 126.155-2.133 127.37-2.133 128.62-2.133 129.639-2.55255 130.427-3.39166 131.215-4.23077 131.609-5.35922 131.609-6.777 131.609-8.16075 131.224-9.27619 130.453-10.1233 129.682-10.9704 128.681-11.394 127.451-11.394ZM135.733-17.928 138.703-17.928 138.703-15.012 135.733-15.012ZM135.841 0 135.841-13.554 138.595-13.554 138.595 0ZM140.931-19.413 143.658-19.413 143.658-8.046 149.38-13.554 152.676-13.554 152.676-13.1321 145.683-7.08033 152.703-0.417234 152.703 0 149.404 0 143.658-6.048 143.658 0 140.931 0ZM159.825-1.971C160.643-1.971 161.397-2.14594 162.088-2.49581 162.779-2.84569 163.481-3.42675 164.195-4.239L165.819-2.77552C165.016-1.64433 164.1-0.831445 163.074-0.336867 162.047 0.157711 160.901 0.405 159.636 0.405 157.597 0.405 155.926-0.264938 154.624-1.60481 153.322-2.94469 152.67-4.65975 152.67-6.75 152.67-8.77134 153.334-10.4647 154.662-11.83 155.99-13.1953 157.63-13.878 159.582-13.878 161.571-13.878 163.185-13.2311 164.422-11.9374 165.66-10.6436 166.278-8.9685 166.278-6.912 166.278-6.87375 166.273-6.76364 166.261-6.58167 166.25-6.3997 166.216-6.11381 166.161-5.724L155.478-5.724C155.613-4.69941 156.084-3.81776 156.89-3.07905 157.697-2.34035 158.675-1.971 159.825-1.971ZM159.609-11.502C158.547-11.502 157.635-11.1549 156.873-10.4608 156.111-9.76669 155.646-8.92575 155.478-7.938L163.524-7.938C163.37-8.94741 162.939-9.79376 162.231-10.4771 161.522-11.1604 160.648-11.502 159.609-11.502ZM178.641-4.077C178.641-2.76103 178.089-1.69404 176.986-0.876023 175.882-0.0580078 174.463 0.351 172.728 0.351 171.591 0.351 170.527 0.170508 169.537-0.190477 168.547-0.551461 167.621-1.14595 166.761-1.97395L168.105-3.969C169.073-3.23887 169.901-2.72784 170.588-2.43591 171.275-2.14397 172.006-1.998 172.782-1.998 173.767-1.998 174.549-2.18123 175.127-2.5477 175.706-2.91417 175.995-3.37894 175.995-3.942 175.995-4.49888 175.757-4.9083 175.28-5.17029 174.804-5.43227 173.967-5.57184 172.769-5.589 170.893-5.66325 169.508-6.01755 168.614-6.65191 167.72-7.28627 167.274-8.28197 167.274-9.639 167.274-10.8638 167.783-11.8811 168.802-12.6906 169.821-13.5002 171.121-13.905 172.701-13.905 173.758-13.905 174.752-13.7372 175.684-13.4017 176.616-13.0662 177.493-12.5266 178.317-11.783L177.056-9.828C176.184-10.4434 175.419-10.8807 174.762-11.14 174.105-11.3993 173.409-11.529 172.674-11.529 171.848-11.529 171.183-11.3525 170.678-10.9995 170.172-10.6466 169.92-10.2291 169.92-9.747 169.92-9.20306 170.141-8.80488 170.582-8.55246 171.024-8.30004 171.774-8.14781 172.832-8.09578 174.842-8.04037 176.312-7.6957 177.243-7.06177 178.175-6.42783 178.641-5.43291 178.641-4.077Z" transform="translate(23.4635 37)"/></g></g></g><rect x="70" y="495" width="222" height="136" stroke="#000000" stroke-width="4" stroke-miterlimit="8" fill="#F2F2F2"/><text font-family="IntelOne Display AR Regular,IntelOne Display AR Regular_MSFontService,sans-serif" font-weight="700" font-size="27" transform="translate(91.6351 585)">Random Spikes</text><rect x="279" y="559" width="23" height="23" fill="#7030A0"/><rect x="70.5001" y="495.5" width="222" height="32" stroke="#000000" stroke-width="3" stroke-miterlimit="8" fill="#595959"/><text fill="#FFFFFF" font-family="IntelOne Display AR Regular,IntelOne Display AR Regular_MSFontService,sans-serif" font-weight="700" font-size="21" transform="translate(130.088 517)">Ring Buffer</text><path d="M301.513 569 366.761 569.546 366.736 572.545 301.488 572ZM365.286 566.533 374.248 571.108 365.211 575.533Z" fill="#00B050"/><g clip-path="url(#clip35)"><g clip-path="url(#clip36)" filter="url(#fx8)" transform="translate(377 489)"><g clip-path="url(#clip37)"><rect x="8.82843" y="8.82843" width="222" height="136" stroke="#000000" stroke-width="4" stroke-miterlimit="8" fill="#F2F2F2"/></g></g><g clip-path="url(#clip38)" filter="url(#fx9)" transform="translate(444 551)"><g clip-path="url(#clip39)"><path d="M1.944 0 1.944-19.413 4.806-19.413 4.806 0ZM7.431-13.554 10.131-13.554 10.131-11.556C10.3445-12.2524 10.8722-12.8135 11.7141-13.2393 12.556-13.6651 13.4953-13.878 14.532-13.878 16.3466-13.878 17.7633-13.2931 18.782-12.1234 19.8007-10.9537 20.31-9.36956 20.31-7.371L20.31 0 17.583 0 17.583-7.236C17.583-8.53537 17.2692-9.55322 16.6416-10.2895 16.014-11.0258 15.1398-11.394 14.019-11.394 12.8563-11.394 11.9221-10.9992 11.2165-10.2096 10.5108-9.41998 10.158-8.38378 10.158-7.101L10.158 0 7.431 0ZM24.8247 4.86 22.0977 4.86 22.0977-13.554 24.7977-13.554 24.7977-11.475C25.0713-12.1747 25.6502-12.7457 26.5343-13.1878 27.4184-13.6299 28.3605-13.851 29.3607-13.851 31.2771-13.851 32.8722-13.1907 34.146-11.8701 35.4198-10.5495 36.0567-8.86978 36.0567-6.831 36.0567-4.76072 35.3957-3.05515 34.0736-1.71429 32.7516-0.37343 31.1266 0.297 29.1987 0.297 28.2719 0.297 27.3826 0.105047 26.5305-0.278859 25.6785-0.662766 25.1099-1.18181 24.8247-1.836ZM29.1177-11.394C27.8799-11.394 26.8414-10.949 26.0023-10.059 25.1632-9.16896 24.7437-8.05697 24.7437-6.723 24.7437-5.39522 25.1555-4.29827 25.9791-3.43216 26.8028-2.56605 27.8219-2.133 29.0367-2.133 30.2865-2.133 31.3055-2.55255 32.0936-3.39166 32.8816-4.23077 33.2757-5.35922 33.2757-6.777 33.2757-8.16075 32.8902-9.27619 32.1193-10.1233 31.3484-10.9704 30.3479-11.394 29.1177-11.394ZM50.0083 0 47.2813 0 47.2813-1.998C47.0583-1.27856 46.5322-0.716203 45.7029-0.310922 44.8736 0.0943594 43.9328 0.297 42.8803 0.297 41.0846 0.297 39.6726-0.287789 38.6445-1.45737 37.6164-2.62695 37.1023-4.21116 37.1023-6.21L37.1023-13.554 39.8563-13.554 39.8563-6.345C39.8563-5.02791 40.1702-4.00113 40.798-3.26468 41.4257-2.52823 42.2998-2.16 43.4203-2.16 44.5591-2.16 45.4828-2.55649 46.1914-3.34948 46.9-4.14246 47.2543-5.18597 47.2543-6.48L47.2543-13.554 50.0083-13.554ZM52.66-3.753 52.66-11.097 50.878-11.097 50.878-13.554 52.66-13.554 52.66-17.55 55.387-17.55 55.387-13.554 58.411-13.554 58.411-11.097 55.387-11.097 55.387-3.942C55.387-3.42084 55.4924-3.04755 55.7032-2.82213 55.914-2.59671 56.2496-2.484 56.71-2.484L58.411-2.484 58.411 0 56.386 0C55.1032 0 54.1615-0.305227 53.5609-0.91568 52.9603-1.52613 52.66-2.47191 52.66-3.753Z" transform="translate(23.4724 37)"/></g></g></g><rect x="383" y="495" width="222" height="136" stroke="#000000" stroke-width="4" stroke-miterlimit="8" fill="#F2F2F2"/><text font-family="IntelOne Display AR Regular,IntelOne Display AR Regular_MSFontService,sans-serif" font-weight="700" font-size="27" transform="translate(464.644 585)">Input</text><rect x="593" y="560" width="21" height="21" fill="#7030A0"/><rect x="383.5" y="495.5" width="222" height="32" stroke="#000000" stroke-width="3" stroke-miterlimit="8" fill="#595959"/><text fill="#FFFFFF" font-family="IntelOne Display AR Regular,IntelOne Display AR Regular_MSFontService,sans-serif" font-weight="700" font-size="21" transform="translate(464.264 517)">Dense</text><path d="M614.513 564 679.761 564.546 679.736 567.545 614.488 567ZM678.286 561.533 687.248 566.108 678.211 570.533Z" fill="#00B050"/><rect x="373" y="560" width="22" height="20" fill="#00B050"/><g clip-path="url(#clip40)"><g clip-path="url(#clip41)" filter="url(#fx10)" transform="translate(690 489)"><g clip-path="url(#clip42)"><rect x="8.82843" y="8.82843" width="222" height="136" stroke="#000000" stroke-width="4" stroke-miterlimit="8" fill="#F2F2F2"/></g></g><g clip-path="url(#clip43)" filter="url(#fx11)" transform="translate(709 551)"><g clip-path="url(#clip44)"><path d="M1.755 0 1.755-19.413 10.233-19.413C12.3713-19.413 14.0669-18.8714 15.3198-17.7881 16.5726-16.7049 17.199-15.2485 17.199-13.419 17.199-11.5521 16.5222-10.0593 15.1687-8.9408 13.8152-7.82227 12.026-7.263 9.801-7.263L4.617-7.263 4.617 0ZM14.283-13.365C14.283-14.4318 13.9238-15.27 13.2055-15.8796 12.4872-16.4892 11.4694-16.794 10.152-16.794L4.617-16.794 4.617-9.855 9.963-9.855C11.2984-9.855 12.3522-10.1699 13.1245-10.7996 13.8968-11.4293 14.283-12.2844 14.283-13.365ZM31.6247-6.777C31.6247-4.73934 30.9417-3.03293 29.5758-1.65776 28.2099-0.282586 26.5259 0.405 24.5237 0.405 22.5206 0.405 20.8498-0.278297 19.5114-1.64489 18.1729-3.01148 17.5037-4.71319 17.5037-6.75 17.5037-8.775 18.1853-10.4738 19.5485-11.8463 20.9117-13.2188 22.5971-13.905 24.6047-13.905 26.6077-13.905 28.2785-13.2217 29.617-11.8551 30.9554-10.4885 31.6247-8.79581 31.6247-6.777ZM20.2847-6.75C20.2847-5.40253 20.6971-4.27816 21.5218-3.3769 22.3466-2.47563 23.3652-2.025 24.5777-2.025 25.7693-2.025 26.7782-2.47641 27.6044-3.37922 28.4306-4.28203 28.8437-5.41463 28.8437-6.777 28.8437-8.08847 28.4268-9.19934 27.593-10.1096 26.7593-11.0199 25.7451-11.475 24.5507-11.475 23.3534-11.475 22.3431-11.0251 21.5197-10.1252 20.6963-9.22535 20.2847-8.10028 20.2847-6.75ZM43.974-4.077C43.974-2.76103 43.4223-1.69404 42.319-0.876023 41.2156-0.0580078 39.7963 0.351 38.061 0.351 36.9242 0.351 35.8606 0.170508 34.8704-0.190477 33.8801-0.551461 32.9546-1.14595 32.094-1.97395L33.4381-3.969C34.4064-3.23887 35.2341-2.72784 35.921-2.43591 36.608-2.14397 37.3393-1.998 38.115-1.998 39.1005-1.998 39.8824-2.18123 40.4606-2.5477 41.0389-2.91417 41.328-3.37894 41.328-3.942 41.328-4.49888 41.0899-4.9083 40.6136-5.17029 40.1373-5.43227 39.3002-5.57184 38.1023-5.589 36.2261-5.66325 34.8412-6.01755 33.9475-6.65191 33.0538-7.28627 32.607-8.28197 32.607-9.639 32.607-10.8638 33.1165-11.8811 34.1355-12.6906 35.1544-13.5002 36.4539-13.905 38.034-13.905 39.0909-13.905 40.0854-13.7372 41.0173-13.4017 41.9492-13.0662 42.8268-12.5266 43.65-11.783L42.389-9.828C41.5169-10.4434 40.7522-10.8807 40.0951-11.14 39.4379-11.3993 38.7419-11.529 38.007-11.529 37.1818-11.529 36.5165-11.3525 36.0111-10.9995 35.5057-10.6466 35.253-10.2291 35.253-9.747 35.253-9.20306 35.4739-8.80488 35.9158-8.55246 36.3576-8.30004 37.1076-8.14781 38.1656-8.09578 40.1749-8.04037 41.6453-7.6957 42.5768-7.06177 43.5083-6.42783 43.974-5.43291 43.974-4.077ZM45.9933-3.753 45.9933-11.097 44.2113-11.097 44.2113-13.554 45.9933-13.554 45.9933-17.55 48.7203-17.55 48.7203-13.554 51.7443-13.554 51.7443-11.097 48.7203-11.097 48.7203-3.942C48.7203-3.42084 48.8257-3.04755 49.0365-2.82213 49.2473-2.59671 49.5829-2.484 50.0433-2.484L51.7443-2.484 51.7443 0 49.7193 0C48.4366 0 47.4949-0.305227 46.8942-0.91568 46.2936-1.52613 45.9933-2.47191 45.9933-3.753Z" transform="translate(22.5374 37)"/><path d="M0.756-6.723 0.756-9.342 8.343-9.342 8.343-6.723Z" transform="translate(74.3707 37)"/><path d="M12.474-4.077C12.474-2.76103 11.9223-1.69404 10.819-0.876023 9.71564-0.0580078 8.29631 0.351 6.561 0.351 5.42419 0.351 4.36064 0.170508 3.37036-0.190477 2.38008-0.551461 1.45462-1.14595 0.594-1.97395L1.93809-3.969C2.90644-3.23887 3.73409-2.72784 4.42104-2.43591 5.10799-2.14397 5.83931-1.998 6.615-1.998 7.6005-1.998 8.38237-2.18123 8.96063-2.5477 9.53887-2.91417 9.828-3.37894 9.828-3.942 9.828-4.49888 9.58985-4.9083 9.11355-5.17029 8.63726-5.43227 7.80019-5.57184 6.60234-5.589 4.72612-5.66325 3.34118-6.01755 2.44751-6.65191 1.55384-7.28627 1.107-8.28197 1.107-9.639 1.107-10.8638 1.61648-11.8811 2.63545-12.6906 3.65442-13.5002 4.95394-13.905 6.534-13.905 7.59094-13.905 8.58537-13.7372 9.51729-13.4017 10.4492-13.0662 11.3268-12.5266 12.15-11.783L10.889-9.828C10.0169-10.4434 9.25221-10.8807 8.59507-11.14 7.93793-11.3993 7.24191-11.529 6.507-11.529 5.68181-11.529 5.01652-11.3525 4.51111-10.9995 4.0057-10.6466 3.753-10.2291 3.753-9.747 3.753-9.20306 3.97392-8.80488 4.41577-8.55246 4.85761-8.30004 5.60756-8.14781 6.66563-8.09578 8.67488-8.04037 10.1453-7.6957 11.0768-7.06177 12.0082-6.42783 12.474-5.43291 12.474-4.077ZM18.1923-0.375469 12.6843-13.554 15.5446-13.554 19.5672-3.213 23.5898-13.554 26.3463-13.554 18.6644 4.86 15.9513 4.86ZM27.0977-13.554 29.7977-13.554 29.7977-11.556C30.0111-12.2524 30.5388-12.8135 31.3808-13.2393 32.2227-13.6651 33.162-13.878 34.1987-13.878 36.0133-13.878 37.4299-13.2931 38.4486-12.1234 39.4673-10.9537 39.9767-9.36956 39.9767-7.371L39.9767 0 37.2497 0 37.2497-7.236C37.2497-8.53537 36.9359-9.55322 36.3083-10.2895 35.6806-11.0258 34.8064-11.394 33.6857-11.394 32.523-11.394 31.5888-10.9992 30.8832-10.2096 30.1775-9.41998 29.8247-8.38378 29.8247-7.101L29.8247 0 27.0977 0ZM53.5093 0 50.8363 0 50.8363-2.133C50.6141-1.41469 50.0377-0.834609 49.1069-0.392766 48.1761 0.0490781 47.1776 0.27 46.1113 0.27 44.6047 0.27 43.373-0.117422 42.4163-0.892266 41.4597-1.66711 40.9813-2.69269 40.9813-3.969 40.9813-5.36428 41.5154-6.4196 42.5836-7.13496 43.6518-7.85032 45.2057-8.208 47.2453-8.208L50.8093-8.208C50.7922-9.19659 50.4979-9.99724 49.9266-10.6099 49.3552-11.2226 48.5335-11.529 47.4613-11.529 46.815-11.529 46.175-11.392 45.5414-11.1179 44.9077-10.8438 44.205-10.3958 43.4333-9.774L42.0343-11.5151C42.8621-12.3602 43.7431-12.9743 44.6774-13.3574 45.6117-13.7405 46.6117-13.932 47.6773-13.932 49.5046-13.932 50.9334-13.3885 51.9638-12.3015 52.9942-11.2144 53.5093-9.73294 53.5093-7.857ZM50.8093-5.994 47.2723-5.994C46.0061-5.994 45.0911-5.83291 44.5272-5.51074 43.9633-5.18857 43.6813-4.69266 43.6813-4.023 43.6813-3.44616 43.927-2.96445 44.4184-2.57787 44.9097-2.19129 45.555-1.998 46.3543-1.998 47.575-1.998 48.6054-2.39266 49.4456-3.18199 50.2859-3.97132 50.7404-4.90866 50.8093-5.994ZM57.9913 4.86 55.2643 4.86 55.2643-13.554 57.9643-13.554 57.9643-11.475C58.238-12.1747 58.8169-12.7457 59.701-13.1878 60.5851-13.6299 61.5272-13.851 62.5273-13.851 64.4438-13.851 66.0389-13.1907 67.3127-11.8701 68.5864-10.5495 69.2233-8.86978 69.2233-6.831 69.2233-4.76072 68.5623-3.05515 67.2403-1.71429 65.9183-0.37343 64.2933 0.297 62.3653 0.297 61.4386 0.297 60.5492 0.105047 59.6972-0.278859 58.8451-0.662766 58.2765-1.18181 57.9913-1.836ZM62.2843-11.394C61.0466-11.394 60.0081-10.949 59.169-10.059 58.3299-9.16896 57.9103-8.05697 57.9103-6.723 57.9103-5.39522 58.3222-4.29827 59.1458-3.43216 59.9694-2.56605 60.9886-2.133 62.2033-2.133 63.4532-2.133 64.4722-2.55255 65.2602-3.39166 66.0483-4.23077 66.4423-5.35922 66.4423-6.777 66.4423-8.16075 66.0569-9.27619 65.286-10.1233 64.5151-10.9704 63.5145-11.394 62.2843-11.394ZM71.16-3.753 71.16-11.097 69.378-11.097 69.378-13.554 71.16-13.554 71.16-17.55 73.887-17.55 73.887-13.554 76.911-13.554 76.911-11.097 73.887-11.097 73.887-3.942C73.887-3.42084 73.9924-3.04755 74.2032-2.82213 74.414-2.59671 74.7496-2.484 75.21-2.484L76.911-2.484 76.911 0 74.886 0C73.6032 0 72.6615-0.305227 72.0609-0.91568 71.4603-1.52613 71.16-2.47191 71.16-3.753ZM78.566-17.928 81.536-17.928 81.536-15.012 78.566-15.012ZM78.674 0 78.674-13.554 81.428-13.554 81.428 0ZM90.1903 0.405C88.1156 0.405 86.4269-0.255656 85.1243-1.57697 83.8216-2.89828 83.1703-4.62262 83.1703-6.75 83.1703-8.75419 83.8525-10.4477 85.2169-11.8306 86.5812-13.2135 88.257-13.905 90.2443-13.905 91.6832-13.905 92.9175-13.5697 93.9471-12.899 94.9768-12.2284 95.7585-11.1957 96.2923-9.801L94.0252-8.775C93.5555-9.73406 93.0137-10.4238 92.3999-10.8443 91.7861-11.2648 91.0586-11.475 90.2173-11.475 89.0181-11.475 88.0073-11.0214 87.1849-10.1142 86.3625-9.20707 85.9513-8.08566 85.9513-6.75 85.9513-5.38509 86.3636-4.25637 87.1881-3.36382 88.0125-2.47127 89.0403-2.025 90.2713-2.025 91.0591-2.025 91.7965-2.24121 92.4834-2.67363 93.1704-3.10605 93.7715-3.77184 94.2867-4.671L96.3733-3.57961C95.8094-2.27264 94.984-1.2818 93.8969-0.607078 92.8099 0.0676406 91.5744 0.405 90.1903 0.405Z" transform="translate(82.7041 37)"/></g></g></g><rect x="696" y="495" width="222" height="136" stroke="#000000" stroke-width="4" stroke-miterlimit="8" fill="#F2F2F2"/><text font-family="IntelOne Display AR Regular,IntelOne Display AR Regular_MSFontService,sans-serif" font-weight="700" font-size="27" transform="translate(728.709 585)">Post<tspan font-size="27" x="51.8333" y="0">-</tspan><tspan font-size="27" x="60.1667" y="0">synaptic</tspan></text><rect x="906" y="537" width="21" height="21" fill="#7030A0"/><rect x="696.5" y="495.5" width="222" height="32" stroke="#000000" stroke-width="3" stroke-miterlimit="8" fill="#595959"/><text fill="#FFFFFF" font-family="IntelOne Display AR Regular,IntelOne Display AR Regular_MSFontService,sans-serif" font-weight="700" font-size="21" transform="translate(792.245 517)">LIF</text><rect x="686" y="560" width="22" height="20" fill="#00B050"/><g clip-path="url(#clip45)"><g clip-path="url(#clip46)" filter="url(#fx12)" transform="translate(987 245)"><g clip-path="url(#clip47)"><rect x="8.82843" y="8.82843" width="221" height="136" stroke="#000000" stroke-width="4" stroke-miterlimit="8" fill="#F2F2F2"/></g></g><g clip-path="url(#clip48)" filter="url(#fx13)" transform="translate(1046 307)"><g clip-path="url(#clip49)"><path d="M1.755 0 1.755-19.413 10.233-19.413C12.3713-19.413 14.0669-18.8714 15.3198-17.7881 16.5726-16.7049 17.199-15.2485 17.199-13.419 17.199-11.5521 16.5222-10.0593 15.1687-8.9408 13.8152-7.82227 12.026-7.263 9.801-7.263L4.617-7.263 4.617 0ZM14.283-13.365C14.283-14.4318 13.9238-15.27 13.2055-15.8796 12.4872-16.4892 11.4694-16.794 10.152-16.794L4.617-16.794 4.617-9.855 9.963-9.855C11.2984-9.855 12.3522-10.1699 13.1245-10.7996 13.8968-11.4293 14.283-12.2844 14.283-13.365ZM18.3407-19.413 21.0947-19.413 21.0947 0 18.3407 0ZM35.176 0 32.503 0 32.503-2.133C32.2808-1.41469 31.7043-0.834609 30.7735-0.392766 29.8427 0.0490781 28.8442 0.27 27.778 0.27 26.2713 0.27 25.0397-0.117422 24.083-0.892266 23.1263-1.66711 22.648-2.69269 22.648-3.969 22.648-5.36428 23.1821-6.4196 24.2503-7.13496 25.3185-7.85032 26.8724-8.208 28.912-8.208L32.476-8.208C32.4588-9.19659 32.1646-9.99724 31.5932-10.6099 31.0219-11.2226 30.2001-11.529 29.128-11.529 28.4817-11.529 27.8417-11.392 27.208-11.1179 26.5744-10.8438 25.8717-10.3958 25.0999-9.774L23.701-11.5151C24.5287-12.3602 25.4097-12.9743 26.344-13.3574 27.2784-13.7405 28.2783-13.932 29.344-13.932 31.1713-13.932 32.6001-13.3885 33.6305-12.3015 34.6608-11.2144 35.176-9.73294 35.176-7.857ZM32.476-5.994 28.939-5.994C27.6728-5.994 26.7578-5.83291 26.1939-5.51074 25.63-5.18857 25.348-4.69266 25.348-4.023 25.348-3.44616 25.5937-2.96445 26.085-2.57787 26.5764-2.19129 27.2217-1.998 28.021-1.998 29.2416-1.998 30.2721-2.39266 31.1123-3.18199 31.9525-3.97132 32.4071-4.90866 32.476-5.994ZM47.974-4.077C47.974-2.76103 47.4223-1.69404 46.319-0.876023 45.2156-0.0580078 43.7963 0.351 42.061 0.351 40.9242 0.351 39.8606 0.170508 38.8704-0.190477 37.8801-0.551461 36.9546-1.14595 36.094-1.97395L37.4381-3.969C38.4064-3.23887 39.2341-2.72784 39.921-2.43591 40.608-2.14397 41.3393-1.998 42.115-1.998 43.1005-1.998 43.8824-2.18123 44.4606-2.5477 45.0389-2.91417 45.328-3.37894 45.328-3.942 45.328-4.49888 45.0899-4.9083 44.6136-5.17029 44.1373-5.43227 43.3002-5.57184 42.1023-5.589 40.2261-5.66325 38.8412-6.01755 37.9475-6.65191 37.0538-7.28627 36.607-8.28197 36.607-9.639 36.607-10.8638 37.1165-11.8811 38.1355-12.6906 39.1544-13.5002 40.4539-13.905 42.034-13.905 43.0909-13.905 44.0854-13.7372 45.0173-13.4017 45.9492-13.0662 46.8268-12.5266 47.65-11.783L46.389-9.828C45.5169-10.4434 44.7522-10.8807 44.0951-11.14 43.4379-11.3993 42.7419-11.529 42.007-11.529 41.1818-11.529 40.5165-11.3525 40.0111-10.9995 39.5057-10.6466 39.253-10.2291 39.253-9.747 39.253-9.20306 39.4739-8.80488 39.9158-8.55246 40.3576-8.30004 41.1076-8.14781 42.1656-8.09578 44.1749-8.04037 45.6452-7.6957 46.5768-7.06177 47.5082-6.42783 47.974-5.43291 47.974-4.077ZM49.9933-3.753 49.9933-11.097 48.2113-11.097 48.2113-13.554 49.9933-13.554 49.9933-17.55 52.7203-17.55 52.7203-13.554 55.7443-13.554 55.7443-11.097 52.7203-11.097 52.7203-3.942C52.7203-3.42084 52.8257-3.04755 53.0365-2.82213 53.2473-2.59671 53.5829-2.484 54.0433-2.484L55.7443-2.484 55.7443 0 53.7193 0C52.4366 0 51.4949-0.305227 50.8942-0.91568 50.2936-1.52613 49.9933-2.47191 49.9933-3.753ZM57.3993-17.928 60.3693-17.928 60.3693-15.012 57.3993-15.012ZM57.5073 0 57.5073-13.554 60.2613-13.554 60.2613 0ZM69.0237 0.405C66.9489 0.405 65.2602-0.255656 63.9576-1.57697 62.655-2.89828 62.0037-4.62262 62.0037-6.75 62.0037-8.75419 62.6858-10.4477 64.0502-11.8306 65.4145-13.2135 67.0904-13.905 69.0777-13.905 70.5165-13.905 71.7508-13.5697 72.7805-12.899 73.8101-12.2284 74.5919-11.1957 75.1257-9.801L72.8585-8.775C72.3888-9.73406 71.8471-10.4238 71.2332-10.8443 70.6194-11.2648 69.8919-11.475 69.0507-11.475 67.8514-11.475 66.8406-11.0214 66.0182-10.1142 65.1959-9.20707 64.7847-8.08566 64.7847-6.75 64.7847-5.38509 65.1969-4.25637 66.0214-3.36382 66.8459-2.47127 67.8736-2.025 69.1047-2.025 69.8924-2.025 70.6298-2.24121 71.3168-2.67363 72.0037-3.10605 72.6048-3.77184 73.1201-4.671L75.2067-3.57961C74.6428-2.27264 73.8173-1.2818 72.7303-0.607078 71.6432 0.0676406 70.4077 0.405 69.0237 0.405Z" transform="translate(22.7367 37)"/></g></g></g><rect x="993" y="251" width="221" height="136" stroke="#000000" stroke-width="4" stroke-miterlimit="8" fill="#F2F2F2"/><text font-family="IntelOne Display AR Regular,IntelOne Display AR Regular_MSFontService,sans-serif" font-weight="700" font-size="27" transform="translate(1065.91 341)">Plastic </text><rect x="993.5" y="251.5" width="221" height="32" stroke="#000000" stroke-width="3" stroke-miterlimit="8" fill="#595959"/><text fill="#FFFFFF" font-family="IntelOne Display AR Regular,IntelOne Display AR Regular_MSFontService,sans-serif" font-weight="700" font-size="21" transform="translate(1033.28 273)">LearningDense</text><rect x="982" y="316" width="23" height="20" fill="#00B050"/><path d="M927.5 122 956.591 122 956.591 326.692 955.091 325.192 975.182 325.192 975.182 328.192 953.591 328.192 953.591 123.5 955.091 125 927.5 125ZM973.682 322.192 982.682 326.692 973.682 331.192Z" fill="#00B050"/><rect x="1041" y="377" width="23" height="20" fill="#00B050"/><path d="M0-1.5 126.838-1.5 126.838 142.565 123.838 142.565 123.838 0 125.338 1.5 0 1.5ZM129.838 141.065 125.338 150.065 120.838 141.065Z" fill="#C00000" transform="matrix(1 0 0 -1 927.5 547.565)"/><text font-family="IntelOne Display AR Regular,IntelOne Display AR Regular_MSFontService,sans-serif" font-weight="700" font-size="24" transform="translate(965.143 541)">BAP</text><rect x="1203" y="318" width="23" height="21" fill="#7030A0"/><path d="M1226.5 330.5 1243.73 330.5 1243.73 681.663" stroke="#FFC000" stroke-width="3" stroke-miterlimit="8" fill="none" fill-rule="evenodd"/><path d="M1243.83 681.61 651.667 681.61 651.667 574 679 574 679 577 653.167 577 654.667 575.5 654.667 680.11 653.167 678.61 1243.83 678.61ZM677.5 571 686.5 575.5 677.5 580Z" fill="#FFC000"/><text font-family="IntelOne Display AR Regular,IntelOne Display AR Regular_MSFontService,sans-serif" font-weight="700" font-size="24" transform="translate(959.669 672)">Plastic</text><rect x="908" y="592" width="21" height="21" fill="#7030A0"/><rect x="1151" y="375" width="23" height="21" fill="#00B050"/><path d="M0-1.5 235.558-1.5 235.558 198.686 232.558 198.686 232.558 0 234.058 1.5 0 1.5ZM238.558 197.186 234.058 206.186 229.558 197.186Z" fill="#4472C4" transform="matrix(1 0 0 -1 929.5 602.686)"/><text font-family="IntelOne Display AR Regular,IntelOne Display AR Regular_MSFontService,sans-serif" font-weight="700" font-size="21" transform="translate(1077.08 569)">Reward <tspan font-size="21" x="8.16675" y="26">Trace</tspan></text></g></svg>