<svg width="1280" height="720" xmlns="http://www.w3.org/2000/svg" xmlns:xlink="http://www.w3.org/1999/xlink" overflow="hidden"><defs><filter id="fx0" x="-10%" y="-10%" width="120%" height="120%" filterUnits="userSpaceOnUse" primitiveUnits="userSpaceOnUse"><feComponentTransfer color-interpolation-filters="sRGB"><feFuncR type="discrete" tableValues="0 0"/><feFuncG type="discrete" tableValues="0 0"/><feFuncB type="discrete" tableValues="0 0"/><feFuncA type="linear" slope="0.4" intercept="0"/></feComponentTransfer><feGaussianBlur stdDeviation="1.77778 1.77778"/></filter><filter id="fx1" x="-10%" y="-10%" width="120%" height="120%" filterUnits="userSpaceOnUse" primitiveUnits="userSpaceOnUse"><feComponentTransfer color-interpolation-filters="sRGB"><feFuncR type="discrete" tableValues="0 0"/><feFuncG type="discrete" tableValues="0 0"/><feFuncB type="discrete" tableValues="0 0"/><feFuncA type="linear" slope="0.4" intercept="0"/></feComponentTransfer><feGaussianBlur stdDeviation="1.77778 1.77778"/></filter><filter id="fx2" x="-10%" y="-10%" width="120%" height="120%" filterUnits="userSpaceOnUse" primitiveUnits="userSpaceOnUse"><feComponentTransfer color-interpolation-filters="sRGB"><feFuncR type="discrete" tableValues="0 0"/><feFuncG type="discrete" tableValues="0 0"/><feFuncB type="discrete" tableValues="0 0"/><feFuncA type="linear" slope="0.4" intercept="0"/></feComponentTransfer><feGaussianBlur stdDeviation="1.77778 1.77778"/></filter><filter id="fx3" x="-10%" y="-10%" width="120%" height="120%" filterUnits="userSpaceOnUse" primitiveUnits="userSpaceOnUse"><feComponentTransfer color-interpolation-filters="sRGB"><feFuncR type="discrete" tableValues="0 0"/><feFuncG type="discrete" tableValues="0 0"/><feFuncB type="discrete" tableValues="0 0"/><feFuncA type="linear" slope="0.4" intercept="0"/></feComponentTransfer><feGaussianBlur stdDeviation="1.77778 1.77778"/></filter><filter id="fx4" x="-10%" y="-10%" width="120%" height="120%" filterUnits="userSpaceOnUse" primitiveUnits="userSpaceOnUse"><feComponentTransfer color-interpolation-filters="sRGB"><feFuncR type="discrete" tableValues="0 0"/><feFuncG type="discrete" tableValues="0 0"/><feFuncB type="discrete" tableValues="0 0"/><feFuncA type="linear" slope="0.4" intercept="0"/></feComponentTransfer><feGaussianBlur stdDeviation="1.77778 1.77778"/></filter><filter id="fx5" x="-10%" y="-10%" width="120%" height="120%" filterUnits="userSpaceOnUse" primitiveUnits="userSpaceOnUse"><feComponentTransfer color-interpolation-filters="sRGB"><feFuncR type="discrete" tableValues="0 0"/><feFuncG type="discrete" tableValues="0 0"/><feFuncB type="discrete" tableValues="0 0"/><feFuncA type="linear" slope="0.4" intercept="0"/></feComponentTransfer><feGaussianBlur stdDeviation="1.77778 1.77778"/></filter><filter id="fx6" x="-10%" y="-10%" width="120%" height="120%" filterUnits="userSpaceOnUse" primitiveUnits="userSpaceOnUse"><feComponentTransfer color-interpolation-filters="sRGB"><feFuncR type="discrete" tableValues="0 0"/><feFuncG type="discrete" tableValues="0 0"/><feFuncB type="discrete" tableValues="0 0"/><feFuncA type="linear" slope="0.4" intercept="0"/></feComponentTransfer><feGaussianBlur stdDeviation="1.77778 1.77778"/></filter><filter id="fx7" x="-10%" y="-10%" width="120%" height="120%" filterUnits="userSpaceOnUse" primitiveUnits="userSpaceOnUse"><feComponentTransfer color-interpolation-filters="sRGB"><feFuncR type="discrete" tableValues="0 0"/><feFuncG type="discrete" tableValues="0 0"/><feFuncB type="discrete" tableValues="0 0"/><feFuncA type="linear" slope="0.4" intercept="0"/></feComponentTransfer><feGaussianBlur stdDeviation="1.77778 1.77778"/></filter><filter id="fx8" x="-10%" y="-10%" width="120%" height="120%" filterUnits="userSpaceOnUse" primitiveUnits="userSpaceOnUse"><feComponentTransfer color-interpolation-filters="sRGB"><feFuncR type="discrete" tableValues="0 0"/><feFuncG type="discrete" tableValues="0 0"/><feFuncB type="discrete" tableValues="0 0"/><feFuncA type="linear" slope="0.4" intercept="0"/></feComponentTransfer><feGaussianBlur stdDeviation="1.77778 1.77778"/></filter><filter id="fx9" x="-10%" y="-10%" width="120%" height="120%" filterUnits="userSpaceOnUse" primitiveUnits="userSpaceOnUse"><feComponentTransfer color-interpolation-filters="sRGB"><feFuncR type="discrete" tableValues="0 0"/><feFuncG type="discrete" tableValues="0 0"/><feFuncB type="discrete" tableValues="0 0"/><feFuncA type="linear" slope="0.4" intercept="0"/></feComponentTransfer><feGaussianBlur stdDeviation="1.77778 1.77778"/></filter><filter id="fx10" x="-10%" y="-10%" width="120%" height="120%" filterUnits="userSpaceOnUse" primitiveUnits="userSpaceOnUse"><feComponentTransfer color-interpolation-filters="sRGB"><feFuncR type="discrete" tableValues="0 0"/><feFuncG type="discrete" tableValues="0 0"/><feFuncB type="discrete" tableValues="0 0"/><feFuncA type="linear" slope="0.4" intercept="0"/></feComponentTransfer><feGaussianBlur stdDeviation="1.77778 1.77778"/></filter><filter id="fx11" x="-10%" y="-10%" width="120%" height="120%" filterUnits="userSpaceOnUse" primitiveUnits="userSpaceOnUse"><feComponentTransfer color-interpolation-filters="sRGB"><feFuncR type="discrete" tableValues="0 0"/><feFuncG type="discrete" tableValues="0 0"/><feFuncB type="discrete" tableValues="0 0"/><feFuncA type="linear" slope="0.4" intercept="0"/></feComponentTransfer><feGaussianBlur stdDeviation="1.77778 1.77778"/></filter><filter id="fx12" x="-10%" y="-10%" width="120%" height="120%" filterUnits="userSpaceOnUse" primitiveUnits="userSpaceOnUse"><feComponentTransfer color-interpolation-filters="sRGB"><feFuncR type="discrete" tableValues="0 0"/><feFuncG type="discrete" tableValues="0 0"/><feFuncB type="discrete" tableValues="0 0"/><feFuncA type="linear" slope="0.4" intercept="0"/></feComponentTransfer><feGaussianBlur stdDeviation="1.77778 1.77778"/></filter><filter id="fx13" x="-10%" y="-10%" width="120%" height="120%" filterUnits="userSpaceOnUse" primitiveUnits="userSpaceOnUse"><feComponentTransfer color-interpolation-filters="sRGB"><feFuncR type="discrete" tableValues="0 0"/><feFuncG type="discrete" tableValues="0 0"/><feFuncB type="discrete" tableValues="0 0"/><feFuncA type="linear" slope="0.4" intercept="0"/></feComponentTransfer><feGaussianBlur stdDeviation="1.77778 1.77778"/></filter><filter id="fx14" x="-10%" y="-10%" width="120%" height="120%" filterUnits="userSpaceOnUse" primitiveUnits="userSpaceOnUse"><feComponentTransfer color-interpolation-filters="sRGB"><feFuncR type="discrete" tableValues="0 0"/><feFuncG type="discrete" tableValues="0 0"/><feFuncB type="discrete" tableValues="0 0"/><feFuncA type="linear" slope="0.4" intercept="0"/></feComponentTransfer><feGaussianBlur stdDeviation="1.77778 1.77778"/></filter><filter id="fx15" x="-10%" y="-10%" width="120%" height="120%" filterUnits="userSpaceOnUse" primitiveUnits="userSpaceOnUse"><feComponentTransfer color-interpolation-filters="sRGB"><feFuncR type="discrete" tableValues="0 0"/><feFuncG type="discrete" tableValues="0 0"/><feFuncB type="discrete" tableValues="0 0"/><feFuncA type="linear" slope="0.4" intercept="0"/></feComponentTransfer><feGaussianBlur stdDeviation="1.77778 1.77778"/></filter><clipPath id="clip16"><rect x="0" y="0" width="1280" height="720"/></clipPath><clipPath id="clip17"><path d="M27 53 27 189 249 189 249 53ZM1.90735e-05 1.07288e-05 1280 1.07288e-05 1280 720 1.90735e-05 720Z" fill-rule="evenodd" clip-rule="evenodd"/></clipPath><clipPath id="clip18"><rect x="-2" y="-2" width="242" height="157"/></clipPath><clipPath id="clip19"><rect x="0" y="0" width="240" height="154"/></clipPath><clipPath id="clip20"><rect x="17" y="9" width="192" height="41"/></clipPath><clipPath id="clip21"><rect x="0" y="0" width="224" height="70"/></clipPath><clipPath id="clip22"><path d="M291 53 291 189 513 189 513 53ZM1.90735e-05 1.07288e-05 1280 1.07288e-05 1280 720 1.90735e-05 720Z" fill-rule="evenodd" clip-rule="evenodd"/></clipPath><clipPath id="clip23"><rect x="-2" y="-2" width="242" height="157"/></clipPath><clipPath id="clip24"><rect x="0" y="0" width="240" height="154"/></clipPath><clipPath id="clip25"><rect x="17" y="9" width="74" height="41"/></clipPath><clipPath id="clip26"><rect x="0" y="0" width="105" height="70"/></clipPath><clipPath id="clip27"><path d="M549 53 549 189 771 189 771 53ZM1.90735e-05 1.07288e-05 1280 1.07288e-05 1280 720 1.90735e-05 720Z" fill-rule="evenodd" clip-rule="evenodd"/></clipPath><clipPath id="clip28"><rect x="-2" y="-2" width="242" height="157"/></clipPath><clipPath id="clip29"><rect x="0" y="0" width="240" height="154"/></clipPath><clipPath id="clip30"><rect x="17" y="9" width="159" height="41"/></clipPath><clipPath id="clip31"><rect x="0" y="0" width="190" height="70"/></clipPath><clipPath id="clip32"><path d="M28 484 28 620 250 620 250 484ZM1.90735e-05 1.07288e-05 1280 1.07288e-05 1280 720 1.90735e-05 720Z" fill-rule="evenodd" clip-rule="evenodd"/></clipPath><clipPath id="clip33"><rect x="-2" y="-2" width="242" height="157"/></clipPath><clipPath id="clip34"><rect x="0" y="0" width="240" height="154"/></clipPath><clipPath id="clip35"><rect x="17" y="9" width="161" height="72"/></clipPath><clipPath id="clip36"><rect x="0" y="0" width="198" height="102"/></clipPath><clipPath id="clip37"><path d="M291 485 291 622 513 622 513 485ZM1.90735e-05 1.07288e-05 1280 1.07288e-05 1280 720 1.90735e-05 720Z" fill-rule="evenodd" clip-rule="evenodd"/></clipPath><clipPath id="clip38"><rect x="-2" y="-2" width="242" height="157"/></clipPath><clipPath id="clip39"><rect x="0" y="0" width="240" height="155"/></clipPath><clipPath id="clip40"><rect x="17" y="9" width="72" height="41"/></clipPath><clipPath id="clip41"><rect x="0" y="0" width="104" height="70"/></clipPath><clipPath id="clip42"><path d="M563 484 563 622 785 622 785 484ZM1.90735e-05 1.07288e-05 1280 1.07288e-05 1280 720 1.90735e-05 720Z" fill-rule="evenodd" clip-rule="evenodd"/></clipPath><clipPath id="clip43"><rect x="-2" y="-2" width="242" height="159"/></clipPath><clipPath id="clip44"><rect x="0" y="0" width="240" height="156"/></clipPath><clipPath id="clip45"><rect x="17" y="9" width="171" height="41"/></clipPath><clipPath id="clip46"><rect x="0" y="0" width="203" height="70"/></clipPath><clipPath id="clip47"><path d="M823 262 823 399 1044 399 1044 262ZM1.90735e-05 1.07288e-05 1280 1.07288e-05 1280 720 1.90735e-05 720Z" fill-rule="evenodd" clip-rule="evenodd"/></clipPath><clipPath id="clip48"><rect x="-2" y="-2" width="242" height="157"/></clipPath><clipPath id="clip49"><rect x="0" y="0" width="239" height="155"/></clipPath><clipPath id="clip50"><rect x="17" y="9" width="89" height="35"/></clipPath><clipPath id="clip51"><rect x="0" y="0" width="126" height="70"/></clipPath><clipPath id="clip52"><path d="M1093 102 1093 229 1269 229 1269 102ZM1.90735e-05 1.07288e-05 1280 1.07288e-05 1280 720 1.90735e-05 720Z" fill-rule="evenodd" clip-rule="evenodd"/></clipPath><clipPath id="clip53"><rect x="-2" y="-2" width="197" height="147"/></clipPath><clipPath id="clip54"><rect x="0" y="0" width="194" height="145"/></clipPath><clipPath id="clip55"><rect x="13" y="9" width="153" height="31"/></clipPath><clipPath id="clip56"><rect x="0" y="0" width="178" height="60"/></clipPath></defs><g clip-path="url(#clip16)"><rect x="0" y="0" width="1280" height="720" fill="#FFFFFF"/><g clip-path="url(#clip17)"><g clip-path="url(#clip18)" filter="url(#fx0)" transform="translate(21 47)"><g clip-path="url(#clip19)"><rect x="8.82843" y="8.82843" width="222" height="136" stroke="#000000" stroke-width="4" stroke-miterlimit="8" fill="#F2F2F2"/></g></g><g clip-path="url(#clip20)" filter="url(#fx1)" transform="translate(29 109)"><g clip-path="url(#clip21)"><path d="M12.42-8.04558 17.793 0 14.6197 0 9.51666-7.695 4.617-7.695 4.617 0 1.755 0 1.755-19.413 10.341-19.413C12.5317-19.413 14.2493-18.8991 15.494-17.8713 16.7387-16.8434 17.361-15.4403 17.361-13.662 17.361-12.1899 16.9069-10.9524 15.9986-9.9495 15.0903-8.94656 13.8974-8.31192 12.42-8.04558ZM14.472-13.608C14.472-14.616 14.1089-15.408 13.3827-15.984 12.6565-16.56 11.6246-16.848 10.287-16.848L4.617-16.848 4.617-10.233 10.098-10.233C11.4528-10.233 12.5205-10.5394 13.3011-11.1523 14.0817-11.7651 14.472-12.5837 14.472-13.608ZM30.676 0 28.003 0 28.003-2.133C27.7808-1.41469 27.2043-0.834609 26.2735-0.392766 25.3427 0.0490781 24.3442 0.27 23.278 0.27 21.7713 0.27 20.5397-0.117422 19.583-0.892266 18.6263-1.66711 18.148-2.69269 18.148-3.969 18.148-5.36428 18.6821-6.4196 19.7503-7.13496 20.8185-7.85032 22.3724-8.208 24.412-8.208L27.976-8.208C27.9588-9.19659 27.6646-9.99724 27.0932-10.6099 26.5219-11.2226 25.7001-11.529 24.628-11.529 23.9817-11.529 23.3417-11.392 22.708-11.1179 22.0744-10.8438 21.3717-10.3958 20.5999-9.774L19.201-11.5151C20.0287-12.3602 20.9097-12.9743 21.844-13.3574 22.7784-13.7405 23.7783-13.932 24.844-13.932 26.6713-13.932 28.1001-13.3885 29.1305-12.3015 30.1608-11.2144 30.676-9.73294 30.676-7.857ZM27.976-5.994 24.439-5.994C23.1728-5.994 22.2578-5.83291 21.6939-5.51074 21.13-5.18857 20.848-4.69266 20.848-4.023 20.848-3.44616 21.0937-2.96445 21.585-2.57787 22.0764-2.19129 22.7217-1.998 23.521-1.998 24.7416-1.998 25.7721-2.39266 26.6123-3.18199 27.4525-3.97132 27.9071-4.90866 27.976-5.994ZM32.431-13.554 35.131-13.554 35.131-11.556C35.3445-12.2524 35.8722-12.8135 36.7141-13.2393 37.556-13.6651 38.4953-13.878 39.532-13.878 41.3466-13.878 42.7633-13.2931 43.782-12.1234 44.8007-10.9537 45.31-9.36956 45.31-7.371L45.31 0 42.583 0 42.583-7.236C42.583-8.53537 42.2692-9.55322 41.6416-10.2895 41.014-11.0258 40.1398-11.394 39.019-11.394 37.8563-11.394 36.9221-10.9992 36.2165-10.2096 35.5108-9.41998 35.158-8.38378 35.158-7.101L35.158 0 32.431 0ZM57.7357-19.413 60.4897-19.413 60.4897 0 57.7627 0 57.7627-2.106C57.4637-1.38488 56.8781-0.808594 56.0058-0.377156 55.1335 0.0542812 54.1981 0.27 53.1997 0.27 51.3043 0.27 49.7145-0.390867 48.4302-1.7126 47.1458-3.03434 46.5037-4.71347 46.5037-6.75 46.5037-8.78934 47.1631-10.4872 48.4821-11.8435 49.801-13.1998 51.4275-13.878 53.3617-13.878 54.3019-13.878 55.1909-13.6851 56.0288-13.2992 56.8666-12.9133 57.4356-12.4042 57.7357-11.772ZM53.4427-2.16C54.6745-2.16 55.7115-2.60655 56.5536-3.49966 57.3956-4.39277 57.8167-5.50322 57.8167-6.831 57.8167-8.16216 57.4098-9.25994 56.5962-10.1244 55.7825-10.9888 54.7674-11.421 53.5507-11.421 52.2952-11.421 51.2703-10.9985 50.476-10.1535 49.6818-9.30846 49.2847-8.19197 49.2847-6.804 49.2847-5.40281 49.6745-4.27852 50.4541-3.43111 51.2337-2.5837 52.2299-2.16 53.4427-2.16ZM75.7913-6.777C75.7913-4.73934 75.1084-3.03293 73.7425-1.65776 72.3766-0.282586 70.6926 0.405 68.6903 0.405 66.6873 0.405 65.0165-0.278297 63.678-1.64489 62.3396-3.01148 61.6703-4.71319 61.6703-6.75 61.6703-8.775 62.3519-10.4738 63.7152-11.8463 65.0784-13.2188 66.7638-13.905 68.7713-13.905 70.7744-13.905 72.4452-13.2217 73.7836-11.8551 75.1221-10.4885 75.7913-8.79581 75.7913-6.777ZM64.4513-6.75C64.4513-5.40253 64.8637-4.27816 65.6885-3.3769 66.5133-2.47563 67.5319-2.025 68.7443-2.025 69.936-2.025 70.9449-2.47641 71.7711-3.37922 72.5973-4.28203 73.0103-5.41463 73.0103-6.777 73.0103-8.08847 72.5935-9.19934 71.7597-10.1096 70.9259-11.0199 69.9118-11.475 68.7173-11.475 67.5201-11.475 66.5097-11.0251 65.6864-10.1252 64.863-9.22535 64.4513-8.10028 64.4513-6.75ZM77.0977-13.554 79.7977-13.554 79.7977-12.015C79.9782-12.5871 80.3987-13.0406 81.0591-13.3755 81.7195-13.7105 82.46-13.878 83.2807-13.878 84.2274-13.878 85.0734-13.6773 85.8189-13.2758 86.5643-12.8743 87.0825-12.346 87.3733-11.691 87.7178-12.3503 88.2847-12.8796 89.0739-13.2789 89.8631-13.6783 90.749-13.878 91.7317-13.878 93.3449-13.878 94.6302-13.3566 95.5876-12.3139 96.545-11.2712 97.0237-9.92953 97.0237-8.289L97.0237 0 94.2697 0 94.2697-8.154C94.2697-9.18197 94.0195-9.97896 93.5192-10.545 93.0188-11.111 92.315-11.394 91.4077-11.394 90.515-11.394 89.7923-11.0846 89.2397-10.4659 88.687-9.84713 88.4107-9.0315 88.4107-8.019L88.4107 0 85.6837 0 85.6837-8.154C85.6837-9.18197 85.4335-9.97896 84.9332-10.545 84.4328-11.111 83.729-11.394 82.8217-11.394 81.929-11.394 81.2063-11.0846 80.6537-10.4659 80.101-9.84713 79.8247-9.0315 79.8247-8.019L79.8247 0 77.0977 0ZM116.089-5.589C116.089-6.58097 115.692-7.31081 114.899-7.77853 114.105-8.24625 112.779-8.50669 110.921-8.55984 108.295-8.68781 106.376-9.16376 105.164-9.98768 103.951-10.8116 103.345-12.0904 103.345-13.824 103.345-15.5168 104.062-16.9346 105.495-18.0771 106.928-19.2197 108.722-19.791 110.878-19.791 112.443-19.791 113.858-19.5213 115.123-18.9818 116.388-18.4424 117.52-17.5725 118.519-16.3721L116.785-14.58C115.924-15.4558 114.998-16.1113 114.006-16.5464 113.014-16.9815 111.971-17.199 110.878-17.199 109.499-17.199 108.371-16.8872 107.495-16.2637 106.618-15.6402 106.18-14.8899 106.18-14.013 106.18-13.0764 106.568-12.3958 107.342-11.9711 108.116-11.5464 109.415-11.3078 111.238-11.2552 113.871-11.1447 115.811-10.6507 117.056-9.77337 118.302-8.89601 118.924-7.56422 118.924-5.778 118.924-3.99769 118.184-2.52661 116.704-1.36477 115.223-0.202922 113.344 0.378 111.067 0.378 109.226 0.378 107.635 0.0822656 106.295-0.509203 104.955-1.10067 103.747-2.10164 102.67-3.51211L104.377-5.319C105.405-4.20497 106.441-3.40896 107.484-2.93098 108.527-2.45299 109.721-2.214 111.067-2.214 112.555-2.214 113.763-2.53962 114.694-3.19085 115.624-3.84209 116.089-4.64147 116.089-5.589ZM123.158 4.86 120.431 4.86 120.431-13.554 123.131-13.554 123.131-11.475C123.405-12.1747 123.984-12.7457 124.868-13.1878 125.752-13.6299 126.694-13.851 127.694-13.851 129.61-13.851 131.206-13.1907 132.479-11.8701 133.753-10.5495 134.39-8.86978 134.39-6.831 134.39-4.76072 133.729-3.05515 132.407-1.71429 131.085-0.37343 129.46 0.297 127.532 0.297 126.605 0.297 125.716 0.105047 124.864-0.278859 124.012-0.662766 123.443-1.18181 123.158-1.836ZM127.451-11.394C126.213-11.394 125.175-10.949 124.336-10.059 123.497-9.16896 123.077-8.05697 123.077-6.723 123.077-5.39522 123.489-4.29827 124.312-3.43216 125.136-2.56605 126.155-2.133 127.37-2.133 128.62-2.133 129.639-2.55255 130.427-3.39166 131.215-4.23077 131.609-5.35922 131.609-6.777 131.609-8.16075 131.224-9.27619 130.453-10.1233 129.682-10.9704 128.681-11.394 127.451-11.394ZM135.733-17.928 138.703-17.928 138.703-15.012 135.733-15.012ZM135.841 0 135.841-13.554 138.595-13.554 138.595 0ZM140.931-19.413 143.658-19.413 143.658-8.046 149.38-13.554 152.676-13.554 152.676-13.1321 145.683-7.08033 152.703-0.417234 152.703 0 149.404 0 143.658-6.048 143.658 0 140.931 0ZM159.825-1.971C160.643-1.971 161.397-2.14594 162.088-2.49581 162.779-2.84569 163.481-3.42675 164.195-4.239L165.819-2.77552C165.016-1.64433 164.1-0.831445 163.074-0.336867 162.047 0.157711 160.901 0.405 159.636 0.405 157.597 0.405 155.926-0.264938 154.624-1.60481 153.322-2.94469 152.67-4.65975 152.67-6.75 152.67-8.77134 153.334-10.4647 154.662-11.83 155.99-13.1953 157.63-13.878 159.582-13.878 161.571-13.878 163.185-13.2311 164.422-11.9374 165.66-10.6436 166.278-8.9685 166.278-6.912 166.278-6.87375 166.273-6.76364 166.261-6.58167 166.25-6.3997 166.216-6.11381 166.161-5.724L155.478-5.724C155.613-4.69941 156.084-3.81776 156.89-3.07905 157.697-2.34035 158.675-1.971 159.825-1.971ZM159.609-11.502C158.547-11.502 157.635-11.1549 156.873-10.4608 156.111-9.76669 155.646-8.92575 155.478-7.938L163.524-7.938C163.37-8.94741 162.939-9.79376 162.231-10.4771 161.522-11.1604 160.648-11.502 159.609-11.502ZM178.641-4.077C178.641-2.76103 178.089-1.69404 176.986-0.876023 175.882-0.0580078 174.463 0.351 172.728 0.351 171.591 0.351 170.527 0.170508 169.537-0.190477 168.547-0.551461 167.621-1.14595 166.761-1.97395L168.105-3.969C169.073-3.23887 169.901-2.72784 170.588-2.43591 171.275-2.14397 172.006-1.998 172.782-1.998 173.767-1.998 174.549-2.18123 175.127-2.5477 175.706-2.91417 175.995-3.37894 175.995-3.942 175.995-4.49888 175.757-4.9083 175.28-5.17029 174.804-5.43227 173.967-5.57184 172.769-5.589 170.893-5.66325 169.508-6.01755 168.614-6.65191 167.72-7.28627 167.274-8.28197 167.274-9.639 167.274-10.8638 167.783-11.8811 168.802-12.6906 169.821-13.5002 171.121-13.905 172.701-13.905 173.758-13.905 174.752-13.7372 175.684-13.4017 176.616-13.0662 177.493-12.5266 178.317-11.783L177.056-9.828C176.184-10.4434 175.419-10.8807 174.762-11.14 174.105-11.3993 173.409-11.529 172.674-11.529 171.848-11.529 171.183-11.3525 170.678-10.9995 170.172-10.6466 169.92-10.2291 169.92-9.747 169.92-9.20306 170.141-8.80488 170.582-8.55246 171.024-8.30004 171.774-8.14781 172.832-8.09578 174.842-8.04037 176.312-7.6957 177.243-7.06177 178.175-6.42783 178.641-5.43291 178.641-4.077Z" transform="translate(22.6998 37)"/></g></g></g><rect x="27" y="53" width="222" height="136" stroke="#000000" stroke-width="4" stroke-miterlimit="8" fill="#F2F2F2"/><text font-family="IntelOne Display AR Regular,IntelOne Display AR Regular_MSFontService,sans-serif" font-weight="700" font-size="27" transform="translate(48.8714 143)">Random Spikes</text><rect x="236" y="117" width="23" height="22" fill="#7030A0"/><rect x="27.5001" y="52.5001" width="222" height="33" stroke="#000000" stroke-width="3" stroke-miterlimit="8" fill="#595959"/><text fill="#FFFFFF" font-family="IntelOne Display AR Regular,IntelOne Display AR Regular_MSFontService,sans-serif" font-weight="700" font-size="21" transform="translate(104.241 75)">SpikeIn</text><path d="M0.0188642-1.49988 13.6802-1.32806 13.6425 1.6717-0.0188642 1.49988ZM12.218-4.34669 21.1607 0.266142 12.1049 4.6526Z" fill="#00B050" transform="matrix(1 0 0 -1 259.5 128.766)"/><g clip-path="url(#clip22)"><g clip-path="url(#clip23)" filter="url(#fx2)" transform="translate(285 47)"><g clip-path="url(#clip24)"><rect x="8.82843" y="8.82843" width="222" height="136" stroke="#000000" stroke-width="4" stroke-miterlimit="8" fill="#F2F2F2"/></g></g><g clip-path="url(#clip25)" filter="url(#fx3)" transform="translate(352 109)"><g clip-path="url(#clip26)"><path d="M1.944 0 1.944-19.413 4.806-19.413 4.806 0ZM7.431-13.554 10.131-13.554 10.131-11.556C10.3445-12.2524 10.8722-12.8135 11.7141-13.2393 12.556-13.6651 13.4953-13.878 14.532-13.878 16.3466-13.878 17.7633-13.2931 18.782-12.1234 19.8007-10.9537 20.31-9.36956 20.31-7.371L20.31 0 17.583 0 17.583-7.236C17.583-8.53537 17.2692-9.55322 16.6416-10.2895 16.014-11.0258 15.1398-11.394 14.019-11.394 12.8563-11.394 11.9221-10.9992 11.2165-10.2096 10.5108-9.41998 10.158-8.38378 10.158-7.101L10.158 0 7.431 0ZM24.8247 4.86 22.0977 4.86 22.0977-13.554 24.7977-13.554 24.7977-11.475C25.0713-12.1747 25.6502-12.7457 26.5343-13.1878 27.4184-13.6299 28.3605-13.851 29.3607-13.851 31.2771-13.851 32.8722-13.1907 34.146-11.8701 35.4198-10.5495 36.0567-8.86978 36.0567-6.831 36.0567-4.76072 35.3957-3.05515 34.0736-1.71429 32.7516-0.37343 31.1266 0.297 29.1987 0.297 28.2719 0.297 27.3826 0.105047 26.5305-0.278859 25.6785-0.662766 25.1099-1.18181 24.8247-1.836ZM29.1177-11.394C27.8799-11.394 26.8414-10.949 26.0023-10.059 25.1632-9.16896 24.7437-8.05697 24.7437-6.723 24.7437-5.39522 25.1555-4.29827 25.9791-3.43216 26.8028-2.56605 27.8219-2.133 29.0367-2.133 30.2865-2.133 31.3055-2.55255 32.0936-3.39166 32.8816-4.23077 33.2757-5.35922 33.2757-6.777 33.2757-8.16075 32.8902-9.27619 32.1193-10.1233 31.3484-10.9704 30.3479-11.394 29.1177-11.394ZM50.0083 0 47.2813 0 47.2813-1.998C47.0583-1.27856 46.5322-0.716203 45.7029-0.310922 44.8736 0.0943594 43.9328 0.297 42.8803 0.297 41.0846 0.297 39.6726-0.287789 38.6445-1.45737 37.6164-2.62695 37.1023-4.21116 37.1023-6.21L37.1023-13.554 39.8563-13.554 39.8563-6.345C39.8563-5.02791 40.1702-4.00113 40.798-3.26468 41.4257-2.52823 42.2998-2.16 43.4203-2.16 44.5591-2.16 45.4828-2.55649 46.1914-3.34948 46.9-4.14246 47.2543-5.18597 47.2543-6.48L47.2543-13.554 50.0083-13.554ZM52.66-3.753 52.66-11.097 50.878-11.097 50.878-13.554 52.66-13.554 52.66-17.55 55.387-17.55 55.387-13.554 58.411-13.554 58.411-11.097 55.387-11.097 55.387-3.942C55.387-3.42084 55.4924-3.04755 55.7032-2.82213 55.914-2.59671 56.2496-2.484 56.71-2.484L58.411-2.484 58.411 0 56.386 0C55.1032 0 54.1615-0.305227 53.5609-0.91568 52.9603-1.52613 52.66-2.47191 52.66-3.753Z" transform="translate(23.2485 37)"/></g></g></g><rect x="291" y="53" width="222" height="136" stroke="#000000" stroke-width="4" stroke-miterlimit="8" fill="#F2F2F2"/><text font-family="IntelOne Display AR Regular,IntelOne Display AR Regular_MSFontService,sans-serif" font-weight="700" font-size="27" transform="translate(372.42 143)">Input</text><rect x="501" y="118" width="21" height="20" fill="#7030A0"/><rect x="291.5" y="52.5001" width="222" height="33" stroke="#000000" stroke-width="3" stroke-miterlimit="8" fill="#595959"/><text fill="#FFFFFF" font-family="IntelOne Display AR Regular,IntelOne Display AR Regular_MSFontService,sans-serif" font-weight="700" font-size="21" transform="translate(372.04 75)">Dense</text><path d="M0.0231332-1.49982 9.77232-1.34945 9.72605 1.65019-0.0231332 1.49982ZM8.31876-4.37223 17.2483 0.266037 8.17996 4.6267Z" fill="#00B050" transform="matrix(1 0 0 -1 522.5 128.766)"/><rect x="280" y="118" width="23" height="20" fill="#00B050"/><g clip-path="url(#clip27)"><g clip-path="url(#clip28)" filter="url(#fx4)" transform="translate(543 47)"><g clip-path="url(#clip29)"><rect x="8.82843" y="8.82843" width="222" height="136" stroke="#000000" stroke-width="4" stroke-miterlimit="8" fill="#F2F2F2"/></g></g><g clip-path="url(#clip30)" filter="url(#fx5)" transform="translate(568 109)"><g clip-path="url(#clip31)"><path d="M1.755 0 1.755-19.413 10.233-19.413C12.3713-19.413 14.0669-18.8714 15.3198-17.7881 16.5726-16.7049 17.199-15.2485 17.199-13.419 17.199-11.5521 16.5222-10.0593 15.1687-8.9408 13.8152-7.82227 12.026-7.263 9.801-7.263L4.617-7.263 4.617 0ZM14.283-13.365C14.283-14.4318 13.9238-15.27 13.2055-15.8796 12.4872-16.4892 11.4694-16.794 10.152-16.794L4.617-16.794 4.617-9.855 9.963-9.855C11.2984-9.855 12.3522-10.1699 13.1245-10.7996 13.8968-11.4293 14.283-12.2844 14.283-13.365ZM18.0977-13.554 20.7977-13.554 20.7977-11.934C20.8868-12.4535 21.2675-12.8668 21.9397-13.1741 22.6119-13.4814 23.4012-13.635 24.3077-13.635L25.7657-13.635 25.7657-11.043 24.2807-11.043C23.1169-11.043 22.2499-10.7456 21.6798-10.1507 21.1097-9.55589 20.8247-8.63831 20.8247-7.398L20.8247 0 18.0977 0ZM33.3253-1.971C34.1426-1.971 34.8968-2.14594 35.5879-2.49581 36.2789-2.84569 36.9813-3.42675 37.6951-4.239L39.3193-2.77552C38.5155-1.64433 37.6003-0.831445 36.5736-0.336867 35.5469 0.157711 34.4011 0.405 33.1363 0.405 31.097 0.405 29.4262-0.264938 28.1238-1.60481 26.8215-2.94469 26.1703-4.65975 26.1703-6.75 26.1703-8.77134 26.8343-10.4647 28.1622-11.83 29.4901-13.1953 31.1302-13.878 33.0823-13.878 35.0713-13.878 36.6846-13.2311 37.9221-11.9374 39.1596-10.6436 39.7783-8.9685 39.7783-6.912 39.7783-6.87375 39.7726-6.76364 39.7612-6.58167 39.7499-6.3997 39.7163-6.11381 39.6606-5.724L28.9783-5.724C29.1131-4.69941 29.5837-3.81776 30.3904-3.07905 31.197-2.34035 32.1753-1.971 33.3253-1.971ZM33.1093-11.502C32.0468-11.502 31.1346-11.1549 30.3728-10.4608 29.6111-9.76669 29.1462-8.92575 28.9783-7.938L37.0243-7.938C36.8705-8.94741 36.4393-9.79376 35.7307-10.4771 35.022-11.1604 34.1483-11.502 33.1093-11.502Z" transform="translate(23.014 37)"/><path d="M0.756-6.723 0.756-9.342 8.343-9.342 8.343-6.723Z" transform="translate(62.6807 37)"/><path d="M12.474-4.077C12.474-2.76103 11.9223-1.69404 10.819-0.876023 9.71564-0.0580078 8.29631 0.351 6.561 0.351 5.42419 0.351 4.36064 0.170508 3.37036-0.190477 2.38008-0.551461 1.45462-1.14595 0.594-1.97395L1.93809-3.969C2.90644-3.23887 3.73409-2.72784 4.42104-2.43591 5.10799-2.14397 5.83931-1.998 6.615-1.998 7.6005-1.998 8.38237-2.18123 8.96063-2.5477 9.53887-2.91417 9.828-3.37894 9.828-3.942 9.828-4.49888 9.58985-4.9083 9.11355-5.17029 8.63726-5.43227 7.80019-5.57184 6.60234-5.589 4.72612-5.66325 3.34118-6.01755 2.44751-6.65191 1.55384-7.28627 1.107-8.28197 1.107-9.639 1.107-10.8638 1.61648-11.8811 2.63545-12.6906 3.65442-13.5002 4.95394-13.905 6.534-13.905 7.59094-13.905 8.58537-13.7372 9.51729-13.4017 10.4492-13.0662 11.3268-12.5266 12.15-11.783L10.889-9.828C10.0169-10.4434 9.25221-10.8807 8.59507-11.14 7.93793-11.3993 7.24191-11.529 6.507-11.529 5.68181-11.529 5.01652-11.3525 4.51111-10.9995 4.0057-10.6466 3.753-10.2291 3.753-9.747 3.753-9.20306 3.97392-8.80488 4.41577-8.55246 4.85761-8.30004 5.60756-8.14781 6.66563-8.09578 8.67488-8.04037 10.1453-7.6957 11.0768-7.06177 12.0082-6.42783 12.474-5.43291 12.474-4.077ZM18.1923-0.375469 12.6843-13.554 15.5446-13.554 19.5672-3.213 23.5898-13.554 26.3463-13.554 18.6644 4.86 15.9513 4.86ZM27.0977-13.554 29.7977-13.554 29.7977-11.556C30.0111-12.2524 30.5388-12.8135 31.3808-13.2393 32.2227-13.6651 33.162-13.878 34.1987-13.878 36.0133-13.878 37.4299-13.2931 38.4486-12.1234 39.4673-10.9537 39.9767-9.36956 39.9767-7.371L39.9767 0 37.2497 0 37.2497-7.236C37.2497-8.53537 36.9359-9.55322 36.3083-10.2895 35.6806-11.0258 34.8064-11.394 33.6857-11.394 32.523-11.394 31.5888-10.9992 30.8832-10.2096 30.1775-9.41998 29.8247-8.38378 29.8247-7.101L29.8247 0 27.0977 0ZM53.5093 0 50.8363 0 50.8363-2.133C50.6141-1.41469 50.0377-0.834609 49.1069-0.392766 48.1761 0.0490781 47.1776 0.27 46.1113 0.27 44.6047 0.27 43.373-0.117422 42.4163-0.892266 41.4597-1.66711 40.9813-2.69269 40.9813-3.969 40.9813-5.36428 41.5154-6.4196 42.5836-7.13496 43.6518-7.85032 45.2057-8.208 47.2453-8.208L50.8093-8.208C50.7922-9.19659 50.4979-9.99724 49.9266-10.6099 49.3552-11.2226 48.5335-11.529 47.4613-11.529 46.815-11.529 46.175-11.392 45.5414-11.1179 44.9077-10.8438 44.205-10.3958 43.4333-9.774L42.0343-11.5151C42.8621-12.3602 43.7431-12.9743 44.6774-13.3574 45.6117-13.7405 46.6117-13.932 47.6773-13.932 49.5046-13.932 50.9334-13.3885 51.9638-12.3015 52.9942-11.2144 53.5093-9.73294 53.5093-7.857ZM50.8093-5.994 47.2723-5.994C46.0061-5.994 45.0911-5.83291 44.5272-5.51074 43.9633-5.18857 43.6813-4.69266 43.6813-4.023 43.6813-3.44616 43.927-2.96445 44.4184-2.57787 44.9097-2.19129 45.555-1.998 46.3543-1.998 47.575-1.998 48.6054-2.39266 49.4456-3.18199 50.2859-3.97132 50.7404-4.90866 50.8093-5.994ZM57.9913 4.86 55.2643 4.86 55.2643-13.554 57.9643-13.554 57.9643-11.475C58.238-12.1747 58.8169-12.7457 59.701-13.1878 60.5851-13.6299 61.5272-13.851 62.5273-13.851 64.4438-13.851 66.0389-13.1907 67.3127-11.8701 68.5864-10.5495 69.2233-8.86978 69.2233-6.831 69.2233-4.76072 68.5623-3.05515 67.2403-1.71429 65.9183-0.37343 64.2933 0.297 62.3653 0.297 61.4386 0.297 60.5492 0.105047 59.6972-0.278859 58.8451-0.662766 58.2765-1.18181 57.9913-1.836ZM62.2843-11.394C61.0466-11.394 60.0081-10.949 59.169-10.059 58.3299-9.16896 57.9103-8.05697 57.9103-6.723 57.9103-5.39522 58.3222-4.29827 59.1458-3.43216 59.9694-2.56605 60.9886-2.133 62.2033-2.133 63.4532-2.133 64.4722-2.55255 65.2602-3.39166 66.0483-4.23077 66.4423-5.35922 66.4423-6.777 66.4423-8.16075 66.0569-9.27619 65.286-10.1233 64.5151-10.9704 63.5145-11.394 62.2843-11.394ZM71.16-3.753 71.16-11.097 69.378-11.097 69.378-13.554 71.16-13.554 71.16-17.55 73.887-17.55 73.887-13.554 76.911-13.554 76.911-11.097 73.887-11.097 73.887-3.942C73.887-3.42084 73.9924-3.04755 74.2032-2.82213 74.414-2.59671 74.7496-2.484 75.21-2.484L76.911-2.484 76.911 0 74.886 0C73.6032 0 72.6615-0.305227 72.0609-0.91568 71.4603-1.52613 71.16-2.47191 71.16-3.753ZM78.566-17.928 81.536-17.928 81.536-15.012 78.566-15.012ZM78.674 0 78.674-13.554 81.428-13.554 81.428 0ZM90.1903 0.405C88.1156 0.405 86.4269-0.255656 85.1243-1.57697 83.8216-2.89828 83.1703-4.62262 83.1703-6.75 83.1703-8.75419 83.8525-10.4477 85.2169-11.8306 86.5812-13.2135 88.257-13.905 90.2443-13.905 91.6832-13.905 92.9175-13.5697 93.9471-12.899 94.9768-12.2284 95.7585-11.1957 96.2923-9.801L94.0252-8.775C93.5555-9.73406 93.0137-10.4238 92.3999-10.8443 91.7861-11.2648 91.0586-11.475 90.2173-11.475 89.0181-11.475 88.0073-11.0214 87.1849-10.1142 86.3625-9.20707 85.9513-8.08566 85.9513-6.75 85.9513-5.38509 86.3636-4.25637 87.1881-3.36382 88.0125-2.47127 89.0403-2.025 90.2713-2.025 91.0591-2.025 91.7965-2.24121 92.4834-2.67363 93.1704-3.10605 93.7715-3.77184 94.2867-4.671L96.3733-3.57961C95.8094-2.27264 94.984-1.2818 93.8969-0.607078 92.8099 0.0676406 91.5744 0.405 90.1903 0.405Z" transform="translate(71.014 37)"/></g></g></g><rect x="549" y="53" width="222" height="136" stroke="#000000" stroke-width="4" stroke-miterlimit="8" fill="#F2F2F2"/><text font-family="IntelOne Display AR Regular,IntelOne Display AR Regular_MSFontService,sans-serif" font-weight="700" font-size="27" transform="translate(588.186 143)">Pre<tspan font-size="27" x="39.6667" y="0">-</tspan><tspan font-size="27" x="48" y="0">synaptic</tspan></text><rect x="760" y="118" width="20" height="20" fill="#7030A0"/><rect x="550.5" y="52.5001" width="221" height="33" stroke="#000000" stroke-width="3" stroke-miterlimit="8" fill="#595959"/><text fill="#FFFFFF" font-family="IntelOne Display AR Regular,IntelOne Display AR Regular_MSFontService,sans-serif" font-weight="700" font-size="21" transform="translate(645.638 75)">LIF</text><rect x="539" y="118" width="23" height="20" fill="#00B050"/><g clip-path="url(#clip32)"><g clip-path="url(#clip33)" filter="url(#fx6)" transform="translate(22 478)"><g clip-path="url(#clip34)"><rect x="8.82843" y="8.82843" width="222" height="136" stroke="#000000" stroke-width="4" stroke-miterlimit="8" fill="#F2F2F2"/></g></g><g clip-path="url(#clip35)" filter="url(#fx7)" transform="translate(45 524)"><g clip-path="url(#clip36)"><path d="M7.884-16.794 0.54-16.794 0.54-19.413 18.063-19.413 18.063-16.794 10.746-16.794 10.746 0 7.884 0ZM30.676 0 28.003 0 28.003-2.133C27.7808-1.41469 27.2043-0.834609 26.2735-0.392766 25.3427 0.0490781 24.3442 0.27 23.278 0.27 21.7713 0.27 20.5397-0.117422 19.583-0.892266 18.6263-1.66711 18.148-2.69269 18.148-3.969 18.148-5.36428 18.6821-6.4196 19.7503-7.13496 20.8185-7.85032 22.3724-8.208 24.412-8.208L27.976-8.208C27.9588-9.19659 27.6646-9.99724 27.0932-10.6099 26.5219-11.2226 25.7001-11.529 24.628-11.529 23.9817-11.529 23.3417-11.392 22.708-11.1179 22.0744-10.8438 21.3717-10.3958 20.5999-9.774L19.201-11.5151C20.0287-12.3602 20.9097-12.9743 21.844-13.3574 22.7784-13.7405 23.7783-13.932 24.844-13.932 26.6713-13.932 28.1001-13.3885 29.1305-12.3015 30.1608-11.2144 30.676-9.73294 30.676-7.857ZM27.976-5.994 24.439-5.994C23.1728-5.994 22.2578-5.83291 21.6939-5.51074 21.13-5.18857 20.848-4.69266 20.848-4.023 20.848-3.44616 21.0937-2.96445 21.585-2.57787 22.0764-2.19129 22.7217-1.998 23.521-1.998 24.7416-1.998 25.7721-2.39266 26.6123-3.18199 27.4525-3.97132 27.9071-4.90866 27.976-5.994ZM32.431-13.554 35.131-13.554 35.131-11.934C35.2202-12.4535 35.6008-12.8668 36.273-13.1741 36.9452-13.4814 37.7345-13.635 38.641-13.635L40.099-13.635 40.099-11.043 38.614-11.043C37.4502-11.043 36.5832-10.7456 36.0131-10.1507 35.443-9.55589 35.158-8.63831 35.158-7.398L35.158 0 32.431 0ZM51.7627-1.809 51.7627-2.457C51.4614-1.77131 50.8743-1.22189 50.0011-0.808734 49.128-0.395578 48.1942-0.189 47.1997-0.189 45.2849-0.189 43.6902-0.826313 42.4156-2.10094 41.141-3.37556 40.5037-5.01525 40.5037-7.02 40.5037-8.99128 41.1538-10.6271 42.4542-11.9275 43.7546-13.2278 45.3634-13.878 47.2807-13.878 48.2555-13.878 49.1771-13.6704 50.0454-13.2551 50.9138-12.8398 51.4952-12.3005 51.7897-11.637L51.7897-13.554 54.5167-13.554 54.5167-1.89C54.5167 0.346781 53.9132 2.03098 52.7062 3.16259 51.4992 4.2942 49.6997 4.86 47.3077 4.86L43.7437 4.86 43.7437 2.457 47.4157 2.457C48.8683 2.457 49.956 2.1041 50.6787 1.3983 51.4013 0.692508 51.7627-0.376594 51.7627-1.809ZM47.5237-2.646C48.7384-2.646 49.7666-3.06682 50.6082-3.90846 51.4498-4.7501 51.8707-5.78728 51.8707-7.02 51.8707-8.27325 51.4505-9.32006 50.6101-10.1604 49.7697-11.0008 48.7409-11.421 47.5237-11.421 46.2479-11.421 45.2225-11.0251 44.4474-10.2332 43.6722-9.44135 43.2847-8.37928 43.2847-7.047 43.2847-5.71781 43.6774-4.65202 44.463-3.84961 45.2485-3.0472 46.2687-2.646 47.5237-2.646ZM62.992-1.971C63.8093-1.971 64.5635-2.14594 65.2545-2.49581 65.9455-2.84569 66.648-3.42675 67.3618-4.239L68.986-2.77552C68.1822-1.64433 67.2669-0.831445 66.2402-0.336867 65.2135 0.157711 64.0678 0.405 62.803 0.405 60.7637 0.405 59.0928-0.264938 57.7905-1.60481 56.4882-2.94469 55.837-4.65975 55.837-6.75 55.837-8.77134 56.501-10.4647 57.8289-11.83 59.1568-13.1953 60.7968-13.878 62.749-13.878 64.738-13.878 66.3512-13.2311 67.5888-11.9374 68.8262-10.6436 69.445-8.9685 69.445-6.912 69.445-6.87375 69.4393-6.76364 69.4279-6.58167 69.4165-6.3997 69.383-6.11381 69.3273-5.724L58.645-5.724C58.7797-4.69941 59.2504-3.81776 60.057-3.07905 60.8636-2.34035 61.842-1.971 62.992-1.971ZM62.776-11.502C61.7134-11.502 60.8013-11.1549 60.0395-10.4608 59.2777-9.76669 58.8129-8.92575 58.645-7.938L66.691-7.938C66.5372-8.94741 66.1059-9.79376 65.3973-10.4771 64.6887-11.1604 63.8149-11.502 62.776-11.502ZM71.4933-3.753 71.4933-11.097 69.7113-11.097 69.7113-13.554 71.4933-13.554 71.4933-17.55 74.2203-17.55 74.2203-13.554 77.2443-13.554 77.2443-11.097 74.2203-11.097 74.2203-3.942C74.2203-3.42084 74.3257-3.04755 74.5365-2.82213 74.7473-2.59671 75.0829-2.484 75.5433-2.484L77.2443-2.484 77.2443 0 75.2193 0C73.9366 0 72.9949-0.305227 72.3942-0.91568 71.7936-1.52613 71.4933-2.47191 71.4933-3.753Z" transform="translate(23.4203 37)"/><path d="M14.256-5.589C14.256-6.58097 13.8592-7.31081 13.0655-7.77853 12.2718-8.24625 10.946-8.50669 9.08803-8.55984 6.462-8.68781 4.54282-9.16376 3.33049-9.98768 2.11816-10.8116 1.512-12.0904 1.512-13.824 1.512-15.5168 2.22848-16.9346 3.66145-18.0771 5.09442-19.2197 6.88894-19.791 9.045-19.791 10.6096-19.791 12.0244-19.5213 13.2895-18.9818 14.5545-18.4424 15.6867-17.5725 16.686-16.3721L14.9517-14.58C14.091-15.4558 13.1647-16.1113 12.1726-16.5464 11.1805-16.9815 10.1379-17.199 9.045-17.199 7.66547-17.199 6.53759-16.8872 5.66135-16.2637 4.78512-15.6402 4.347-14.8899 4.347-14.013 4.347-13.0764 4.73421-12.3958 5.50863-11.9711 6.28305-11.5464 7.58166-11.3078 9.40444-11.2552 12.0381-11.1447 13.9776-10.6507 15.2229-9.77337 16.4683-8.89601 17.091-7.56422 17.091-5.778 17.091-3.99769 16.3507-2.52661 14.8703-1.36477 13.3897-0.202922 11.511 0.378 9.234 0.378 7.39266 0.378 5.80198 0.0822656 4.46196-0.509203 3.12195-1.10067 1.91363-2.10164 0.837-3.51211L2.54391-5.319C3.57216-4.20497 4.60772-3.40896 5.65059-2.93098 6.69347-2.45299 7.88794-2.214 9.234-2.214 10.7212-2.214 11.9301-2.53962 12.8604-3.19085 13.7908-3.84209 14.256-4.64147 14.256-5.589ZM21.3247 4.86 18.5977 4.86 18.5977-13.554 21.2977-13.554 21.2977-11.475C21.5713-12.1747 22.1502-12.7457 23.0343-13.1878 23.9184-13.6299 24.8605-13.851 25.8607-13.851 27.7771-13.851 29.3722-13.1907 30.646-11.8701 31.9198-10.5495 32.5567-8.86978 32.5567-6.831 32.5567-4.76072 31.8957-3.05515 30.5736-1.71429 29.2516-0.37343 27.6266 0.297 25.6987 0.297 24.7719 0.297 23.8826 0.105047 23.0305-0.278859 22.1785-0.662766 21.6099-1.18181 21.3247-1.836ZM25.6177-11.394C24.3799-11.394 23.3414-10.949 22.5023-10.059 21.6632-9.16896 21.2437-8.05697 21.2437-6.723 21.2437-5.39522 21.6555-4.29827 22.4791-3.43216 23.3028-2.56605 24.3219-2.133 25.5367-2.133 26.7865-2.133 27.8055-2.55255 28.5936-3.39166 29.3816-4.23077 29.7757-5.35922 29.7757-6.777 29.7757-8.16075 29.3902-9.27619 28.6193-10.1233 27.8484-10.9704 26.8479-11.394 25.6177-11.394ZM33.8993-17.928 36.8693-17.928 36.8693-15.012 33.8993-15.012ZM34.0073 0 34.0073-13.554 36.7613-13.554 36.7613 0ZM39.0977-19.413 41.8247-19.413 41.8247-8.046 47.5466-13.554 50.8427-13.554 50.8427-13.1321 43.8497-7.08033 50.8697-0.417234 50.8697 0 47.5706 0 41.8247-6.048 41.8247 0 39.0977 0ZM57.992-1.971C58.8093-1.971 59.5635-2.14594 60.2545-2.49581 60.9455-2.84569 61.648-3.42675 62.3618-4.239L63.986-2.77552C63.1822-1.64433 62.2669-0.831445 61.2402-0.336867 60.2135 0.157711 59.0678 0.405 57.803 0.405 55.7637 0.405 54.0928-0.264938 52.7905-1.60481 51.4882-2.94469 50.837-4.65975 50.837-6.75 50.837-8.77134 51.501-10.4647 52.8289-11.83 54.1568-13.1953 55.7968-13.878 57.749-13.878 59.738-13.878 61.3512-13.2311 62.5887-11.9374 63.8262-10.6436 64.445-8.9685 64.445-6.912 64.445-6.87375 64.4393-6.76364 64.4279-6.58167 64.4165-6.3997 64.383-6.11381 64.3273-5.724L53.645-5.724C53.7797-4.69941 54.2504-3.81776 55.057-3.07905 55.8636-2.34035 56.842-1.971 57.992-1.971ZM57.776-11.502C56.7134-11.502 55.8013-11.1549 55.0395-10.4608 54.2777-9.76669 53.8129-8.92575 53.645-7.938L61.691-7.938C61.5372-8.94741 61.1059-9.79376 60.3973-10.4771 59.6887-11.1604 58.8149-11.502 57.776-11.502Z" transform="translate(105.587 37)"/><path d="M14.256-5.589C14.256-6.58097 13.8592-7.31081 13.0655-7.77853 12.2718-8.24625 10.946-8.50669 9.08803-8.55984 6.462-8.68781 4.54282-9.16376 3.33049-9.98768 2.11816-10.8116 1.512-12.0904 1.512-13.824 1.512-15.5168 2.22848-16.9346 3.66145-18.0771 5.09442-19.2197 6.88894-19.791 9.045-19.791 10.6096-19.791 12.0244-19.5213 13.2895-18.9818 14.5545-18.4424 15.6867-17.5725 16.686-16.3721L14.9517-14.58C14.091-15.4558 13.1647-16.1113 12.1726-16.5464 11.1805-16.9815 10.1379-17.199 9.045-17.199 7.66547-17.199 6.53759-16.8872 5.66135-16.2637 4.78512-15.6402 4.347-14.8899 4.347-14.013 4.347-13.0764 4.73421-12.3958 5.50863-11.9711 6.28305-11.5464 7.58166-11.3078 9.40444-11.2552 12.0381-11.1447 13.9776-10.6507 15.2229-9.77337 16.4683-8.89601 17.091-7.56422 17.091-5.778 17.091-3.99769 16.3507-2.52661 14.8703-1.36477 13.3897-0.202922 11.511 0.378 9.234 0.378 7.39266 0.378 5.80198 0.0822656 4.46196-0.509203 3.12195-1.10067 1.91363-2.10164 0.837-3.51211L2.54391-5.319C3.57216-4.20497 4.60772-3.40896 5.65059-2.93098 6.69347-2.45299 7.88794-2.214 9.234-2.214 10.7212-2.214 11.9301-2.53962 12.8604-3.19085 13.7908-3.84209 14.256-4.64147 14.256-5.589ZM18.7327-17.928 21.7027-17.928 21.7027-15.012 18.7327-15.012ZM18.8407 0 18.8407-13.554 21.5947-13.554 21.5947 0ZM34.596-1.809 34.596-2.457C34.2948-1.77131 33.7076-1.22189 32.8345-0.808734 31.9613-0.395578 31.0275-0.189 30.033-0.189 28.1183-0.189 26.5236-0.826313 25.2489-2.10094 23.9743-3.37556 23.337-5.01525 23.337-7.02 23.337-8.99128 23.9872-10.6271 25.2875-11.9275 26.5879-13.2278 28.1967-13.878 30.114-13.878 31.0888-13.878 32.0104-13.6704 32.8788-13.2551 33.7471-12.8398 34.3285-12.3005 34.623-11.637L34.623-13.554 37.35-13.554 37.35-1.89C37.35 0.346781 36.7465 2.03098 35.5395 3.16259 34.3325 4.2942 32.533 4.86 30.141 4.86L26.577 4.86 26.577 2.457 30.249 2.457C31.7017 2.457 32.7893 2.1041 33.512 1.3983 34.2347 0.692508 34.596-0.376594 34.596-1.809ZM30.357-2.646C31.5717-2.646 32.5999-3.06682 33.4415-3.90846 34.2832-4.7501 34.704-5.78728 34.704-7.02 34.704-8.27325 34.2838-9.32006 33.4434-10.1604 32.6031-11.0008 31.5743-11.421 30.357-11.421 29.0813-11.421 28.0558-11.0251 27.2807-10.2332 26.5056-9.44135 26.118-8.37928 26.118-7.047 26.118-5.71781 26.5108-4.65202 27.2963-3.84961 28.0818-3.0472 29.1021-2.646 30.357-2.646ZM39.2643-13.554 41.9643-13.554 41.9643-11.556C42.1778-12.2524 42.7055-12.8135 43.5474-13.2393 44.3893-13.6651 45.3286-13.878 46.3653-13.878 48.18-13.878 49.5966-13.2931 50.6153-12.1234 51.634-10.9537 52.1433-9.36956 52.1433-7.371L52.1433 0 49.4163 0 49.4163-7.236C49.4163-8.53537 49.1025-9.55322 48.4749-10.2895 47.8473-11.0258 46.9731-11.394 45.8523-11.394 44.6897-11.394 43.7555-10.9992 43.0498-10.2096 42.3442-9.41998 41.9913-8.38378 41.9913-7.101L41.9913 0 39.2643 0ZM65.676 0 63.003 0 63.003-2.133C62.7808-1.41469 62.2043-0.834609 61.2735-0.392766 60.3427 0.0490781 59.3442 0.27 58.278 0.27 56.7713 0.27 55.5397-0.117422 54.583-0.892266 53.6263-1.66711 53.148-2.69269 53.148-3.969 53.148-5.36428 53.6821-6.4196 54.7503-7.13496 55.8185-7.85032 57.3724-8.208 59.412-8.208L62.976-8.208C62.9588-9.19659 62.6646-9.99724 62.0932-10.6099 61.5219-11.2226 60.7001-11.529 59.628-11.529 58.9817-11.529 58.3417-11.392 57.708-11.1179 57.0744-10.8438 56.3717-10.3958 55.5999-9.774L54.201-11.5151C55.0287-12.3602 55.9097-12.9743 56.8441-13.3574 57.7784-13.7405 58.7783-13.932 59.844-13.932 61.6713-13.932 63.1001-13.3885 64.1305-12.3015 65.1608-11.2144 65.676-9.73294 65.676-7.857ZM62.976-5.994 59.439-5.994C58.1728-5.994 57.2578-5.83291 56.6939-5.51074 56.13-5.18857 55.848-4.69266 55.848-4.023 55.848-3.44616 56.0937-2.96445 56.585-2.57787 57.0764-2.19129 57.7217-1.998 58.521-1.998 59.7416-1.998 60.7721-2.39266 61.6123-3.18199 62.4525-3.97132 62.9071-4.90866 62.976-5.994ZM67.674-19.413 70.428-19.413 70.428 0 67.674 0Z" transform="translate(61.0003 69)"/></g></g></g><rect x="28" y="484" width="222" height="136" stroke="#000000" stroke-width="4" stroke-miterlimit="8" fill="#F2F2F2"/><text font-family="IntelOne Display AR Regular,IntelOne Display AR Regular_MSFontService,sans-serif" font-weight="700" font-size="27" transform="translate(65.5919 558)">Target<tspan font-size="27" x="82.1667" y="0">Spike </tspan><tspan font-size="27" x="37.58" y="32">Signal</tspan></text><rect x="237" y="548" width="23" height="23" fill="#7030A0"/><rect x="28.5001" y="484.5" width="222" height="32" stroke="#000000" stroke-width="3" stroke-miterlimit="8" fill="#595959"/><text fill="#FFFFFF" font-family="IntelOne Display AR Regular,IntelOne Display AR Regular_MSFontService,sans-serif" font-weight="700" font-size="21" transform="translate(104.961 506)">SpikeIn</text><path d="M260.582 558.002 274.127 558.741 273.963 561.736 260.418 560.998ZM272.792 555.663 281.534 560.647 272.302 564.65Z" fill="#00B050"/><g clip-path="url(#clip37)"><g clip-path="url(#clip38)" filter="url(#fx8)" transform="translate(285 479)"><g clip-path="url(#clip39)"><rect x="8.82843" y="8.82843" width="222" height="137" stroke="#000000" stroke-width="4" stroke-miterlimit="8" fill="#F2F2F2"/></g></g><g clip-path="url(#clip40)" filter="url(#fx9)" transform="translate(353 541)"><g clip-path="url(#clip41)"><path d="M1.944 0 1.944-19.413 4.806-19.413 4.806 0ZM7.431-13.554 10.131-13.554 10.131-11.556C10.3445-12.2524 10.8722-12.8135 11.7141-13.2393 12.556-13.6651 13.4953-13.878 14.532-13.878 16.3466-13.878 17.7633-13.2931 18.782-12.1234 19.8007-10.9537 20.31-9.36956 20.31-7.371L20.31 0 17.583 0 17.583-7.236C17.583-8.53537 17.2692-9.55322 16.6416-10.2895 16.014-11.0258 15.1398-11.394 14.019-11.394 12.8563-11.394 11.9221-10.9992 11.2165-10.2096 10.5108-9.41998 10.158-8.38378 10.158-7.101L10.158 0 7.431 0ZM24.8247 4.86 22.0977 4.86 22.0977-13.554 24.7977-13.554 24.7977-11.475C25.0713-12.1747 25.6502-12.7457 26.5343-13.1878 27.4184-13.6299 28.3605-13.851 29.3607-13.851 31.2771-13.851 32.8722-13.1907 34.146-11.8701 35.4198-10.5495 36.0567-8.86978 36.0567-6.831 36.0567-4.76072 35.3957-3.05515 34.0736-1.71429 32.7516-0.37343 31.1266 0.297 29.1987 0.297 28.2719 0.297 27.3826 0.105047 26.5305-0.278859 25.6785-0.662766 25.1099-1.18181 24.8247-1.836ZM29.1177-11.394C27.8799-11.394 26.8414-10.949 26.0023-10.059 25.1632-9.16896 24.7437-8.05697 24.7437-6.723 24.7437-5.39522 25.1555-4.29827 25.9791-3.43216 26.8028-2.56605 27.8219-2.133 29.0367-2.133 30.2865-2.133 31.3055-2.55255 32.0936-3.39166 32.8816-4.23077 33.2757-5.35922 33.2757-6.777 33.2757-8.16075 32.8902-9.27619 32.1193-10.1233 31.3484-10.9704 30.3479-11.394 29.1177-11.394ZM50.0083 0 47.2813 0 47.2813-1.998C47.0583-1.27856 46.5322-0.716203 45.7029-0.310922 44.8736 0.0943594 43.9328 0.297 42.8803 0.297 41.0846 0.297 39.6726-0.287789 38.6445-1.45737 37.6164-2.62695 37.1023-4.21116 37.1023-6.21L37.1023-13.554 39.8563-13.554 39.8563-6.345C39.8563-5.02791 40.1702-4.00113 40.798-3.26468 41.4257-2.52823 42.2998-2.16 43.4203-2.16 44.5591-2.16 45.4828-2.55649 46.1914-3.34948 46.9-4.14246 47.2543-5.18597 47.2543-6.48L47.2543-13.554 50.0083-13.554ZM52.66-3.753 52.66-11.097 50.878-11.097 50.878-13.554 52.66-13.554 52.66-17.55 55.387-17.55 55.387-13.554 58.411-13.554 58.411-11.097 55.387-11.097 55.387-3.942C55.387-3.42084 55.4924-3.04755 55.7032-2.82213 55.914-2.59671 56.2496-2.484 56.71-2.484L58.411-2.484 58.411 0 56.386 0C55.1032 0 54.1615-0.305227 53.5609-0.91568 52.9603-1.52613 52.66-2.47191 52.66-3.753Z" transform="translate(22.8421 37)"/></g></g></g><rect x="291" y="485" width="222" height="137" stroke="#000000" stroke-width="4" stroke-miterlimit="8" fill="#F2F2F2"/><text font-family="IntelOne Display AR Regular,IntelOne Display AR Regular_MSFontService,sans-serif" font-weight="700" font-size="27" transform="translate(373.014 575)">Input</text><rect x="502" y="550" width="20" height="21" fill="#7030A0"/><rect x="292.5" y="485.5" width="221" height="33" stroke="#000000" stroke-width="3" stroke-miterlimit="8" fill="#595959"/><text fill="#FFFFFF" font-family="IntelOne Display AR Regular,IntelOne Display AR Regular_MSFontService,sans-serif" font-weight="700" font-size="21" transform="translate(372.633 508)">Dense</text><rect x="281" y="550" width="23" height="21" fill="#00B050"/><g clip-path="url(#clip42)"><g clip-path="url(#clip43)" filter="url(#fx10)" transform="translate(557 478)"><g clip-path="url(#clip44)"><rect x="8.82843" y="8.82843" width="222" height="138" stroke="#000000" stroke-width="4" stroke-miterlimit="8" fill="#F2F2F2"/></g></g><g clip-path="url(#clip45)" filter="url(#fx11)" transform="translate(575 541)"><g clip-path="url(#clip46)"><path d="M1.755 0 1.755-19.413 10.233-19.413C12.3713-19.413 14.0669-18.8714 15.3198-17.7881 16.5726-16.7049 17.199-15.2485 17.199-13.419 17.199-11.5521 16.5222-10.0593 15.1687-8.9408 13.8152-7.82227 12.026-7.263 9.801-7.263L4.617-7.263 4.617 0ZM14.283-13.365C14.283-14.4318 13.9238-15.27 13.2055-15.8796 12.4872-16.4892 11.4694-16.794 10.152-16.794L4.617-16.794 4.617-9.855 9.963-9.855C11.2984-9.855 12.3522-10.1699 13.1245-10.7996 13.8968-11.4293 14.283-12.2844 14.283-13.365ZM31.6247-6.777C31.6247-4.73934 30.9417-3.03293 29.5758-1.65776 28.2099-0.282586 26.5259 0.405 24.5237 0.405 22.5206 0.405 20.8498-0.278297 19.5114-1.64489 18.1729-3.01148 17.5037-4.71319 17.5037-6.75 17.5037-8.775 18.1853-10.4738 19.5485-11.8463 20.9117-13.2188 22.5971-13.905 24.6047-13.905 26.6077-13.905 28.2785-13.2217 29.617-11.8551 30.9554-10.4885 31.6247-8.79581 31.6247-6.777ZM20.2847-6.75C20.2847-5.40253 20.6971-4.27816 21.5218-3.3769 22.3466-2.47563 23.3652-2.025 24.5777-2.025 25.7693-2.025 26.7782-2.47641 27.6044-3.37922 28.4306-4.28203 28.8437-5.41463 28.8437-6.777 28.8437-8.08847 28.4268-9.19934 27.593-10.1096 26.7593-11.0199 25.7451-11.475 24.5507-11.475 23.3534-11.475 22.3431-11.0251 21.5197-10.1252 20.6963-9.22535 20.2847-8.10028 20.2847-6.75ZM43.974-4.077C43.974-2.76103 43.4223-1.69404 42.319-0.876023 41.2156-0.0580078 39.7963 0.351 38.061 0.351 36.9242 0.351 35.8606 0.170508 34.8704-0.190477 33.8801-0.551461 32.9546-1.14595 32.094-1.97395L33.4381-3.969C34.4064-3.23887 35.2341-2.72784 35.921-2.43591 36.608-2.14397 37.3393-1.998 38.115-1.998 39.1005-1.998 39.8824-2.18123 40.4606-2.5477 41.0389-2.91417 41.328-3.37894 41.328-3.942 41.328-4.49888 41.0899-4.9083 40.6136-5.17029 40.1373-5.43227 39.3002-5.57184 38.1023-5.589 36.2261-5.66325 34.8412-6.01755 33.9475-6.65191 33.0538-7.28627 32.607-8.28197 32.607-9.639 32.607-10.8638 33.1165-11.8811 34.1355-12.6906 35.1544-13.5002 36.4539-13.905 38.034-13.905 39.0909-13.905 40.0854-13.7372 41.0173-13.4017 41.9492-13.0662 42.8268-12.5266 43.65-11.783L42.389-9.828C41.5169-10.4434 40.7522-10.8807 40.0951-11.14 39.4379-11.3993 38.7419-11.529 38.007-11.529 37.1818-11.529 36.5165-11.3525 36.0111-10.9995 35.5057-10.6466 35.253-10.2291 35.253-9.747 35.253-9.20306 35.4739-8.80488 35.9158-8.55246 36.3576-8.30004 37.1076-8.14781 38.1656-8.09578 40.1749-8.04037 41.6453-7.6957 42.5768-7.06177 43.5083-6.42783 43.974-5.43291 43.974-4.077ZM45.9933-3.753 45.9933-11.097 44.2113-11.097 44.2113-13.554 45.9933-13.554 45.9933-17.55 48.7203-17.55 48.7203-13.554 51.7443-13.554 51.7443-11.097 48.7203-11.097 48.7203-3.942C48.7203-3.42084 48.8257-3.04755 49.0365-2.82213 49.2473-2.59671 49.5829-2.484 50.0433-2.484L51.7443-2.484 51.7443 0 49.7193 0C48.4366 0 47.4949-0.305227 46.8942-0.91568 46.2936-1.52613 45.9933-2.47191 45.9933-3.753Z" transform="translate(23.488 37)"/><path d="M0.756-6.723 0.756-9.342 8.343-9.342 8.343-6.723Z" transform="translate(75.3213 37)"/><path d="M12.474-4.077C12.474-2.76103 11.9223-1.69404 10.819-0.876023 9.71564-0.0580078 8.29631 0.351 6.561 0.351 5.42419 0.351 4.36064 0.170508 3.37036-0.190477 2.38008-0.551461 1.45462-1.14595 0.594-1.97395L1.93809-3.969C2.90644-3.23887 3.73409-2.72784 4.42104-2.43591 5.10799-2.14397 5.83931-1.998 6.615-1.998 7.6005-1.998 8.38237-2.18123 8.96063-2.5477 9.53887-2.91417 9.828-3.37894 9.828-3.942 9.828-4.49888 9.58985-4.9083 9.11355-5.17029 8.63726-5.43227 7.80019-5.57184 6.60234-5.589 4.72612-5.66325 3.34118-6.01755 2.44751-6.65191 1.55384-7.28627 1.107-8.28197 1.107-9.639 1.107-10.8638 1.61648-11.8811 2.63545-12.6906 3.65442-13.5002 4.95394-13.905 6.534-13.905 7.59094-13.905 8.58537-13.7372 9.51729-13.4017 10.4492-13.0662 11.3268-12.5266 12.15-11.783L10.889-9.828C10.0169-10.4434 9.25221-10.8807 8.59507-11.14 7.93793-11.3993 7.24191-11.529 6.507-11.529 5.68181-11.529 5.01652-11.3525 4.51111-10.9995 4.0057-10.6466 3.753-10.2291 3.753-9.747 3.753-9.20306 3.97392-8.80488 4.41577-8.55246 4.85761-8.30004 5.60756-8.14781 6.66563-8.09578 8.67488-8.04037 10.1453-7.6957 11.0768-7.06177 12.0082-6.42783 12.474-5.43291 12.474-4.077ZM18.1923-0.375469 12.6843-13.554 15.5446-13.554 19.5672-3.213 23.5898-13.554 26.3463-13.554 18.6644 4.86 15.9513 4.86ZM27.0977-13.554 29.7977-13.554 29.7977-11.556C30.0111-12.2524 30.5388-12.8135 31.3808-13.2393 32.2227-13.6651 33.162-13.878 34.1987-13.878 36.0133-13.878 37.4299-13.2931 38.4486-12.1234 39.4673-10.9537 39.9767-9.36956 39.9767-7.371L39.9767 0 37.2497 0 37.2497-7.236C37.2497-8.53537 36.9359-9.55322 36.3083-10.2895 35.6806-11.0258 34.8064-11.394 33.6857-11.394 32.523-11.394 31.5888-10.9992 30.8832-10.2096 30.1775-9.41998 29.8247-8.38378 29.8247-7.101L29.8247 0 27.0977 0ZM53.5093 0 50.8363 0 50.8363-2.133C50.6141-1.41469 50.0377-0.834609 49.1069-0.392766 48.1761 0.0490781 47.1776 0.27 46.1113 0.27 44.6047 0.27 43.373-0.117422 42.4163-0.892266 41.4597-1.66711 40.9813-2.69269 40.9813-3.969 40.9813-5.36428 41.5154-6.4196 42.5836-7.13496 43.6518-7.85032 45.2057-8.208 47.2453-8.208L50.8093-8.208C50.7922-9.19659 50.4979-9.99724 49.9266-10.6099 49.3552-11.2226 48.5335-11.529 47.4613-11.529 46.815-11.529 46.175-11.392 45.5414-11.1179 44.9077-10.8438 44.205-10.3958 43.4333-9.774L42.0343-11.5151C42.8621-12.3602 43.7431-12.9743 44.6774-13.3574 45.6117-13.7405 46.6117-13.932 47.6773-13.932 49.5046-13.932 50.9334-13.3885 51.9638-12.3015 52.9942-11.2144 53.5093-9.73294 53.5093-7.857ZM50.8093-5.994 47.2723-5.994C46.0061-5.994 45.0911-5.83291 44.5272-5.51074 43.9633-5.18857 43.6813-4.69266 43.6813-4.023 43.6813-3.44616 43.927-2.96445 44.4184-2.57787 44.9097-2.19129 45.555-1.998 46.3543-1.998 47.575-1.998 48.6054-2.39266 49.4456-3.18199 50.2859-3.97132 50.7404-4.90866 50.8093-5.994ZM57.9913 4.86 55.2643 4.86 55.2643-13.554 57.9643-13.554 57.9643-11.475C58.238-12.1747 58.8169-12.7457 59.701-13.1878 60.5851-13.6299 61.5272-13.851 62.5273-13.851 64.4438-13.851 66.0389-13.1907 67.3127-11.8701 68.5864-10.5495 69.2233-8.86978 69.2233-6.831 69.2233-4.76072 68.5623-3.05515 67.2403-1.71429 65.9183-0.37343 64.2933 0.297 62.3653 0.297 61.4386 0.297 60.5492 0.105047 59.6972-0.278859 58.8451-0.662766 58.2765-1.18181 57.9913-1.836ZM62.2843-11.394C61.0466-11.394 60.0081-10.949 59.169-10.059 58.3299-9.16896 57.9103-8.05697 57.9103-6.723 57.9103-5.39522 58.3222-4.29827 59.1458-3.43216 59.9694-2.56605 60.9886-2.133 62.2033-2.133 63.4532-2.133 64.4722-2.55255 65.2602-3.39166 66.0483-4.23077 66.4423-5.35922 66.4423-6.777 66.4423-8.16075 66.0569-9.27619 65.286-10.1233 64.5151-10.9704 63.5145-11.394 62.2843-11.394ZM71.16-3.753 71.16-11.097 69.378-11.097 69.378-13.554 71.16-13.554 71.16-17.55 73.887-17.55 73.887-13.554 76.911-13.554 76.911-11.097 73.887-11.097 73.887-3.942C73.887-3.42084 73.9924-3.04755 74.2032-2.82213 74.414-2.59671 74.7496-2.484 75.21-2.484L76.911-2.484 76.911 0 74.886 0C73.6032 0 72.6615-0.305227 72.0609-0.91568 71.4603-1.52613 71.16-2.47191 71.16-3.753ZM78.566-17.928 81.536-17.928 81.536-15.012 78.566-15.012ZM78.674 0 78.674-13.554 81.428-13.554 81.428 0ZM90.1903 0.405C88.1156 0.405 86.4269-0.255656 85.1243-1.57697 83.8216-2.89828 83.1703-4.62262 83.1703-6.75 83.1703-8.75419 83.8525-10.4477 85.2169-11.8306 86.5812-13.2135 88.257-13.905 90.2443-13.905 91.6832-13.905 92.9175-13.5697 93.9471-12.899 94.9768-12.2284 95.7585-11.1957 96.2923-9.801L94.0252-8.775C93.5555-9.73406 93.0137-10.4238 92.3999-10.8443 91.7861-11.2648 91.0586-11.475 90.2173-11.475 89.0181-11.475 88.0073-11.0214 87.1849-10.1142 86.3625-9.20707 85.9513-8.08566 85.9513-6.75 85.9513-5.38509 86.3636-4.25637 87.1881-3.36382 88.0125-2.47127 89.0403-2.025 90.2713-2.025 91.0591-2.025 91.7965-2.24121 92.4834-2.67363 93.1704-3.10605 93.7715-3.77184 94.2867-4.671L96.3733-3.57961C95.8094-2.27264 94.984-1.2818 93.8969-0.607078 92.8099 0.0676406 91.5744 0.405 90.1903 0.405Z" transform="translate(83.6546 37)"/></g></g></g><rect x="563" y="484" width="222" height="138" stroke="#000000" stroke-width="4" stroke-miterlimit="8" fill="#F2F2F2"/><text font-family="IntelOne Display AR Regular,IntelOne Display AR Regular_MSFontService,sans-serif" font-weight="700" font-size="27" transform="translate(595.66 575)">Post<tspan font-size="27" x="51.8333" y="0">-</tspan><tspan font-size="27" x="60.1666" y="0">synaptic</tspan></text><rect x="774" y="526" width="20" height="21" fill="#7030A0"/><rect x="563.5" y="484.5" width="222" height="32" stroke="#000000" stroke-width="3" stroke-miterlimit="8" fill="#595959"/><text fill="#FFFFFF" font-family="IntelOne Display AR Regular,IntelOne Display AR Regular_MSFontService,sans-serif" font-weight="700" font-size="21" transform="translate(619.007 506)">LearningLIF</text><rect x="553" y="585" width="23" height="20" fill="#00B050"/><g clip-path="url(#clip47)"><g clip-path="url(#clip48)" filter="url(#fx12)" transform="translate(817 256)"><g clip-path="url(#clip49)"><rect x="8.82843" y="8.82843" width="221" height="137" stroke="#000000" stroke-width="4" stroke-miterlimit="8" fill="#F2F2F2"/></g></g><g clip-path="url(#clip50)" filter="url(#fx13)" transform="translate(876 318)"><g clip-path="url(#clip51)"><path d="M1.755 0 1.755-19.413 10.233-19.413C12.3713-19.413 14.0669-18.8714 15.3198-17.7881 16.5726-16.7049 17.199-15.2485 17.199-13.419 17.199-11.5521 16.5222-10.0593 15.1687-8.9408 13.8152-7.82227 12.026-7.263 9.801-7.263L4.617-7.263 4.617 0ZM14.283-13.365C14.283-14.4318 13.9238-15.27 13.2055-15.8796 12.4872-16.4892 11.4694-16.794 10.152-16.794L4.617-16.794 4.617-9.855 9.963-9.855C11.2984-9.855 12.3522-10.1699 13.1245-10.7996 13.8968-11.4293 14.283-12.2844 14.283-13.365ZM18.3407-19.413 21.0947-19.413 21.0947 0 18.3407 0ZM35.176 0 32.503 0 32.503-2.133C32.2808-1.41469 31.7043-0.834609 30.7735-0.392766 29.8427 0.0490781 28.8442 0.27 27.778 0.27 26.2713 0.27 25.0397-0.117422 24.083-0.892266 23.1263-1.66711 22.648-2.69269 22.648-3.969 22.648-5.36428 23.1821-6.4196 24.2503-7.13496 25.3185-7.85032 26.8724-8.208 28.912-8.208L32.476-8.208C32.4588-9.19659 32.1646-9.99724 31.5932-10.6099 31.0219-11.2226 30.2001-11.529 29.128-11.529 28.4817-11.529 27.8417-11.392 27.208-11.1179 26.5744-10.8438 25.8717-10.3958 25.0999-9.774L23.701-11.5151C24.5287-12.3602 25.4097-12.9743 26.344-13.3574 27.2784-13.7405 28.2783-13.932 29.344-13.932 31.1713-13.932 32.6001-13.3885 33.6305-12.3015 34.6608-11.2144 35.176-9.73294 35.176-7.857ZM32.476-5.994 28.939-5.994C27.6728-5.994 26.7578-5.83291 26.1939-5.51074 25.63-5.18857 25.348-4.69266 25.348-4.023 25.348-3.44616 25.5937-2.96445 26.085-2.57787 26.5764-2.19129 27.2217-1.998 28.021-1.998 29.2416-1.998 30.2721-2.39266 31.1123-3.18199 31.9525-3.97132 32.4071-4.90866 32.476-5.994ZM47.974-4.077C47.974-2.76103 47.4223-1.69404 46.319-0.876023 45.2156-0.0580078 43.7963 0.351 42.061 0.351 40.9242 0.351 39.8606 0.170508 38.8704-0.190477 37.8801-0.551461 36.9546-1.14595 36.094-1.97395L37.4381-3.969C38.4064-3.23887 39.2341-2.72784 39.921-2.43591 40.608-2.14397 41.3393-1.998 42.115-1.998 43.1005-1.998 43.8824-2.18123 44.4606-2.5477 45.0389-2.91417 45.328-3.37894 45.328-3.942 45.328-4.49888 45.0899-4.9083 44.6136-5.17029 44.1373-5.43227 43.3002-5.57184 42.1023-5.589 40.2261-5.66325 38.8412-6.01755 37.9475-6.65191 37.0538-7.28627 36.607-8.28197 36.607-9.639 36.607-10.8638 37.1165-11.8811 38.1355-12.6906 39.1544-13.5002 40.4539-13.905 42.034-13.905 43.0909-13.905 44.0854-13.7372 45.0173-13.4017 45.9492-13.0662 46.8268-12.5266 47.65-11.783L46.389-9.828C45.5169-10.4434 44.7522-10.8807 44.0951-11.14 43.4379-11.3993 42.7419-11.529 42.007-11.529 41.1818-11.529 40.5165-11.3525 40.0111-10.9995 39.5057-10.6466 39.253-10.2291 39.253-9.747 39.253-9.20306 39.4739-8.80488 39.9158-8.55246 40.3576-8.30004 41.1076-8.14781 42.1656-8.09578 44.1749-8.04037 45.6452-7.6957 46.5768-7.06177 47.5082-6.42783 47.974-5.43291 47.974-4.077ZM49.9933-3.753 49.9933-11.097 48.2113-11.097 48.2113-13.554 49.9933-13.554 49.9933-17.55 52.7203-17.55 52.7203-13.554 55.7443-13.554 55.7443-11.097 52.7203-11.097 52.7203-3.942C52.7203-3.42084 52.8257-3.04755 53.0365-2.82213 53.2473-2.59671 53.5829-2.484 54.0433-2.484L55.7443-2.484 55.7443 0 53.7193 0C52.4366 0 51.4949-0.305227 50.8942-0.91568 50.2936-1.52613 49.9933-2.47191 49.9933-3.753ZM57.3993-17.928 60.3693-17.928 60.3693-15.012 57.3993-15.012ZM57.5073 0 57.5073-13.554 60.2613-13.554 60.2613 0ZM69.0237 0.405C66.9489 0.405 65.2602-0.255656 63.9576-1.57697 62.655-2.89828 62.0037-4.62262 62.0037-6.75 62.0037-8.75419 62.6858-10.4477 64.0502-11.8306 65.4145-13.2135 67.0904-13.905 69.0777-13.905 70.5165-13.905 71.7508-13.5697 72.7805-12.899 73.8101-12.2284 74.5919-11.1957 75.1257-9.801L72.8585-8.775C72.3888-9.73406 71.8471-10.4238 71.2332-10.8443 70.6194-11.2648 69.8919-11.475 69.0507-11.475 67.8514-11.475 66.8406-11.0214 66.0182-10.1142 65.1959-9.20707 64.7847-8.08566 64.7847-6.75 64.7847-5.38509 65.1969-4.25637 66.0214-3.36382 66.8459-2.47127 67.8736-2.025 69.1047-2.025 69.8924-2.025 70.6298-2.24121 71.3168-2.67363 72.0037-3.10605 72.6048-3.77184 73.1201-4.671L75.2067-3.57961C74.6428-2.27264 73.8173-1.2818 72.7303-0.607078 71.6432 0.0676406 70.4077 0.405 69.0237 0.405Z" transform="translate(22.7983 37)"/></g></g></g><rect x="823" y="262" width="221" height="137" stroke="#000000" stroke-width="4" stroke-miterlimit="8" fill="#F2F2F2"/><text font-family="IntelOne Display AR Regular,IntelOne Display AR Regular_MSFontService,sans-serif" font-weight="700" font-size="27" transform="translate(895.97 352)">Plastic </text><rect x="823.5" y="262.5" width="221" height="33" stroke="#000000" stroke-width="3" stroke-miterlimit="8" fill="#595959"/><text fill="#FFFFFF" font-family="IntelOne Display AR Regular,IntelOne Display AR Regular_MSFontService,sans-serif" font-weight="700" font-size="21" transform="translate(835.506 285)">LearningDenseProbe</text><rect x="812" y="327" width="23" height="21" fill="#00B050"/><path d="M780.5 127 797.925 127 797.925 337.669 796.425 336.169 804.851 336.169 804.851 339.169 794.925 339.169 794.925 128.5 796.425 130 780.5 130ZM803.351 333.169 812.351 337.669 803.351 342.169Z" fill="#00B050"/><rect x="842" y="388" width="23" height="21" fill="#00B050"/><path d="M0-1.5 60.8378-1.5 60.8378 120.322 57.8378 120.322 57.8378 0 59.3378 1.5 0 1.5ZM63.8378 118.822 59.3378 127.822 54.8378 118.822Z" fill="#C00000" transform="matrix(1 0 0 -1 794.5 537.322)"/><text font-family="IntelOne Display AR Regular,IntelOne Display AR Regular_MSFontService,sans-serif" font-weight="700" font-size="16" transform="translate(805.376 526)">BAP</text><rect x="1033" y="362" width="23" height="21" fill="#7030A0"/><path d="M1056.5 372.5 1073.8 372.5 1073.8 659.141" stroke="#FFC000" stroke-width="3" stroke-miterlimit="8" fill="none" fill-rule="evenodd"/><path d="M1074.78 660.779 527.001 660.779 527.001 594 545 594 545 597 528.501 597 530.001 595.5 530.001 659.279 528.501 657.779 1074.78 657.779ZM543.5 591 552.5 595.5 543.5 600Z" fill="#FFC000"/><text font-family="IntelOne Display AR Regular,IntelOne Display AR Regular_MSFontService,sans-serif" font-weight="700" font-size="16" transform="translate(746.45 677)">Plastic Synapse</text><rect x="773" y="558" width="21" height="21" fill="#7030A0"/><rect x="930" y="387" width="23" height="20" fill="#00B050"/><path d="M0-1.5 148.867-1.5 148.867 153.571 145.867 153.571 145.867 0 147.367 1.5 0 1.5ZM151.867 152.071 147.367 161.071 142.867 152.071Z" fill="#4472C4" transform="matrix(1 0 0 -1 794.5 568.571)"/><text font-family="IntelOne Display AR Regular,IntelOne Display AR Regular_MSFontService,sans-serif" font-weight="700" font-size="16" transform="translate(821.244 563)">Error Trace (y2)</text><rect x="553" y="551" width="23" height="20" fill="#00B050"/><rect x="774" y="590" width="21" height="20" fill="#7030A0"/><rect x="1008" y="388" width="23" height="21" fill="#00B050"/><path d="M0-1.5 225.965-1.5 225.965 183.954 222.965 183.954 222.965 0 224.465 1.5 0 1.5ZM228.965 182.454 224.465 191.454 219.965 182.454Z" fill="#4472C4" transform="matrix(1 0 0 -1 795.5 600.954)"/><text font-family="IntelOne Display AR Regular,IntelOne Display AR Regular_MSFontService,sans-serif" font-weight="700" font-size="16" transform="translate(806.797 618)">Membrane Potential Trace (y3)</text><path d="M522.505 560 545.667 560.07 545.658 563.07 522.496 563ZM544.177 557.065 553.163 561.592 544.149 566.065Z" fill="#00B050"/><rect x="1033" y="309" width="23" height="21" fill="#7030A0"/><g clip-path="url(#clip52)"><g clip-path="url(#clip53)" filter="url(#fx14)" transform="translate(1087 96)"><g clip-path="url(#clip54)"><rect x="8.82837" y="8.82843" width="176" height="127" stroke="#000000" stroke-width="4" stroke-miterlimit="8" fill="#F2F2F2"/></g></g><g clip-path="url(#clip55)" filter="url(#fx15)" transform="translate(1095 155)"><g clip-path="url(#clip56)"><path d="M13.7744-15.099 16.506-15.099 16.506 0 14.28 0 14.28-12.39 9.80142-3.99 8.08762-3.99 3.591-12.369 3.591 0 1.365 0 1.365-15.099 4.09467-15.099 8.94469-6.531ZM28.9673-5.271C28.9673-3.68616 28.4362-2.35895 27.3738-1.28937 26.3114-0.219789 25.0016 0.315 23.4443 0.315 21.8864 0.315 20.5869-0.216453 19.5459-1.27936 18.5048-2.34227 17.9843-3.66581 17.9843-5.25 17.9843-6.825 18.5145-8.14625 19.5748-9.21375 20.635-10.2812 21.9459-10.815 23.5073-10.815 25.0653-10.815 26.3648-10.2835 27.4058-9.22064 28.4468-8.15773 28.9673-6.84119 28.9673-5.271ZM20.1473-5.25C20.1473-4.20197 20.4681-3.32746 21.1096-2.62648 21.751-1.92549 22.5433-1.575 23.4863-1.575 24.4132-1.575 25.1979-1.92609 25.8405-2.62828 26.483-3.33047 26.8043-4.21137 26.8043-5.271 26.8043-6.29103 26.4801-7.15504 25.8316-7.86302 25.1831-8.57101 24.3944-8.925 23.4653-8.925 22.5341-8.925 21.7483-8.57505 21.1079-7.87516 20.4675-7.17527 20.1473-6.30022 20.1473-5.25ZM30.2797-10.542 32.3797-10.542 32.3797-8.988C32.5457-9.52962 32.9561-9.96603 33.611-10.2972 34.2658-10.6284 34.9964-10.794 35.8027-10.794 37.214-10.794 38.3159-10.3391 39.1082-9.42933 39.9005-8.51955 40.2967-7.28744 40.2967-5.733L40.2967 0 38.1757 0 38.1757-5.628C38.1757-6.63862 37.9316-7.43028 37.4435-8.00297 36.9553-8.57566 36.2754-8.862 35.4037-8.862 34.4994-8.862 33.7728-8.55493 33.2239-7.94079 32.6751-7.32665 32.4007-6.52072 32.4007-5.523L32.4007 0 30.2797 0ZM42.0513-13.944 44.3613-13.944 44.3613-11.676 42.0513-11.676ZM42.1353 0 42.1353-10.542 44.2773-10.542 44.2773 0ZM46.8467-2.919 46.8467-8.631 45.4607-8.631 45.4607-10.542 46.8467-10.542 46.8467-13.65 48.9677-13.65 48.9677-10.542 51.3197-10.542 51.3197-8.631 48.9677-8.631 48.9677-3.066C48.9677-2.66066 49.0496-2.37032 49.2136-2.19499 49.3775-2.01966 49.6386-1.932 49.9967-1.932L51.3197-1.932 51.3197 0 49.7447 0C48.7469 0 48.0145-0.237398 47.5474-0.712195 47.0802-1.18699 46.8467-1.92259 46.8467-2.919ZM63.134-5.271C63.134-3.68616 62.6028-2.35895 61.5405-1.28937 60.4781-0.219789 59.1683 0.315 57.611 0.315 56.0531 0.315 54.7536-0.216453 53.7125-1.27936 52.6715-2.34227 52.151-3.66581 52.151-5.25 52.151-6.825 52.6811-8.14625 53.7414-9.21375 54.8017-10.2812 56.1126-10.815 57.674-10.815 59.2319-10.815 60.5314-10.2835 61.5725-9.22064 62.6135-8.15773 63.134-6.84119 63.134-5.271ZM54.314-5.25C54.314-4.20197 54.6347-3.32746 55.2762-2.62648 55.9177-1.92549 56.71-1.575 57.653-1.575 58.5798-1.575 59.3646-1.92609 60.0071-2.62828 60.6497-3.33047 60.971-4.21137 60.971-5.271 60.971-6.29103 60.6468-7.15504 59.9983-7.86302 59.3498-8.57101 58.561-8.925 57.632-8.925 56.7008-8.925 55.915-8.57505 55.2746-7.87516 54.6342-7.17527 54.314-6.30022 54.314-5.25ZM64.4463-10.542 66.5463-10.542 66.5463-9.282C66.6157-9.68603 66.9118-10.0075 67.4346-10.2465 67.9574-10.4855 68.5713-10.605 69.2763-10.605L70.4103-10.605 70.4103-8.589 69.2553-8.589C68.3501-8.589 67.6758-8.35767 67.2324-7.89502 66.789-7.43236 66.5673-6.71869 66.5673-5.754L66.5673 0 64.4463 0ZM80.2987-13.062 74.5867-13.062 74.5867-15.099 88.2157-15.099 88.2157-13.062 82.5247-13.062 82.5247 0 80.2987 0ZM89.2797-10.542 91.3797-10.542 91.3797-9.282C91.449-9.68603 91.7451-10.0075 92.2679-10.2465 92.7907-10.4855 93.4046-10.605 94.1097-10.605L95.2437-10.605 95.2437-8.589 94.0887-8.589C93.1835-8.589 92.5092-8.35767 92.0658-7.89502 91.6224-7.43236 91.4007-6.71869 91.4007-5.754L91.4007 0 89.2797 0ZM105.415 0 103.336 0 103.336-1.659C103.163-1.10031 102.714-0.649141 101.991-0.305484 101.267 0.0381719 100.49 0.21 99.6607 0.21 98.4888 0.21 97.5309-0.0913281 96.7868-0.693984 96.0427-1.29664 95.6707-2.09431 95.6707-3.087 95.6707-4.17222 96.0861-4.99302 96.9169-5.54941 97.7477-6.1058 98.9563-6.384 100.543-6.384L103.315-6.384C103.301-7.15291 103.072-7.77563 102.628-8.25218 102.184-8.72873 101.545-8.967 100.711-8.967 100.208-8.967 99.7102-8.86041 99.2174-8.64724 98.7245-8.43407 98.178-8.08566 97.5777-7.602L96.4897-8.95617C97.1334-9.61352 97.8187-10.0912 98.5454-10.3891 99.2721-10.687 100.05-10.836 100.879-10.836 102.3-10.836 103.411-10.4133 104.213-9.5678 105.014-8.72233 105.415-7.57006 105.415-6.111ZM103.315-4.662 100.564-4.662C99.5789-4.662 98.8672-4.53671 98.4286-4.28613 97.99-4.03555 97.7707-3.64984 97.7707-3.129 97.7707-2.68034 97.9617-2.30568 98.3439-2.00501 98.7261-1.70434 99.228-1.554 99.8497-1.554 100.799-1.554 101.6-1.86096 102.254-2.47488 102.908-3.0888 103.261-3.81784 103.315-4.662ZM112.111 0.315C110.497 0.315 109.184-0.198844 108.171-1.22653 107.158-2.25422 106.651-3.59537 106.651-5.25 106.651-6.80881 107.182-8.12602 108.243-9.20161 109.304-10.2772 110.607-10.815 112.153-10.815 113.272-10.815 114.232-10.5542 115.033-10.0326 115.834-9.51098 116.442-8.70778 116.857-7.623L115.094-6.825C114.728-7.57094 114.307-8.10742 113.83-8.43445 113.352-8.76148 112.786-8.925 112.132-8.925 111.199-8.925 110.413-8.57221 109.773-7.86663 109.134-7.16105 108.814-6.28884 108.814-5.25 108.814-4.18841 109.135-3.31051 109.776-2.6163 110.417-1.9221 111.217-1.575 112.174-1.575 112.787-1.575 113.36-1.74316 113.895-2.07949 114.429-2.41582 114.896-2.93366 115.297-3.633L116.92-2.78414C116.481-1.76761 115.839-0.996953 114.994-0.472172 114.148 0.0526094 113.187 0.315 112.111 0.315ZM123.216-1.533C123.852-1.533 124.438-1.66906 124.976-1.94119 125.513-2.21331 126.06-2.66525 126.615-3.297L127.878-2.15873C127.253-1.27892 126.541-0.64668 125.742-0.262008 124.944 0.122664 124.053 0.315 123.069 0.315 121.483 0.315 120.183-0.206063 119.17-1.24819 118.157-2.29031 117.651-3.62425 117.651-5.25 117.651-6.82216 118.167-8.1392 119.2-9.20112 120.233-10.263 121.509-10.794 123.027-10.794 124.574-10.794 125.829-10.2909 126.791-9.28463 127.754-8.27837 128.235-6.9755 128.235-5.376 128.235-5.34625 128.231-5.26061 128.222-5.11908 128.213-4.97755 128.187-4.75519 128.143-4.452L119.835-4.452C119.94-3.65509 120.306-2.96937 120.933-2.39482 121.561-1.82027 122.322-1.533 123.216-1.533ZM123.048-8.946C122.222-8.946 121.512-8.67606 120.92-8.13619 120.327-7.59631 119.966-6.94225 119.835-6.174L126.093-6.174C125.973-6.95909 125.638-7.61737 125.087-8.14882 124.536-8.68027 123.856-8.946 123.048-8.946ZM138.035-3.171C138.035-2.14747 137.606-1.31759 136.748-0.681352 135.89-0.0451172 134.786 0.273 133.436 0.273 132.552 0.273 131.725 0.132617 130.955-0.148148 130.185-0.428914 129.465-0.891297 128.795-1.5353L129.841-3.087C130.594-2.51912 131.238-2.12166 131.772-1.89459 132.306-1.66753 132.875-1.554 133.478-1.554 134.245-1.554 134.853-1.69652 135.303-1.98155 135.752-2.26658 135.977-2.62806 135.977-3.066 135.977-3.49913 135.792-3.81757 135.422-4.02134 135.051-4.2251 134.4-4.33366 133.469-4.347 132.009-4.40475 130.932-4.68032 130.237-5.17371 129.542-5.6671 129.194-6.44153 129.194-7.497 129.194-8.44966 129.591-9.24082 130.383-9.87049 131.176-10.5002 132.186-10.815 133.415-10.815 134.237-10.815 135.011-10.6845 135.736-10.4235 136.461-10.1626 137.143-9.74291 137.783-9.16453L136.803-7.644C136.124-8.12262 135.53-8.46278 135.018-8.66447 134.507-8.86616 133.966-8.967 133.394-8.967 132.753-8.967 132.235-8.82973 131.842-8.5552 131.449-8.28067 131.252-7.95594 131.252-7.581 131.252-7.15794 131.424-6.84824 131.768-6.65191 132.111-6.45559 132.695-6.33719 133.518-6.29672 135.08-6.25362 136.224-5.98555 136.949-5.49248 137.673-4.99942 138.035-4.22559 138.035-3.171Z" transform="translate(19.5289 32)"/></g></g></g><rect x="1093" y="102" width="176" height="127" stroke="#000000" stroke-width="4" stroke-miterlimit="8" fill="#F2F2F2"/><text font-family="IntelOne Display AR Regular,IntelOne Display AR Regular_MSFontService,sans-serif" font-weight="700" font-size="21" transform="translate(1111.7 184)">Monitor Traces</text><rect x="1093.5" y="101.5" width="176" height="31" stroke="#000000" stroke-width="3" stroke-miterlimit="8" fill="#595959"/><text fill="#FFFFFF" font-family="IntelOne Display AR Regular,IntelOne Display AR Regular_MSFontService,sans-serif" font-weight="700" font-size="21" transform="translate(1131.76 124)">MyMonitor</text><rect x="1085.5" y="167.5" width="21" height="21" stroke="#7F7F7F" stroke-width="1.33333" stroke-miterlimit="8" fill="#7F7F7F"/><path d="M0-2 9.51782-2 9.51782 141.84 7.51782 139.84 18.9993 139.84 18.9993 143.84 5.51782 143.84 5.51782 0 7.51782 2 0 2ZM16.9993 135.84 28.9993 141.84 16.9993 147.84Z" fill="#7F7F7F" transform="matrix(1 0 0 -1 1056 318.84)"/></g></svg>