<svg width="1280" height="720" xmlns="http://www.w3.org/2000/svg" xmlns:xlink="http://www.w3.org/1999/xlink" overflow="hidden"><defs><filter id="fx0" x="-10%" y="-10%" width="120%" height="120%" filterUnits="userSpaceOnUse" primitiveUnits="userSpaceOnUse"><feComponentTransfer color-interpolation-filters="sRGB"><feFuncR type="discrete" tableValues="0 0"/><feFuncG type="discrete" tableValues="0 0"/><feFuncB type="discrete" tableValues="0 0"/><feFuncA type="linear" slope="0.4" intercept="0"/></feComponentTransfer><feGaussianBlur stdDeviation="1.77778 1.77778"/></filter><filter id="fx1" x="-10%" y="-10%" width="120%" height="120%" filterUnits="userSpaceOnUse" primitiveUnits="userSpaceOnUse"><feComponentTransfer color-interpolation-filters="sRGB"><feFuncR type="discrete" tableValues="0 0"/><feFuncG type="discrete" tableValues="0 0"/><feFuncB type="discrete" tableValues="0 0"/><feFuncA type="linear" slope="0.4" intercept="0"/></feComponentTransfer><feGaussianBlur stdDeviation="1.77778 1.77778"/></filter><filter id="fx2" x="-10%" y="-10%" width="120%" height="120%" filterUnits="userSpaceOnUse" primitiveUnits="userSpaceOnUse"><feComponentTransfer color-interpolation-filters="sRGB"><feFuncR type="discrete" tableValues="0 0"/><feFuncG type="discrete" tableValues="0 0"/><feFuncB type="discrete" tableValues="0 0"/><feFuncA type="linear" slope="0.4" intercept="0"/></feComponentTransfer><feGaussianBlur stdDeviation="1.77778 1.77778"/></filter><filter id="fx3" x="-10%" y="-10%" width="120%" height="120%" filterUnits="userSpaceOnUse" primitiveUnits="userSpaceOnUse"><feComponentTransfer color-interpolation-filters="sRGB"><feFuncR type="discrete" tableValues="0 0"/><feFuncG type="discrete" tableValues="0 0"/><feFuncB type="discrete" tableValues="0 0"/><feFuncA type="linear" slope="0.4" intercept="0"/></feComponentTransfer><feGaussianBlur stdDeviation="1.77778 1.77778"/></filter><filter id="fx4" x="-10%" y="-10%" width="120%" height="120%" filterUnits="userSpaceOnUse" primitiveUnits="userSpaceOnUse"><feComponentTransfer color-interpolation-filters="sRGB"><feFuncR type="discrete" tableValues="0 0"/><feFuncG type="discrete" tableValues="0 0"/><feFuncB type="discrete" tableValues="0 0"/><feFuncA type="linear" slope="0.4" intercept="0"/></feComponentTransfer><feGaussianBlur stdDeviation="1.77778 1.77778"/></filter><filter id="fx5" x="-10%" y="-10%" width="120%" height="120%" filterUnits="userSpaceOnUse" primitiveUnits="userSpaceOnUse"><feComponentTransfer color-interpolation-filters="sRGB"><feFuncR type="discrete" tableValues="0 0"/><feFuncG type="discrete" tableValues="0 0"/><feFuncB type="discrete" tableValues="0 0"/><feFuncA type="linear" slope="0.4" intercept="0"/></feComponentTransfer><feGaussianBlur stdDeviation="1.77778 1.77778"/></filter><filter id="fx6" x="-10%" y="-10%" width="120%" height="120%" filterUnits="userSpaceOnUse" primitiveUnits="userSpaceOnUse"><feComponentTransfer color-interpolation-filters="sRGB"><feFuncR type="discrete" tableValues="0 0"/><feFuncG type="discrete" tableValues="0 0"/><feFuncB type="discrete" tableValues="0 0"/><feFuncA type="linear" slope="0.4" intercept="0"/></feComponentTransfer><feGaussianBlur stdDeviation="1.77778 1.77778"/></filter><filter id="fx7" x="-10%" y="-10%" width="120%" height="120%" filterUnits="userSpaceOnUse" primitiveUnits="userSpaceOnUse"><feComponentTransfer color-interpolation-filters="sRGB"><feFuncR type="discrete" tableValues="0 0"/><feFuncG type="discrete" tableValues="0 0"/><feFuncB type="discrete" tableValues="0 0"/><feFuncA type="linear" slope="0.4" intercept="0"/></feComponentTransfer><feGaussianBlur stdDeviation="1.77778 1.77778"/></filter><filter id="fx8" x="-10%" y="-10%" width="120%" height="120%" filterUnits="userSpaceOnUse" primitiveUnits="userSpaceOnUse"><feComponentTransfer color-interpolation-filters="sRGB"><feFuncR type="discrete" tableValues="0 0"/><feFuncG type="discrete" tableValues="0 0"/><feFuncB type="discrete" tableValues="0 0"/><feFuncA type="linear" slope="0.4" intercept="0"/></feComponentTransfer><feGaussianBlur stdDeviation="1.77778 1.77778"/></filter><filter id="fx9" x="-10%" y="-10%" width="120%" height="120%" filterUnits="userSpaceOnUse" primitiveUnits="userSpaceOnUse"><feComponentTransfer color-interpolation-filters="sRGB"><feFuncR type="discrete" tableValues="0 0"/><feFuncG type="discrete" tableValues="0 0"/><feFuncB type="discrete" tableValues="0 0"/><feFuncA type="linear" slope="0.4" intercept="0"/></feComponentTransfer><feGaussianBlur stdDeviation="1.77778 1.77778"/></filter><filter id="fx10" x="-10%" y="-10%" width="120%" height="120%" filterUnits="userSpaceOnUse" primitiveUnits="userSpaceOnUse"><feComponentTransfer color-interpolation-filters="sRGB"><feFuncR type="discrete" tableValues="0 0"/><feFuncG type="discrete" tableValues="0 0"/><feFuncB type="discrete" tableValues="0 0"/><feFuncA type="linear" slope="0.4" intercept="0"/></feComponentTransfer><feGaussianBlur stdDeviation="1.77778 1.77778"/></filter><filter id="fx11" x="-10%" y="-10%" width="120%" height="120%" filterUnits="userSpaceOnUse" primitiveUnits="userSpaceOnUse"><feComponentTransfer color-interpolation-filters="sRGB"><feFuncR type="discrete" tableValues="0 0"/><feFuncG type="discrete" tableValues="0 0"/><feFuncB type="discrete" tableValues="0 0"/><feFuncA type="linear" slope="0.4" intercept="0"/></feComponentTransfer><feGaussianBlur stdDeviation="1.77778 1.77778"/></filter><filter id="fx12" x="-10%" y="-10%" width="120%" height="120%" filterUnits="userSpaceOnUse" primitiveUnits="userSpaceOnUse"><feComponentTransfer color-interpolation-filters="sRGB"><feFuncR type="discrete" tableValues="0 0"/><feFuncG type="discrete" tableValues="0 0"/><feFuncB type="discrete" tableValues="0 0"/><feFuncA type="linear" slope="0.4" intercept="0"/></feComponentTransfer><feGaussianBlur stdDeviation="1.77778 1.77778"/></filter><filter id="fx13" x="-10%" y="-10%" width="120%" height="120%" filterUnits="userSpaceOnUse" primitiveUnits="userSpaceOnUse"><feComponentTransfer color-interpolation-filters="sRGB"><feFuncR type="discrete" tableValues="0 0"/><feFuncG type="discrete" tableValues="0 0"/><feFuncB type="discrete" tableValues="0 0"/><feFuncA type="linear" slope="0.4" intercept="0"/></feComponentTransfer><feGaussianBlur stdDeviation="1.77778 1.77778"/></filter><filter id="fx14" x="-10%" y="-10%" width="120%" height="120%" filterUnits="userSpaceOnUse" primitiveUnits="userSpaceOnUse"><feComponentTransfer color-interpolation-filters="sRGB"><feFuncR type="discrete" tableValues="0 0"/><feFuncG type="discrete" tableValues="0 0"/><feFuncB type="discrete" tableValues="0 0"/><feFuncA type="linear" slope="0.4" intercept="0"/></feComponentTransfer><feGaussianBlur stdDeviation="1.77778 1.77778"/></filter><filter id="fx15" x="-10%" y="-10%" width="120%" height="120%" filterUnits="userSpaceOnUse" primitiveUnits="userSpaceOnUse"><feComponentTransfer color-interpolation-filters="sRGB"><feFuncR type="discrete" tableValues="0 0"/><feFuncG type="discrete" tableValues="0 0"/><feFuncB type="discrete" tableValues="0 0"/><feFuncA type="linear" slope="0.4" intercept="0"/></feComponentTransfer><feGaussianBlur stdDeviation="1.77778 1.77778"/></filter><filter id="fx16" x="-10%" y="-10%" width="120%" height="120%" filterUnits="userSpaceOnUse" primitiveUnits="userSpaceOnUse"><feComponentTransfer color-interpolation-filters="sRGB"><feFuncR type="discrete" tableValues="0 0"/><feFuncG type="discrete" tableValues="0 0"/><feFuncB type="discrete" tableValues="0 0"/><feFuncA type="linear" slope="0.4" intercept="0"/></feComponentTransfer><feGaussianBlur stdDeviation="1.77778 1.77778"/></filter><filter id="fx17" x="-10%" y="-10%" width="120%" height="120%" filterUnits="userSpaceOnUse" primitiveUnits="userSpaceOnUse"><feComponentTransfer color-interpolation-filters="sRGB"><feFuncR type="discrete" tableValues="0 0"/><feFuncG type="discrete" tableValues="0 0"/><feFuncB type="discrete" tableValues="0 0"/><feFuncA type="linear" slope="0.4" intercept="0"/></feComponentTransfer><feGaussianBlur stdDeviation="1.77778 1.77778"/></filter><clipPath id="clip18"><rect x="0" y="0" width="1280" height="720"/></clipPath><clipPath id="clip19"><path d="M27 17 27 153 249 153 249 17ZM1.90735e-05 1.07288e-05 1280 1.07288e-05 1280 720 1.90735e-05 720Z" fill-rule="evenodd" clip-rule="evenodd"/></clipPath><clipPath id="clip20"><rect x="-2" y="-2" width="242" height="157"/></clipPath><clipPath id="clip21"><rect x="0" y="0" width="240" height="154"/></clipPath><clipPath id="clip22"><rect x="17" y="9" width="192" height="41"/></clipPath><clipPath id="clip23"><rect x="0" y="0" width="224" height="70"/></clipPath><clipPath id="clip24"><path d="M340 17 340 153 562 153 562 17ZM1.90735e-05 1.07288e-05 1280 1.07288e-05 1280 720 1.90735e-05 720Z" fill-rule="evenodd" clip-rule="evenodd"/></clipPath><clipPath id="clip25"><rect x="-2" y="-2" width="242" height="157"/></clipPath><clipPath id="clip26"><rect x="0" y="0" width="240" height="154"/></clipPath><clipPath id="clip27"><rect x="17" y="9" width="72" height="41"/></clipPath><clipPath id="clip28"><rect x="0" y="0" width="104" height="70"/></clipPath><clipPath id="clip29"><path d="M653 17 653 153 875 153 875 17ZM1.90735e-05 1.07288e-05 1280 1.07288e-05 1280 720 1.90735e-05 720Z" fill-rule="evenodd" clip-rule="evenodd"/></clipPath><clipPath id="clip30"><rect x="-2" y="-2" width="242" height="157"/></clipPath><clipPath id="clip31"><rect x="0" y="0" width="240" height="154"/></clipPath><clipPath id="clip32"><rect x="17" y="9" width="159" height="41"/></clipPath><clipPath id="clip33"><rect x="0" y="0" width="190" height="70"/></clipPath><clipPath id="clip34"><path d="M30 333 30 469 251 469 251 333ZM1.90735e-05 1.07288e-05 1280 1.07288e-05 1280 720 1.90735e-05 720Z" fill-rule="evenodd" clip-rule="evenodd"/></clipPath><clipPath id="clip35"><rect x="-2" y="-2" width="242" height="157"/></clipPath><clipPath id="clip36"><rect x="0" y="0" width="239" height="154"/></clipPath><clipPath id="clip37"><rect x="17" y="9" width="194" height="72"/></clipPath><clipPath id="clip38"><rect x="0" y="0" width="231" height="102"/></clipPath><clipPath id="clip39"><path d="M343 333 343 469 564 469 564 333ZM1.90735e-05 1.07288e-05 1280 1.07288e-05 1280 720 1.90735e-05 720Z" fill-rule="evenodd" clip-rule="evenodd"/></clipPath><clipPath id="clip40"><rect x="-2" y="-2" width="242" height="157"/></clipPath><clipPath id="clip41"><rect x="0" y="0" width="239" height="154"/></clipPath><clipPath id="clip42"><rect x="17" y="9" width="72" height="41"/></clipPath><clipPath id="clip43"><rect x="0" y="0" width="105" height="70"/></clipPath><clipPath id="clip44"><path d="M653 464 653 601 875 601 875 464ZM1.90735e-05 1.07288e-05 1280 1.07288e-05 1280 720 1.90735e-05 720Z" fill-rule="evenodd" clip-rule="evenodd"/></clipPath><clipPath id="clip45"><rect x="-2" y="-2" width="242" height="157"/></clipPath><clipPath id="clip46"><rect x="0" y="0" width="240" height="155"/></clipPath><clipPath id="clip47"><rect x="17" y="9" width="171" height="41"/></clipPath><clipPath id="clip48"><rect x="0" y="0" width="202" height="70"/></clipPath><clipPath id="clip49"><path d="M950 220 950 357 1172 357 1172 220ZM1.90735e-05 1.07288e-05 1280 1.07288e-05 1280 720 1.90735e-05 720Z" fill-rule="evenodd" clip-rule="evenodd"/></clipPath><clipPath id="clip50"><rect x="-2" y="-2" width="242" height="157"/></clipPath><clipPath id="clip51"><rect x="0" y="0" width="240" height="155"/></clipPath><clipPath id="clip52"><rect x="17" y="9" width="89" height="35"/></clipPath><clipPath id="clip53"><rect x="0" y="0" width="126" height="70"/></clipPath><clipPath id="clip54"><path d="M30 563 30 699 251 699 251 563ZM1.90735e-05 1.07288e-05 1280 1.07288e-05 1280 720 1.90735e-05 720Z" fill-rule="evenodd" clip-rule="evenodd"/></clipPath><clipPath id="clip55"><rect x="-2" y="-2" width="242" height="157"/></clipPath><clipPath id="clip56"><rect x="0" y="0" width="239" height="154"/></clipPath><clipPath id="clip57"><rect x="17" y="9" width="194" height="41"/></clipPath><clipPath id="clip58"><rect x="0" y="0" width="225" height="70"/></clipPath><clipPath id="clip59"><path d="M343 563 343 699 564 699 564 563ZM1.90735e-05 1.07288e-05 1280 1.07288e-05 1280 720 1.90735e-05 720Z" fill-rule="evenodd" clip-rule="evenodd"/></clipPath><clipPath id="clip60"><rect x="-2" y="-2" width="242" height="157"/></clipPath><clipPath id="clip61"><rect x="0" y="0" width="239" height="154"/></clipPath><clipPath id="clip62"><rect x="17" y="9" width="72" height="41"/></clipPath><clipPath id="clip63"><rect x="0" y="0" width="105" height="70"/></clipPath></defs><g clip-path="url(#clip18)"><rect x="0" y="0" width="1280" height="720" fill="#FFFFFF"/><g clip-path="url(#clip19)"><g clip-path="url(#clip20)" filter="url(#fx0)" transform="translate(21 11)"><g clip-path="url(#clip21)"><rect x="8.82843" y="8.82843" width="222" height="136" stroke="#000000" stroke-width="4" stroke-miterlimit="8" fill="#F2F2F2"/></g></g><g clip-path="url(#clip22)" filter="url(#fx1)" transform="translate(29 73)"><g clip-path="url(#clip23)"><path d="M12.42-8.04558 17.793 0 14.6197 0 9.51666-7.695 4.617-7.695 4.617 0 1.755 0 1.755-19.413 10.341-19.413C12.5317-19.413 14.2493-18.8991 15.494-17.8713 16.7387-16.8434 17.361-15.4403 17.361-13.662 17.361-12.1899 16.9069-10.9524 15.9986-9.9495 15.0903-8.94656 13.8974-8.31192 12.42-8.04558ZM14.472-13.608C14.472-14.616 14.1089-15.408 13.3827-15.984 12.6565-16.56 11.6246-16.848 10.287-16.848L4.617-16.848 4.617-10.233 10.098-10.233C11.4528-10.233 12.5205-10.5394 13.3011-11.1523 14.0817-11.7651 14.472-12.5837 14.472-13.608ZM30.676 0 28.003 0 28.003-2.133C27.7808-1.41469 27.2043-0.834609 26.2735-0.392766 25.3427 0.0490781 24.3442 0.27 23.278 0.27 21.7713 0.27 20.5397-0.117422 19.583-0.892266 18.6263-1.66711 18.148-2.69269 18.148-3.969 18.148-5.36428 18.6821-6.4196 19.7503-7.13496 20.8185-7.85032 22.3724-8.208 24.412-8.208L27.976-8.208C27.9588-9.19659 27.6646-9.99724 27.0932-10.6099 26.5219-11.2226 25.7001-11.529 24.628-11.529 23.9817-11.529 23.3417-11.392 22.708-11.1179 22.0744-10.8438 21.3717-10.3958 20.5999-9.774L19.201-11.5151C20.0287-12.3602 20.9097-12.9743 21.844-13.3574 22.7784-13.7405 23.7783-13.932 24.844-13.932 26.6713-13.932 28.1001-13.3885 29.1305-12.3015 30.1608-11.2144 30.676-9.73294 30.676-7.857ZM27.976-5.994 24.439-5.994C23.1728-5.994 22.2578-5.83291 21.6939-5.51074 21.13-5.18857 20.848-4.69266 20.848-4.023 20.848-3.44616 21.0937-2.96445 21.585-2.57787 22.0764-2.19129 22.7217-1.998 23.521-1.998 24.7416-1.998 25.7721-2.39266 26.6123-3.18199 27.4525-3.97132 27.9071-4.90866 27.976-5.994ZM32.431-13.554 35.131-13.554 35.131-11.556C35.3445-12.2524 35.8722-12.8135 36.7141-13.2393 37.556-13.6651 38.4953-13.878 39.532-13.878 41.3466-13.878 42.7633-13.2931 43.782-12.1234 44.8007-10.9537 45.31-9.36956 45.31-7.371L45.31 0 42.583 0 42.583-7.236C42.583-8.53537 42.2692-9.55322 41.6416-10.2895 41.014-11.0258 40.1398-11.394 39.019-11.394 37.8563-11.394 36.9221-10.9992 36.2165-10.2096 35.5108-9.41998 35.158-8.38378 35.158-7.101L35.158 0 32.431 0ZM57.7357-19.413 60.4897-19.413 60.4897 0 57.7627 0 57.7627-2.106C57.4637-1.38488 56.8781-0.808594 56.0058-0.377156 55.1335 0.0542812 54.1981 0.27 53.1997 0.27 51.3043 0.27 49.7145-0.390867 48.4302-1.7126 47.1458-3.03434 46.5037-4.71347 46.5037-6.75 46.5037-8.78934 47.1631-10.4872 48.4821-11.8435 49.801-13.1998 51.4275-13.878 53.3617-13.878 54.3019-13.878 55.1909-13.6851 56.0288-13.2992 56.8666-12.9133 57.4356-12.4042 57.7357-11.772ZM53.4427-2.16C54.6745-2.16 55.7115-2.60655 56.5536-3.49966 57.3956-4.39277 57.8167-5.50322 57.8167-6.831 57.8167-8.16216 57.4098-9.25994 56.5962-10.1244 55.7825-10.9888 54.7674-11.421 53.5507-11.421 52.2952-11.421 51.2703-10.9985 50.476-10.1535 49.6818-9.30846 49.2847-8.19197 49.2847-6.804 49.2847-5.40281 49.6745-4.27852 50.4541-3.43111 51.2337-2.5837 52.2299-2.16 53.4427-2.16ZM75.7913-6.777C75.7913-4.73934 75.1084-3.03293 73.7425-1.65776 72.3766-0.282586 70.6926 0.405 68.6903 0.405 66.6873 0.405 65.0165-0.278297 63.678-1.64489 62.3396-3.01148 61.6703-4.71319 61.6703-6.75 61.6703-8.775 62.3519-10.4738 63.7152-11.8463 65.0784-13.2188 66.7638-13.905 68.7713-13.905 70.7744-13.905 72.4452-13.2217 73.7836-11.8551 75.1221-10.4885 75.7913-8.79581 75.7913-6.777ZM64.4513-6.75C64.4513-5.40253 64.8637-4.27816 65.6885-3.3769 66.5133-2.47563 67.5319-2.025 68.7443-2.025 69.936-2.025 70.9449-2.47641 71.7711-3.37922 72.5973-4.28203 73.0103-5.41463 73.0103-6.777 73.0103-8.08847 72.5935-9.19934 71.7597-10.1096 70.9259-11.0199 69.9118-11.475 68.7173-11.475 67.5201-11.475 66.5097-11.0251 65.6864-10.1252 64.863-9.22535 64.4513-8.10028 64.4513-6.75ZM77.0977-13.554 79.7977-13.554 79.7977-12.015C79.9782-12.5871 80.3987-13.0406 81.0591-13.3755 81.7195-13.7105 82.46-13.878 83.2807-13.878 84.2274-13.878 85.0734-13.6773 85.8189-13.2758 86.5643-12.8743 87.0825-12.346 87.3733-11.691 87.7178-12.3503 88.2847-12.8796 89.0739-13.2789 89.8631-13.6783 90.749-13.878 91.7317-13.878 93.3449-13.878 94.6302-13.3566 95.5876-12.3139 96.545-11.2712 97.0237-9.92953 97.0237-8.289L97.0237 0 94.2697 0 94.2697-8.154C94.2697-9.18197 94.0195-9.97896 93.5192-10.545 93.0188-11.111 92.315-11.394 91.4077-11.394 90.515-11.394 89.7923-11.0846 89.2397-10.4659 88.687-9.84713 88.4107-9.0315 88.4107-8.019L88.4107 0 85.6837 0 85.6837-8.154C85.6837-9.18197 85.4335-9.97896 84.9332-10.545 84.4328-11.111 83.729-11.394 82.8217-11.394 81.929-11.394 81.2063-11.0846 80.6537-10.4659 80.101-9.84713 79.8247-9.0315 79.8247-8.019L79.8247 0 77.0977 0ZM116.089-5.589C116.089-6.58097 115.692-7.31081 114.899-7.77853 114.105-8.24625 112.779-8.50669 110.921-8.55984 108.295-8.68781 106.376-9.16376 105.164-9.98768 103.951-10.8116 103.345-12.0904 103.345-13.824 103.345-15.5168 104.062-16.9346 105.495-18.0771 106.928-19.2197 108.722-19.791 110.878-19.791 112.443-19.791 113.858-19.5213 115.123-18.9818 116.388-18.4424 117.52-17.5725 118.519-16.3721L116.785-14.58C115.924-15.4558 114.998-16.1113 114.006-16.5464 113.014-16.9815 111.971-17.199 110.878-17.199 109.499-17.199 108.371-16.8872 107.495-16.2637 106.618-15.6402 106.18-14.8899 106.18-14.013 106.18-13.0764 106.568-12.3958 107.342-11.9711 108.116-11.5464 109.415-11.3078 111.238-11.2552 113.871-11.1447 115.811-10.6507 117.056-9.77337 118.302-8.89601 118.924-7.56422 118.924-5.778 118.924-3.99769 118.184-2.52661 116.704-1.36477 115.223-0.202922 113.344 0.378 111.067 0.378 109.226 0.378 107.635 0.0822656 106.295-0.509203 104.955-1.10067 103.747-2.10164 102.67-3.51211L104.377-5.319C105.405-4.20497 106.441-3.40896 107.484-2.93098 108.527-2.45299 109.721-2.214 111.067-2.214 112.555-2.214 113.763-2.53962 114.694-3.19085 115.624-3.84209 116.089-4.64147 116.089-5.589ZM123.158 4.86 120.431 4.86 120.431-13.554 123.131-13.554 123.131-11.475C123.405-12.1747 123.984-12.7457 124.868-13.1878 125.752-13.6299 126.694-13.851 127.694-13.851 129.61-13.851 131.206-13.1907 132.479-11.8701 133.753-10.5495 134.39-8.86978 134.39-6.831 134.39-4.76072 133.729-3.05515 132.407-1.71429 131.085-0.37343 129.46 0.297 127.532 0.297 126.605 0.297 125.716 0.105047 124.864-0.278859 124.012-0.662766 123.443-1.18181 123.158-1.836ZM127.451-11.394C126.213-11.394 125.175-10.949 124.336-10.059 123.497-9.16896 123.077-8.05697 123.077-6.723 123.077-5.39522 123.489-4.29827 124.312-3.43216 125.136-2.56605 126.155-2.133 127.37-2.133 128.62-2.133 129.639-2.55255 130.427-3.39166 131.215-4.23077 131.609-5.35922 131.609-6.777 131.609-8.16075 131.224-9.27619 130.453-10.1233 129.682-10.9704 128.681-11.394 127.451-11.394ZM135.733-17.928 138.703-17.928 138.703-15.012 135.733-15.012ZM135.841 0 135.841-13.554 138.595-13.554 138.595 0ZM140.931-19.413 143.658-19.413 143.658-8.046 149.38-13.554 152.676-13.554 152.676-13.1321 145.683-7.08033 152.703-0.417234 152.703 0 149.404 0 143.658-6.048 143.658 0 140.931 0ZM159.825-1.971C160.643-1.971 161.397-2.14594 162.088-2.49581 162.779-2.84569 163.481-3.42675 164.195-4.239L165.819-2.77552C165.016-1.64433 164.1-0.831445 163.074-0.336867 162.047 0.157711 160.901 0.405 159.636 0.405 157.597 0.405 155.926-0.264938 154.624-1.60481 153.322-2.94469 152.67-4.65975 152.67-6.75 152.67-8.77134 153.334-10.4647 154.662-11.83 155.99-13.1953 157.63-13.878 159.582-13.878 161.571-13.878 163.185-13.2311 164.422-11.9374 165.66-10.6436 166.278-8.9685 166.278-6.912 166.278-6.87375 166.273-6.76364 166.261-6.58167 166.25-6.3997 166.216-6.11381 166.161-5.724L155.478-5.724C155.613-4.69941 156.084-3.81776 156.89-3.07905 157.697-2.34035 158.675-1.971 159.825-1.971ZM159.609-11.502C158.547-11.502 157.635-11.1549 156.873-10.4608 156.111-9.76669 155.646-8.92575 155.478-7.938L163.524-7.938C163.37-8.94741 162.939-9.79376 162.231-10.4771 161.522-11.1604 160.648-11.502 159.609-11.502ZM178.641-4.077C178.641-2.76103 178.089-1.69404 176.986-0.876023 175.882-0.0580078 174.463 0.351 172.728 0.351 171.591 0.351 170.527 0.170508 169.537-0.190477 168.547-0.551461 167.621-1.14595 166.761-1.97395L168.105-3.969C169.073-3.23887 169.901-2.72784 170.588-2.43591 171.275-2.14397 172.006-1.998 172.782-1.998 173.767-1.998 174.549-2.18123 175.127-2.5477 175.706-2.91417 175.995-3.37894 175.995-3.942 175.995-4.49888 175.757-4.9083 175.28-5.17029 174.804-5.43227 173.967-5.57184 172.769-5.589 170.893-5.66325 169.508-6.01755 168.614-6.65191 167.72-7.28627 167.274-8.28197 167.274-9.639 167.274-10.8638 167.783-11.8811 168.802-12.6906 169.821-13.5002 171.121-13.905 172.701-13.905 173.758-13.905 174.752-13.7372 175.684-13.4017 176.616-13.0662 177.493-12.5266 178.317-11.783L177.056-9.828C176.184-10.4434 175.419-10.8807 174.762-11.14 174.105-11.3993 173.409-11.529 172.674-11.529 171.848-11.529 171.183-11.3525 170.678-10.9995 170.172-10.6466 169.92-10.2291 169.92-9.747 169.92-9.20306 170.141-8.80488 170.582-8.55246 171.024-8.30004 171.774-8.14781 172.832-8.09578 174.842-8.04037 176.312-7.6957 177.243-7.06177 178.175-6.42783 178.641-5.43291 178.641-4.077Z" transform="translate(22.6998 37)"/></g></g></g><rect x="27" y="17" width="222" height="136" stroke="#000000" stroke-width="4" stroke-miterlimit="8" fill="#F2F2F2"/><text font-family="IntelOne Display AR Regular,IntelOne Display AR Regular_MSFontService,sans-serif" font-weight="700" font-size="27" transform="translate(48.8714 107)">Random Spikes</text><rect x="236" y="81" width="23" height="23" fill="#7030A0"/><rect x="27.5001" y="16.5001" width="222" height="33" stroke="#000000" stroke-width="3" stroke-miterlimit="8" fill="#595959"/><text fill="#FFFFFF" font-family="IntelOne Display AR Regular,IntelOne Display AR Regular_MSFontService,sans-serif" font-weight="700" font-size="21" transform="translate(104.241 39)">SpikeIn</text><path d="M258.513 91.0001 323.761 91.5455 323.736 94.5454 258.488 94ZM322.286 88.5331 331.248 93.1081 322.211 97.5328Z" fill="#00B050"/><g clip-path="url(#clip24)"><g clip-path="url(#clip25)" filter="url(#fx2)" transform="translate(334 11)"><g clip-path="url(#clip26)"><rect x="8.82843" y="8.82843" width="222" height="136" stroke="#000000" stroke-width="4" stroke-miterlimit="8" fill="#F2F2F2"/></g></g><g clip-path="url(#clip27)" filter="url(#fx3)" transform="translate(402 73)"><g clip-path="url(#clip28)"><path d="M1.944 0 1.944-19.413 4.806-19.413 4.806 0ZM7.431-13.554 10.131-13.554 10.131-11.556C10.3445-12.2524 10.8722-12.8135 11.7141-13.2393 12.556-13.6651 13.4953-13.878 14.532-13.878 16.3466-13.878 17.7633-13.2931 18.782-12.1234 19.8007-10.9537 20.31-9.36956 20.31-7.371L20.31 0 17.583 0 17.583-7.236C17.583-8.53537 17.2692-9.55322 16.6416-10.2895 16.014-11.0258 15.1398-11.394 14.019-11.394 12.8563-11.394 11.9221-10.9992 11.2165-10.2096 10.5108-9.41998 10.158-8.38378 10.158-7.101L10.158 0 7.431 0ZM24.8247 4.86 22.0977 4.86 22.0977-13.554 24.7977-13.554 24.7977-11.475C25.0713-12.1747 25.6502-12.7457 26.5343-13.1878 27.4184-13.6299 28.3605-13.851 29.3607-13.851 31.2771-13.851 32.8722-13.1907 34.146-11.8701 35.4198-10.5495 36.0567-8.86978 36.0567-6.831 36.0567-4.76072 35.3957-3.05515 34.0736-1.71429 32.7516-0.37343 31.1266 0.297 29.1987 0.297 28.2719 0.297 27.3826 0.105047 26.5305-0.278859 25.6785-0.662766 25.1099-1.18181 24.8247-1.836ZM29.1177-11.394C27.8799-11.394 26.8414-10.949 26.0023-10.059 25.1632-9.16896 24.7437-8.05697 24.7437-6.723 24.7437-5.39522 25.1555-4.29827 25.9791-3.43216 26.8028-2.56605 27.8219-2.133 29.0367-2.133 30.2865-2.133 31.3055-2.55255 32.0936-3.39166 32.8816-4.23077 33.2757-5.35922 33.2757-6.777 33.2757-8.16075 32.8902-9.27619 32.1193-10.1233 31.3484-10.9704 30.3479-11.394 29.1177-11.394ZM50.0083 0 47.2813 0 47.2813-1.998C47.0583-1.27856 46.5322-0.716203 45.7029-0.310922 44.8736 0.0943594 43.9328 0.297 42.8803 0.297 41.0846 0.297 39.6726-0.287789 38.6445-1.45737 37.6164-2.62695 37.1023-4.21116 37.1023-6.21L37.1023-13.554 39.8563-13.554 39.8563-6.345C39.8563-5.02791 40.1702-4.00113 40.798-3.26468 41.4257-2.52823 42.2998-2.16 43.4203-2.16 44.5591-2.16 45.4828-2.55649 46.1914-3.34948 46.9-4.14246 47.2543-5.18597 47.2543-6.48L47.2543-13.554 50.0083-13.554ZM52.66-3.753 52.66-11.097 50.878-11.097 50.878-13.554 52.66-13.554 52.66-17.55 55.387-17.55 55.387-13.554 58.411-13.554 58.411-11.097 55.387-11.097 55.387-3.942C55.387-3.42084 55.4924-3.04755 55.7032-2.82213 55.914-2.59671 56.2496-2.484 56.71-2.484L58.411-2.484 58.411 0 56.386 0C55.1032 0 54.1615-0.305227 53.5609-0.91568 52.9603-1.52613 52.66-2.47191 52.66-3.753Z" transform="translate(22.7087 37)"/></g></g></g><rect x="340" y="17" width="222" height="136" stroke="#000000" stroke-width="4" stroke-miterlimit="8" fill="#F2F2F2"/><text font-family="IntelOne Display AR Regular,IntelOne Display AR Regular_MSFontService,sans-serif" font-weight="700" font-size="27" transform="translate(421.88 107)">Input</text><rect x="551" y="82" width="20" height="21" fill="#7030A0"/><rect x="340.5" y="16.5001" width="222" height="33" stroke="#000000" stroke-width="3" stroke-miterlimit="8" fill="#595959"/><text fill="#FFFFFF" font-family="IntelOne Display AR Regular,IntelOne Display AR Regular_MSFontService,sans-serif" font-weight="700" font-size="21" transform="translate(421.5 39)">Dense</text><path d="M571.513 91.0001 636.761 91.5455 636.736 94.5454 571.488 94ZM635.286 88.5331 644.248 93.1081 635.211 97.5328Z" fill="#00B050"/><rect x="330" y="82" width="23" height="20" fill="#00B050"/><g clip-path="url(#clip29)"><g clip-path="url(#clip30)" filter="url(#fx4)" transform="translate(647 11)"><g clip-path="url(#clip31)"><rect x="8.82843" y="8.82843" width="222" height="136" stroke="#000000" stroke-width="4" stroke-miterlimit="8" fill="#F2F2F2"/></g></g><g clip-path="url(#clip32)" filter="url(#fx5)" transform="translate(672 73)"><g clip-path="url(#clip33)"><path d="M1.755 0 1.755-19.413 10.233-19.413C12.3713-19.413 14.0669-18.8714 15.3198-17.7881 16.5726-16.7049 17.199-15.2485 17.199-13.419 17.199-11.5521 16.5222-10.0593 15.1687-8.9408 13.8152-7.82227 12.026-7.263 9.801-7.263L4.617-7.263 4.617 0ZM14.283-13.365C14.283-14.4318 13.9238-15.27 13.2055-15.8796 12.4872-16.4892 11.4694-16.794 10.152-16.794L4.617-16.794 4.617-9.855 9.963-9.855C11.2984-9.855 12.3522-10.1699 13.1245-10.7996 13.8968-11.4293 14.283-12.2844 14.283-13.365ZM18.0977-13.554 20.7977-13.554 20.7977-11.934C20.8868-12.4535 21.2675-12.8668 21.9397-13.1741 22.6119-13.4814 23.4012-13.635 24.3077-13.635L25.7657-13.635 25.7657-11.043 24.2807-11.043C23.1169-11.043 22.2499-10.7456 21.6798-10.1507 21.1097-9.55589 20.8247-8.63831 20.8247-7.398L20.8247 0 18.0977 0ZM33.3253-1.971C34.1426-1.971 34.8968-2.14594 35.5879-2.49581 36.2789-2.84569 36.9813-3.42675 37.6951-4.239L39.3193-2.77552C38.5155-1.64433 37.6003-0.831445 36.5736-0.336867 35.5469 0.157711 34.4011 0.405 33.1363 0.405 31.097 0.405 29.4262-0.264938 28.1238-1.60481 26.8215-2.94469 26.1703-4.65975 26.1703-6.75 26.1703-8.77134 26.8343-10.4647 28.1622-11.83 29.4901-13.1953 31.1302-13.878 33.0823-13.878 35.0713-13.878 36.6846-13.2311 37.9221-11.9374 39.1596-10.6436 39.7783-8.9685 39.7783-6.912 39.7783-6.87375 39.7726-6.76364 39.7612-6.58167 39.7499-6.3997 39.7163-6.11381 39.6606-5.724L28.9783-5.724C29.1131-4.69941 29.5837-3.81776 30.3904-3.07905 31.197-2.34035 32.1753-1.971 33.3253-1.971ZM33.1093-11.502C32.0468-11.502 31.1346-11.1549 30.3728-10.4608 29.6111-9.76669 29.1462-8.92575 28.9783-7.938L37.0243-7.938C36.8705-8.94741 36.4393-9.79376 35.7307-10.4771 35.022-11.1604 34.1483-11.502 33.1093-11.502Z" transform="translate(22.8571 37)"/><path d="M0.756-6.723 0.756-9.342 8.343-9.342 8.343-6.723Z" transform="translate(62.5237 37)"/><path d="M12.474-4.077C12.474-2.76103 11.9223-1.69404 10.819-0.876023 9.71564-0.0580078 8.29631 0.351 6.561 0.351 5.42419 0.351 4.36064 0.170508 3.37036-0.190477 2.38008-0.551461 1.45462-1.14595 0.594-1.97395L1.93809-3.969C2.90644-3.23887 3.73409-2.72784 4.42104-2.43591 5.10799-2.14397 5.83931-1.998 6.615-1.998 7.6005-1.998 8.38237-2.18123 8.96063-2.5477 9.53887-2.91417 9.828-3.37894 9.828-3.942 9.828-4.49888 9.58985-4.9083 9.11355-5.17029 8.63726-5.43227 7.80019-5.57184 6.60234-5.589 4.72612-5.66325 3.34118-6.01755 2.44751-6.65191 1.55384-7.28627 1.107-8.28197 1.107-9.639 1.107-10.8638 1.61648-11.8811 2.63545-12.6906 3.65442-13.5002 4.95394-13.905 6.534-13.905 7.59094-13.905 8.58537-13.7372 9.51729-13.4017 10.4492-13.0662 11.3268-12.5266 12.15-11.783L10.889-9.828C10.0169-10.4434 9.25221-10.8807 8.59507-11.14 7.93793-11.3993 7.24191-11.529 6.507-11.529 5.68181-11.529 5.01652-11.3525 4.51111-10.9995 4.0057-10.6466 3.753-10.2291 3.753-9.747 3.753-9.20306 3.97392-8.80488 4.41577-8.55246 4.85761-8.30004 5.60756-8.14781 6.66563-8.09578 8.67488-8.04037 10.1453-7.6957 11.0768-7.06177 12.0082-6.42783 12.474-5.43291 12.474-4.077ZM18.1923-0.375469 12.6843-13.554 15.5446-13.554 19.5672-3.213 23.5898-13.554 26.3463-13.554 18.6644 4.86 15.9513 4.86ZM27.0977-13.554 29.7977-13.554 29.7977-11.556C30.0111-12.2524 30.5388-12.8135 31.3808-13.2393 32.2227-13.6651 33.162-13.878 34.1987-13.878 36.0133-13.878 37.4299-13.2931 38.4486-12.1234 39.4673-10.9537 39.9767-9.36956 39.9767-7.371L39.9767 0 37.2497 0 37.2497-7.236C37.2497-8.53537 36.9359-9.55322 36.3083-10.2895 35.6806-11.0258 34.8064-11.394 33.6857-11.394 32.523-11.394 31.5888-10.9992 30.8832-10.2096 30.1775-9.41998 29.8247-8.38378 29.8247-7.101L29.8247 0 27.0977 0ZM53.5093 0 50.8363 0 50.8363-2.133C50.6141-1.41469 50.0377-0.834609 49.1069-0.392766 48.1761 0.0490781 47.1776 0.27 46.1113 0.27 44.6047 0.27 43.373-0.117422 42.4163-0.892266 41.4597-1.66711 40.9813-2.69269 40.9813-3.969 40.9813-5.36428 41.5154-6.4196 42.5836-7.13496 43.6518-7.85032 45.2057-8.208 47.2453-8.208L50.8093-8.208C50.7922-9.19659 50.4979-9.99724 49.9266-10.6099 49.3552-11.2226 48.5335-11.529 47.4613-11.529 46.815-11.529 46.175-11.392 45.5414-11.1179 44.9077-10.8438 44.205-10.3958 43.4333-9.774L42.0343-11.5151C42.8621-12.3602 43.7431-12.9743 44.6774-13.3574 45.6117-13.7405 46.6117-13.932 47.6773-13.932 49.5046-13.932 50.9334-13.3885 51.9638-12.3015 52.9942-11.2144 53.5093-9.73294 53.5093-7.857ZM50.8093-5.994 47.2723-5.994C46.0061-5.994 45.0911-5.83291 44.5272-5.51074 43.9633-5.18857 43.6813-4.69266 43.6813-4.023 43.6813-3.44616 43.927-2.96445 44.4184-2.57787 44.9097-2.19129 45.555-1.998 46.3543-1.998 47.575-1.998 48.6054-2.39266 49.4456-3.18199 50.2859-3.97132 50.7404-4.90866 50.8093-5.994ZM57.9913 4.86 55.2643 4.86 55.2643-13.554 57.9643-13.554 57.9643-11.475C58.238-12.1747 58.8169-12.7457 59.701-13.1878 60.5851-13.6299 61.5272-13.851 62.5273-13.851 64.4438-13.851 66.0389-13.1907 67.3127-11.8701 68.5864-10.5495 69.2233-8.86978 69.2233-6.831 69.2233-4.76072 68.5623-3.05515 67.2403-1.71429 65.9183-0.37343 64.2933 0.297 62.3653 0.297 61.4386 0.297 60.5492 0.105047 59.6972-0.278859 58.8451-0.662766 58.2765-1.18181 57.9913-1.836ZM62.2843-11.394C61.0466-11.394 60.0081-10.949 59.169-10.059 58.3299-9.16896 57.9103-8.05697 57.9103-6.723 57.9103-5.39522 58.3222-4.29827 59.1458-3.43216 59.9694-2.56605 60.9886-2.133 62.2033-2.133 63.4532-2.133 64.4722-2.55255 65.2602-3.39166 66.0483-4.23077 66.4423-5.35922 66.4423-6.777 66.4423-8.16075 66.0569-9.27619 65.286-10.1233 64.5151-10.9704 63.5145-11.394 62.2843-11.394ZM71.16-3.753 71.16-11.097 69.378-11.097 69.378-13.554 71.16-13.554 71.16-17.55 73.887-17.55 73.887-13.554 76.911-13.554 76.911-11.097 73.887-11.097 73.887-3.942C73.887-3.42084 73.9924-3.04755 74.2032-2.82213 74.414-2.59671 74.7496-2.484 75.21-2.484L76.911-2.484 76.911 0 74.886 0C73.6032 0 72.6615-0.305227 72.0609-0.91568 71.4603-1.52613 71.16-2.47191 71.16-3.753ZM78.566-17.928 81.536-17.928 81.536-15.012 78.566-15.012ZM78.674 0 78.674-13.554 81.428-13.554 81.428 0ZM90.1903 0.405C88.1156 0.405 86.4269-0.255656 85.1243-1.57697 83.8216-2.89828 83.1703-4.62262 83.1703-6.75 83.1703-8.75419 83.8525-10.4477 85.2169-11.8306 86.5812-13.2135 88.257-13.905 90.2443-13.905 91.6832-13.905 92.9175-13.5697 93.9471-12.899 94.9768-12.2284 95.7585-11.1957 96.2923-9.801L94.0252-8.775C93.5555-9.73406 93.0137-10.4238 92.3999-10.8443 91.7861-11.2648 91.0586-11.475 90.2173-11.475 89.0181-11.475 88.0073-11.0214 87.1849-10.1142 86.3625-9.20707 85.9513-8.08566 85.9513-6.75 85.9513-5.38509 86.3636-4.25637 87.1881-3.36382 88.0125-2.47127 89.0403-2.025 90.2713-2.025 91.0591-2.025 91.7965-2.24121 92.4834-2.67363 93.1704-3.10605 93.7715-3.77184 94.2867-4.671L96.3733-3.57961C95.8094-2.27264 94.984-1.2818 93.8969-0.607078 92.8099 0.0676406 91.5744 0.405 90.1903 0.405Z" transform="translate(70.8571 37)"/></g></g></g><rect x="653" y="17" width="222" height="136" stroke="#000000" stroke-width="4" stroke-miterlimit="8" fill="#F2F2F2"/><text font-family="IntelOne Display AR Regular,IntelOne Display AR Regular_MSFontService,sans-serif" font-weight="700" font-size="27" transform="translate(692.029 107)">Pre<tspan font-size="27" x="39.6666" y="0">-</tspan><tspan font-size="27" x="48" y="0">synaptic</tspan></text><rect x="863" y="82" width="21" height="21" fill="#7030A0"/><rect x="653.5" y="16.5001" width="222" height="33" stroke="#000000" stroke-width="3" stroke-miterlimit="8" fill="#595959"/><text fill="#FFFFFF" font-family="IntelOne Display AR Regular,IntelOne Display AR Regular_MSFontService,sans-serif" font-weight="700" font-size="21" transform="translate(749.481 39)">LIF</text><rect x="643" y="82" width="23" height="20" fill="#00B050"/><g clip-path="url(#clip34)"><g clip-path="url(#clip35)" filter="url(#fx6)" transform="translate(24 327)"><g clip-path="url(#clip36)"><rect x="8.82843" y="8.82843" width="221" height="136" stroke="#000000" stroke-width="4" stroke-miterlimit="8" fill="#F2F2F2"/></g></g><g clip-path="url(#clip37)" filter="url(#fx7)" transform="translate(30 373)"><g clip-path="url(#clip38)"><path d="M12.42-8.04558 17.793 0 14.6197 0 9.51666-7.695 4.617-7.695 4.617 0 1.755 0 1.755-19.413 10.341-19.413C12.5317-19.413 14.2493-18.8991 15.494-17.8713 16.7387-16.8434 17.361-15.4403 17.361-13.662 17.361-12.1899 16.9069-10.9524 15.9986-9.9495 15.0903-8.94656 13.8974-8.31192 12.42-8.04558ZM14.472-13.608C14.472-14.616 14.1089-15.408 13.3827-15.984 12.6565-16.56 11.6246-16.848 10.287-16.848L4.617-16.848 4.617-10.233 10.098-10.233C11.4528-10.233 12.5205-10.5394 13.3011-11.1523 14.0817-11.7651 14.472-12.5837 14.472-13.608ZM25.492-1.971C26.3093-1.971 27.0635-2.14594 27.7545-2.49581 28.4455-2.84569 29.148-3.42675 29.8618-4.239L31.486-2.77552C30.6822-1.64433 29.7669-0.831445 28.7402-0.336867 27.7135 0.157711 26.5678 0.405 25.303 0.405 23.2637 0.405 21.5928-0.264938 20.2905-1.60481 18.9882-2.94469 18.337-4.65975 18.337-6.75 18.337-8.77134 19.001-10.4647 20.3289-11.83 21.6568-13.1953 23.2968-13.878 25.249-13.878 27.238-13.878 28.8512-13.2311 30.0887-11.9374 31.3262-10.6436 31.945-8.9685 31.945-6.912 31.945-6.87375 31.9393-6.76364 31.9279-6.58167 31.9165-6.3997 31.883-6.11381 31.8273-5.724L21.145-5.724C21.2797-4.69941 21.7504-3.81776 22.557-3.07905 23.3636-2.34035 24.342-1.971 25.492-1.971ZM25.276-11.502C24.2134-11.502 23.3013-11.1549 22.5395-10.4608 21.7777-9.76669 21.3129-8.92575 21.145-7.938L29.191-7.938C29.0372-8.94741 28.6059-9.79376 27.8973-10.4771 27.1887-11.1604 26.3149-11.502 25.276-11.502ZM51.2193-13.554 47.8659 0 45.3295 0 41.8761-10.017 38.4483 0 35.9386 0 32.5893-13.554 35.2906-13.554 37.4472-3.618 40.7328-13.554 43.0721-13.554 46.3323-3.618 48.5143-13.554ZM64.0093 0 61.3363 0 61.3363-2.133C61.1141-1.41469 60.5377-0.834609 59.6069-0.392766 58.6761 0.0490781 57.6776 0.27 56.6113 0.27 55.1047 0.27 53.873-0.117422 52.9163-0.892266 51.9597-1.66711 51.4813-2.69269 51.4813-3.969 51.4813-5.36428 52.0154-6.4196 53.0836-7.13496 54.1518-7.85032 55.7057-8.208 57.7453-8.208L61.3093-8.208C61.2922-9.19659 60.9979-9.99724 60.4266-10.6099 59.8552-11.2226 59.0335-11.529 57.9613-11.529 57.315-11.529 56.675-11.392 56.0414-11.1179 55.4077-10.8438 54.705-10.3958 53.9333-9.774L52.5343-11.5151C53.3621-12.3602 54.2431-12.9743 55.1774-13.3574 56.1117-13.7405 57.1117-13.932 58.1773-13.932 60.0046-13.932 61.4334-13.3885 62.4638-12.3015 63.4942-11.2144 64.0093-9.73294 64.0093-7.857ZM61.3093-5.994 57.7723-5.994C56.5061-5.994 55.5911-5.83291 55.0272-5.51074 54.4633-5.18857 54.1813-4.69266 54.1813-4.023 54.1813-3.44616 54.427-2.96445 54.9184-2.57787 55.4097-2.19129 56.055-1.998 56.8543-1.998 58.075-1.998 59.1054-2.39266 59.9456-3.18199 60.7859-3.97132 61.2404-4.90866 61.3093-5.994ZM65.7643-13.554 68.4643-13.554 68.4643-11.934C68.5535-12.4535 68.9342-12.8668 69.6064-13.1741 70.2785-13.4814 71.0679-13.635 71.9743-13.635L73.4323-13.635 73.4323-11.043 71.9473-11.043C70.7835-11.043 69.9166-10.7456 69.3465-10.1507 68.7764-9.55589 68.4913-8.63831 68.4913-7.398L68.4913 0 65.7643 0ZM85.069-19.413 87.823-19.413 87.823 0 85.096 0 85.096-2.106C84.797-1.38488 84.2114-0.808594 83.3391-0.377156 82.4668 0.0542812 81.5314 0.27 80.533 0.27 78.6377 0.27 77.0478-0.390867 75.7635-1.7126 74.4792-3.03434 73.837-4.71347 73.837-6.75 73.837-8.78934 74.4965-10.4872 75.8154-11.8435 77.1343-13.1998 78.7608-13.878 80.695-13.878 81.6352-13.878 82.5242-13.6851 83.3621-13.2992 84.1999-12.9133 84.7689-12.4042 85.069-11.772ZM80.776-2.16C82.0079-2.16 83.0448-2.60655 83.8869-3.49966 84.729-4.39277 85.15-5.50322 85.15-6.831 85.15-8.16216 84.7432-9.25994 83.9295-10.1244 83.1159-10.9888 82.1007-11.421 80.884-11.421 79.6285-11.421 78.6036-10.9985 77.8094-10.1535 77.0151-9.30846 76.618-8.19197 76.618-6.804 76.618-5.40281 77.0078-4.27852 77.7874-3.43111 78.5671-2.5837 79.5632-2.16 80.776-2.16ZM104.178-17.253C102.111-17.253 100.384-16.5376 98.9961-15.1069 97.6087-13.6762 96.915-11.8896 96.915-9.747 96.915-7.55241 97.5918-5.73926 98.9453-4.30755 100.299-2.87585 101.971-2.16 103.962-2.16 105.847-2.16 107.377-2.69986 108.552-3.77958 109.726-4.8593 110.383-6.23644 110.523-7.911L103.314-7.911 103.314-10.422 113.197-10.422C113.228-10.1143 113.253-9.84354 113.273-9.60968 113.294-9.37582 113.304-9.17859 113.304-9.018 113.304-6.18806 112.436-3.90558 110.701-2.17055 108.966-0.435516 106.684 0.432 103.854 0.432 101.023 0.432 98.6723-0.530367 96.803-2.4551 94.9337-4.37984 93.999-6.79247 93.999-9.693 93.999-12.5826 94.9733-14.997 96.9218-16.9362 98.8702-18.8754 101.298-19.845 104.205-19.845 105.945-19.845 107.533-19.451 108.969-18.6631 110.406-17.8752 111.563-16.7032 112.44-15.147L110.368-13.716C109.534-14.9296 108.61-15.8225 107.595-16.3947 106.581-16.9669 105.442-17.253 104.178-17.253ZM114.598-13.554 117.298-13.554 117.298-11.934C117.387-12.4535 117.767-12.8668 118.44-13.1741 119.112-13.4814 119.901-13.635 120.808-13.635L122.266-13.635 122.266-11.043 120.781-11.043C119.617-11.043 118.75-10.7456 118.18-10.1507 117.61-9.55589 117.325-8.63831 117.325-7.398L117.325 0 114.598 0ZM135.009 0 132.336 0 132.336-2.133C132.114-1.41469 131.538-0.834609 130.607-0.392766 129.676 0.0490781 128.678 0.27 127.611 0.27 126.105 0.27 124.873-0.117422 123.916-0.892266 122.96-1.66711 122.481-2.69269 122.481-3.969 122.481-5.36428 123.015-6.4196 124.084-7.13496 125.152-7.85032 126.706-8.208 128.745-8.208L132.309-8.208C132.292-9.19659 131.998-9.99724 131.427-10.6099 130.855-11.2226 130.033-11.529 128.961-11.529 128.315-11.529 127.675-11.392 127.041-11.1179 126.408-10.8438 125.705-10.3958 124.933-9.774L123.534-11.5151C124.362-12.3602 125.243-12.9743 126.177-13.3574 127.112-13.7405 128.112-13.932 129.177-13.932 131.005-13.932 132.433-13.3885 133.464-12.3015 134.494-11.2144 135.009-9.73294 135.009-7.857ZM132.309-5.994 128.772-5.994C127.506-5.994 126.591-5.83291 126.027-5.51074 125.463-5.18857 125.181-4.69266 125.181-4.023 125.181-3.44616 125.427-2.96445 125.918-2.57787 126.41-2.19129 127.055-1.998 127.854-1.998 129.075-1.998 130.105-2.39266 130.946-3.18199 131.786-3.97132 132.24-4.90866 132.309-5.994ZM147.402-19.413 150.156-19.413 150.156 0 147.429 0 147.429-2.106C147.13-1.38488 146.545-0.808594 145.672-0.377156 144.8 0.0542812 143.865 0.27 142.866 0.27 140.971 0.27 139.381-0.390867 138.097-1.7126 136.812-3.03434 136.17-4.71347 136.17-6.75 136.17-8.78934 136.83-10.4872 138.149-11.8435 139.468-13.1998 141.094-13.878 143.028-13.878 143.969-13.878 144.858-13.6851 145.695-13.2992 146.533-12.9133 147.102-12.4042 147.402-11.772ZM143.109-2.16C144.341-2.16 145.378-2.60655 146.22-3.49966 147.062-4.39277 147.483-5.50322 147.483-6.831 147.483-8.16216 147.077-9.25994 146.263-10.1244 145.449-10.9888 144.434-11.421 143.217-11.421 141.962-11.421 140.937-10.9985 140.143-10.1535 139.348-9.30846 138.951-8.19197 138.951-6.804 138.951-5.40281 139.341-4.27852 140.121-3.43111 140.9-2.5837 141.897-2.16 143.109-2.16ZM158.492-1.971C159.309-1.971 160.064-2.14594 160.755-2.49581 161.446-2.84569 162.148-3.42675 162.862-4.239L164.486-2.77552C163.682-1.64433 162.767-0.831445 161.74-0.336867 160.714 0.157711 159.568 0.405 158.303 0.405 156.264 0.405 154.593-0.264938 153.291-1.60481 151.988-2.94469 151.337-4.65975 151.337-6.75 151.337-8.77134 152.001-10.4647 153.329-11.83 154.657-13.1953 156.297-13.878 158.249-13.878 160.238-13.878 161.851-13.2311 163.089-11.9374 164.326-10.6436 164.945-8.9685 164.945-6.912 164.945-6.87375 164.939-6.76364 164.928-6.58167 164.917-6.3997 164.883-6.11381 164.827-5.724L154.145-5.724C154.28-4.69941 154.75-3.81776 155.557-3.07905 156.364-2.34035 157.342-1.971 158.492-1.971ZM158.276-11.502C157.213-11.502 156.301-11.1549 155.54-10.4608 154.778-9.76669 154.313-8.92575 154.145-7.938L162.191-7.938C162.037-8.94741 161.606-9.79376 160.897-10.4771 160.189-11.1604 159.315-11.502 158.276-11.502ZM176.902-19.413 179.656-19.413 179.656 0 176.929 0 176.929-2.106C176.63-1.38488 176.045-0.808594 175.172-0.377156 174.3 0.0542812 173.365 0.27 172.366 0.27 170.471 0.27 168.881-0.390867 167.597-1.7126 166.312-3.03434 165.67-4.71347 165.67-6.75 165.67-8.78934 166.33-10.4872 167.649-11.8435 168.968-13.1998 170.594-13.878 172.528-13.878 173.469-13.878 174.358-13.6851 175.195-13.2992 176.033-12.9133 176.602-12.4042 176.902-11.772ZM172.609-2.16C173.841-2.16 174.878-2.60655 175.72-3.49966 176.562-4.39277 176.983-5.50322 176.983-6.831 176.983-8.16216 176.577-9.25994 175.763-10.1244 174.949-10.9888 173.934-11.421 172.717-11.421 171.462-11.421 170.437-10.9985 169.643-10.1535 168.848-9.30846 168.451-8.19197 168.451-6.804 168.451-5.40281 168.841-4.27852 169.621-3.43111 170.4-2.5837 171.397-2.16 172.609-2.16Z" transform="translate(23.2917 37)"/><path d="M14.256-5.589C14.256-6.58097 13.8592-7.31081 13.0655-7.77853 12.2718-8.24625 10.946-8.50669 9.08803-8.55984 6.462-8.68781 4.54282-9.16376 3.33049-9.98768 2.11816-10.8116 1.512-12.0904 1.512-13.824 1.512-15.5168 2.22848-16.9346 3.66145-18.0771 5.09442-19.2197 6.88894-19.791 9.045-19.791 10.6096-19.791 12.0244-19.5213 13.2895-18.9818 14.5545-18.4424 15.6867-17.5725 16.686-16.3721L14.9517-14.58C14.091-15.4558 13.1647-16.1113 12.1726-16.5464 11.1805-16.9815 10.1379-17.199 9.045-17.199 7.66547-17.199 6.53759-16.8872 5.66135-16.2637 4.78512-15.6402 4.347-14.8899 4.347-14.013 4.347-13.0764 4.73421-12.3958 5.50863-11.9711 6.28305-11.5464 7.58166-11.3078 9.40444-11.2552 12.0381-11.1447 13.9776-10.6507 15.2229-9.77337 16.4683-8.89601 17.091-7.56422 17.091-5.778 17.091-3.99769 16.3507-2.52661 14.8703-1.36477 13.3897-0.202922 11.511 0.378 9.234 0.378 7.39266 0.378 5.80198 0.0822656 4.46196-0.509203 3.12195-1.10067 1.91363-2.10164 0.837-3.51211L2.54391-5.319C3.57216-4.20497 4.60772-3.40896 5.65059-2.93098 6.69347-2.45299 7.88794-2.214 9.234-2.214 10.7212-2.214 11.9301-2.53962 12.8604-3.19085 13.7908-3.84209 14.256-4.64147 14.256-5.589ZM21.3247 4.86 18.5977 4.86 18.5977-13.554 21.2977-13.554 21.2977-11.475C21.5713-12.1747 22.1502-12.7457 23.0343-13.1878 23.9184-13.6299 24.8605-13.851 25.8607-13.851 27.7771-13.851 29.3722-13.1907 30.646-11.8701 31.9198-10.5495 32.5567-8.86978 32.5567-6.831 32.5567-4.76072 31.8957-3.05515 30.5736-1.71429 29.2516-0.37343 27.6266 0.297 25.6987 0.297 24.7719 0.297 23.8826 0.105047 23.0305-0.278859 22.1785-0.662766 21.6099-1.18181 21.3247-1.836ZM25.6177-11.394C24.3799-11.394 23.3414-10.949 22.5023-10.059 21.6632-9.16896 21.2437-8.05697 21.2437-6.723 21.2437-5.39522 21.6555-4.29827 22.4791-3.43216 23.3028-2.56605 24.3219-2.133 25.5367-2.133 26.7865-2.133 27.8055-2.55255 28.5936-3.39166 29.3816-4.23077 29.7757-5.35922 29.7757-6.777 29.7757-8.16075 29.3902-9.27619 28.6193-10.1233 27.8484-10.9704 26.8479-11.394 25.6177-11.394ZM33.8993-17.928 36.8693-17.928 36.8693-15.012 33.8993-15.012ZM34.0073 0 34.0073-13.554 36.7613-13.554 36.7613 0ZM39.0977-19.413 41.8247-19.413 41.8247-8.046 47.5466-13.554 50.8427-13.554 50.8427-13.1321 43.8497-7.08033 50.8697-0.417234 50.8697 0 47.5706 0 41.8247-6.048 41.8247 0 39.0977 0ZM57.992-1.971C58.8093-1.971 59.5635-2.14594 60.2545-2.49581 60.9455-2.84569 61.648-3.42675 62.3618-4.239L63.986-2.77552C63.1822-1.64433 62.2669-0.831445 61.2402-0.336867 60.2135 0.157711 59.0678 0.405 57.803 0.405 55.7637 0.405 54.0928-0.264938 52.7905-1.60481 51.4882-2.94469 50.837-4.65975 50.837-6.75 50.837-8.77134 51.501-10.4647 52.8289-11.83 54.1568-13.1953 55.7968-13.878 57.749-13.878 59.738-13.878 61.3512-13.2311 62.5887-11.9374 63.8262-10.6436 64.445-8.9685 64.445-6.912 64.445-6.87375 64.4393-6.76364 64.4279-6.58167 64.4165-6.3997 64.383-6.11381 64.3273-5.724L53.645-5.724C53.7797-4.69941 54.2504-3.81776 55.057-3.07905 55.8636-2.34035 56.842-1.971 57.992-1.971ZM57.776-11.502C56.7134-11.502 55.8013-11.1549 55.0395-10.4608 54.2777-9.76669 53.8129-8.92575 53.645-7.938L61.691-7.938C61.5372-8.94741 61.1059-9.79376 60.3973-10.4771 59.6887-11.1604 58.8149-11.502 57.776-11.502ZM76.8073-4.077C76.8073-2.76103 76.2557-1.69404 75.1523-0.876023 74.049-0.0580078 72.6296 0.351 70.8943 0.351 69.7575 0.351 68.694 0.170508 67.7037-0.190477 66.7134-0.551461 65.788-1.14595 64.9273-1.97395L66.2714-3.969C67.2398-3.23887 68.0674-2.72784 68.7544-2.43591 69.4413-2.14397 70.1726-1.998 70.9483-1.998 71.9338-1.998 72.7157-2.18123 73.294-2.5477 73.8722-2.91417 74.1613-3.37894 74.1613-3.942 74.1613-4.49888 73.9232-4.9083 73.4469-5.17029 72.9706-5.43227 72.1335-5.57184 70.9357-5.589 69.0595-5.66325 67.6745-6.01755 66.7808-6.65191 65.8872-7.28627 65.4403-8.28197 65.4403-9.639 65.4403-10.8638 65.9498-11.8811 66.9688-12.6906 67.9878-13.5002 69.2873-13.905 70.8673-13.905 71.9243-13.905 72.9187-13.7372 73.8506-13.4017 74.7825-13.0662 75.6601-12.5266 76.4833-11.783L75.2224-9.828C74.3502-10.4434 73.5855-10.8807 72.9284-11.14 72.2713-11.3993 71.5752-11.529 70.8403-11.529 70.0151-11.529 69.3498-11.3525 68.8444-10.9995 68.339-10.6466 68.0863-10.2291 68.0863-9.747 68.0863-9.20306 68.3073-8.80488 68.7491-8.55246 69.1909-8.30004 69.9409-8.14781 70.999-8.09578 73.0082-8.04037 74.4786-7.6957 75.4101-7.06177 76.3416-6.42783 76.8073-5.43291 76.8073-4.077Z" transform="translate(74.9584 69)"/></g></g></g><rect x="30" y="333" width="221" height="136" stroke="#000000" stroke-width="4" stroke-miterlimit="8" fill="#F2F2F2"/><text font-family="IntelOne Display AR Regular,IntelOne Display AR Regular_MSFontService,sans-serif" font-weight="700" font-size="27" transform="translate(50.4633 407)">Reward Graded <tspan font-size="27" x="51.6667" y="32">Spikes</tspan></text><rect x="239" y="397" width="23" height="23" fill="#7030A0"/><rect x="30.5001" y="333.5" width="221" height="32" stroke="#000000" stroke-width="3" stroke-miterlimit="8" fill="#595959"/><text fill="#FFFFFF" font-family="IntelOne Display AR Regular,IntelOne Display AR Regular_MSFontService,sans-serif" font-weight="700" font-size="21" transform="translate(106.583 356)">SpikeIn</text><path d="M261.513 407 326.761 407.546 326.736 410.545 261.488 410ZM325.286 404.533 334.248 409.108 325.211 413.533Z" fill="#00B050"/><g clip-path="url(#clip39)"><g clip-path="url(#clip40)" filter="url(#fx8)" transform="translate(337 327)"><g clip-path="url(#clip41)"><rect x="8.82843" y="8.82843" width="221" height="136" stroke="#000000" stroke-width="4" stroke-miterlimit="8" fill="#F2F2F2"/></g></g><g clip-path="url(#clip42)" filter="url(#fx9)" transform="translate(404 389)"><g clip-path="url(#clip43)"><path d="M1.944 0 1.944-19.413 4.806-19.413 4.806 0ZM7.431-13.554 10.131-13.554 10.131-11.556C10.3445-12.2524 10.8722-12.8135 11.7141-13.2393 12.556-13.6651 13.4953-13.878 14.532-13.878 16.3466-13.878 17.7633-13.2931 18.782-12.1234 19.8007-10.9537 20.31-9.36956 20.31-7.371L20.31 0 17.583 0 17.583-7.236C17.583-8.53537 17.2692-9.55322 16.6416-10.2895 16.014-11.0258 15.1398-11.394 14.019-11.394 12.8563-11.394 11.9221-10.9992 11.2165-10.2096 10.5108-9.41998 10.158-8.38378 10.158-7.101L10.158 0 7.431 0ZM24.8247 4.86 22.0977 4.86 22.0977-13.554 24.7977-13.554 24.7977-11.475C25.0713-12.1747 25.6502-12.7457 26.5343-13.1878 27.4184-13.6299 28.3605-13.851 29.3607-13.851 31.2771-13.851 32.8722-13.1907 34.146-11.8701 35.4198-10.5495 36.0567-8.86978 36.0567-6.831 36.0567-4.76072 35.3957-3.05515 34.0736-1.71429 32.7516-0.37343 31.1266 0.297 29.1987 0.297 28.2719 0.297 27.3826 0.105047 26.5305-0.278859 25.6785-0.662766 25.1099-1.18181 24.8247-1.836ZM29.1177-11.394C27.8799-11.394 26.8414-10.949 26.0023-10.059 25.1632-9.16896 24.7437-8.05697 24.7437-6.723 24.7437-5.39522 25.1555-4.29827 25.9791-3.43216 26.8028-2.56605 27.8219-2.133 29.0367-2.133 30.2865-2.133 31.3055-2.55255 32.0936-3.39166 32.8816-4.23077 33.2757-5.35922 33.2757-6.777 33.2757-8.16075 32.8902-9.27619 32.1193-10.1233 31.3484-10.9704 30.3479-11.394 29.1177-11.394ZM50.0083 0 47.2813 0 47.2813-1.998C47.0583-1.27856 46.5322-0.716203 45.7029-0.310922 44.8736 0.0943594 43.9328 0.297 42.8803 0.297 41.0846 0.297 39.6726-0.287789 38.6445-1.45737 37.6164-2.62695 37.1023-4.21116 37.1023-6.21L37.1023-13.554 39.8563-13.554 39.8563-6.345C39.8563-5.02791 40.1702-4.00113 40.798-3.26468 41.4257-2.52823 42.2998-2.16 43.4203-2.16 44.5591-2.16 45.4828-2.55649 46.1914-3.34948 46.9-4.14246 47.2543-5.18597 47.2543-6.48L47.2543-13.554 50.0083-13.554ZM52.66-3.753 52.66-11.097 50.878-11.097 50.878-13.554 52.66-13.554 52.66-17.55 55.387-17.55 55.387-13.554 58.411-13.554 58.411-11.097 55.387-11.097 55.387-3.942C55.387-3.42084 55.4924-3.04755 55.7032-2.82213 55.914-2.59671 56.2496-2.484 56.71-2.484L58.411-2.484 58.411 0 56.386 0C55.1032 0 54.1615-0.305227 53.5609-0.91568 52.9603-1.52613 52.66-2.47191 52.66-3.753Z" transform="translate(23.0507 37)"/></g></g></g><rect x="343" y="333" width="221" height="136" stroke="#000000" stroke-width="4" stroke-miterlimit="8" fill="#F2F2F2"/><text font-family="IntelOne Display AR Regular,IntelOne Display AR Regular_MSFontService,sans-serif" font-weight="700" font-size="27" transform="translate(424.222 423)">Input</text><rect x="553" y="398" width="21" height="21" fill="#7030A0"/><rect x="343.5" y="333.5" width="221" height="32" stroke="#000000" stroke-width="3" stroke-miterlimit="8" fill="#595959"/><text fill="#FFFFFF" font-family="IntelOne Display AR Regular,IntelOne Display AR Regular_MSFontService,sans-serif" font-weight="700" font-size="21" transform="translate(423.842 356)">Dense</text><rect x="332" y="398" width="23" height="21" fill="#00B050"/><g clip-path="url(#clip44)"><g clip-path="url(#clip45)" filter="url(#fx10)" transform="translate(647 458)"><g clip-path="url(#clip46)"><rect x="8.82843" y="8.82843" width="222" height="137" stroke="#000000" stroke-width="4" stroke-miterlimit="8" fill="#F2F2F2"/></g></g><g clip-path="url(#clip47)" filter="url(#fx11)" transform="translate(666 520)"><g clip-path="url(#clip48)"><path d="M1.755 0 1.755-19.413 10.233-19.413C12.3713-19.413 14.0669-18.8714 15.3198-17.7881 16.5726-16.7049 17.199-15.2485 17.199-13.419 17.199-11.5521 16.5222-10.0593 15.1687-8.9408 13.8152-7.82227 12.026-7.263 9.801-7.263L4.617-7.263 4.617 0ZM14.283-13.365C14.283-14.4318 13.9238-15.27 13.2055-15.8796 12.4872-16.4892 11.4694-16.794 10.152-16.794L4.617-16.794 4.617-9.855 9.963-9.855C11.2984-9.855 12.3522-10.1699 13.1245-10.7996 13.8968-11.4293 14.283-12.2844 14.283-13.365ZM31.6247-6.777C31.6247-4.73934 30.9417-3.03293 29.5758-1.65776 28.2099-0.282586 26.5259 0.405 24.5237 0.405 22.5206 0.405 20.8498-0.278297 19.5114-1.64489 18.1729-3.01148 17.5037-4.71319 17.5037-6.75 17.5037-8.775 18.1853-10.4738 19.5485-11.8463 20.9117-13.2188 22.5971-13.905 24.6047-13.905 26.6077-13.905 28.2785-13.2217 29.617-11.8551 30.9554-10.4885 31.6247-8.79581 31.6247-6.777ZM20.2847-6.75C20.2847-5.40253 20.6971-4.27816 21.5218-3.3769 22.3466-2.47563 23.3652-2.025 24.5777-2.025 25.7693-2.025 26.7782-2.47641 27.6044-3.37922 28.4306-4.28203 28.8437-5.41463 28.8437-6.777 28.8437-8.08847 28.4268-9.19934 27.593-10.1096 26.7593-11.0199 25.7451-11.475 24.5507-11.475 23.3534-11.475 22.3431-11.0251 21.5197-10.1252 20.6963-9.22535 20.2847-8.10028 20.2847-6.75ZM43.974-4.077C43.974-2.76103 43.4223-1.69404 42.319-0.876023 41.2156-0.0580078 39.7963 0.351 38.061 0.351 36.9242 0.351 35.8606 0.170508 34.8704-0.190477 33.8801-0.551461 32.9546-1.14595 32.094-1.97395L33.4381-3.969C34.4064-3.23887 35.2341-2.72784 35.921-2.43591 36.608-2.14397 37.3393-1.998 38.115-1.998 39.1005-1.998 39.8824-2.18123 40.4606-2.5477 41.0389-2.91417 41.328-3.37894 41.328-3.942 41.328-4.49888 41.0899-4.9083 40.6136-5.17029 40.1373-5.43227 39.3002-5.57184 38.1023-5.589 36.2261-5.66325 34.8412-6.01755 33.9475-6.65191 33.0538-7.28627 32.607-8.28197 32.607-9.639 32.607-10.8638 33.1165-11.8811 34.1355-12.6906 35.1544-13.5002 36.4539-13.905 38.034-13.905 39.0909-13.905 40.0854-13.7372 41.0173-13.4017 41.9492-13.0662 42.8268-12.5266 43.65-11.783L42.389-9.828C41.5169-10.4434 40.7522-10.8807 40.0951-11.14 39.4379-11.3993 38.7419-11.529 38.007-11.529 37.1818-11.529 36.5165-11.3525 36.0111-10.9995 35.5057-10.6466 35.253-10.2291 35.253-9.747 35.253-9.20306 35.4739-8.80488 35.9158-8.55246 36.3576-8.30004 37.1076-8.14781 38.1656-8.09578 40.1749-8.04037 41.6453-7.6957 42.5768-7.06177 43.5083-6.42783 43.974-5.43291 43.974-4.077ZM45.9933-3.753 45.9933-11.097 44.2113-11.097 44.2113-13.554 45.9933-13.554 45.9933-17.55 48.7203-17.55 48.7203-13.554 51.7443-13.554 51.7443-11.097 48.7203-11.097 48.7203-3.942C48.7203-3.42084 48.8257-3.04755 49.0365-2.82213 49.2473-2.59671 49.5829-2.484 50.0433-2.484L51.7443-2.484 51.7443 0 49.7193 0C48.4366 0 47.4949-0.305227 46.8942-0.91568 46.2936-1.52613 45.9933-2.47191 45.9933-3.753Z" transform="translate(22.7737 37)"/><path d="M0.756-6.723 0.756-9.342 8.343-9.342 8.343-6.723Z" transform="translate(74.6071 37)"/><path d="M12.474-4.077C12.474-2.76103 11.9223-1.69404 10.819-0.876023 9.71564-0.0580078 8.29631 0.351 6.561 0.351 5.42419 0.351 4.36064 0.170508 3.37036-0.190477 2.38008-0.551461 1.45462-1.14595 0.594-1.97395L1.93809-3.969C2.90644-3.23887 3.73409-2.72784 4.42104-2.43591 5.10799-2.14397 5.83931-1.998 6.615-1.998 7.6005-1.998 8.38237-2.18123 8.96063-2.5477 9.53887-2.91417 9.828-3.37894 9.828-3.942 9.828-4.49888 9.58985-4.9083 9.11355-5.17029 8.63726-5.43227 7.80019-5.57184 6.60234-5.589 4.72612-5.66325 3.34118-6.01755 2.44751-6.65191 1.55384-7.28627 1.107-8.28197 1.107-9.639 1.107-10.8638 1.61648-11.8811 2.63545-12.6906 3.65442-13.5002 4.95394-13.905 6.534-13.905 7.59094-13.905 8.58537-13.7372 9.51729-13.4017 10.4492-13.0662 11.3268-12.5266 12.15-11.783L10.889-9.828C10.0169-10.4434 9.25221-10.8807 8.59507-11.14 7.93793-11.3993 7.24191-11.529 6.507-11.529 5.68181-11.529 5.01652-11.3525 4.51111-10.9995 4.0057-10.6466 3.753-10.2291 3.753-9.747 3.753-9.20306 3.97392-8.80488 4.41577-8.55246 4.85761-8.30004 5.60756-8.14781 6.66563-8.09578 8.67488-8.04037 10.1453-7.6957 11.0768-7.06177 12.0082-6.42783 12.474-5.43291 12.474-4.077ZM18.1923-0.375469 12.6843-13.554 15.5446-13.554 19.5672-3.213 23.5898-13.554 26.3463-13.554 18.6644 4.86 15.9513 4.86ZM27.0977-13.554 29.7977-13.554 29.7977-11.556C30.0111-12.2524 30.5388-12.8135 31.3808-13.2393 32.2227-13.6651 33.162-13.878 34.1987-13.878 36.0133-13.878 37.4299-13.2931 38.4486-12.1234 39.4673-10.9537 39.9767-9.36956 39.9767-7.371L39.9767 0 37.2497 0 37.2497-7.236C37.2497-8.53537 36.9359-9.55322 36.3083-10.2895 35.6806-11.0258 34.8064-11.394 33.6857-11.394 32.523-11.394 31.5888-10.9992 30.8832-10.2096 30.1775-9.41998 29.8247-8.38378 29.8247-7.101L29.8247 0 27.0977 0ZM53.5093 0 50.8363 0 50.8363-2.133C50.6141-1.41469 50.0377-0.834609 49.1069-0.392766 48.1761 0.0490781 47.1776 0.27 46.1113 0.27 44.6047 0.27 43.373-0.117422 42.4163-0.892266 41.4597-1.66711 40.9813-2.69269 40.9813-3.969 40.9813-5.36428 41.5154-6.4196 42.5836-7.13496 43.6518-7.85032 45.2057-8.208 47.2453-8.208L50.8093-8.208C50.7922-9.19659 50.4979-9.99724 49.9266-10.6099 49.3552-11.2226 48.5335-11.529 47.4613-11.529 46.815-11.529 46.175-11.392 45.5414-11.1179 44.9077-10.8438 44.205-10.3958 43.4333-9.774L42.0343-11.5151C42.8621-12.3602 43.7431-12.9743 44.6774-13.3574 45.6117-13.7405 46.6117-13.932 47.6773-13.932 49.5046-13.932 50.9334-13.3885 51.9638-12.3015 52.9942-11.2144 53.5093-9.73294 53.5093-7.857ZM50.8093-5.994 47.2723-5.994C46.0061-5.994 45.0911-5.83291 44.5272-5.51074 43.9633-5.18857 43.6813-4.69266 43.6813-4.023 43.6813-3.44616 43.927-2.96445 44.4184-2.57787 44.9097-2.19129 45.555-1.998 46.3543-1.998 47.575-1.998 48.6054-2.39266 49.4456-3.18199 50.2859-3.97132 50.7404-4.90866 50.8093-5.994ZM57.9913 4.86 55.2643 4.86 55.2643-13.554 57.9643-13.554 57.9643-11.475C58.238-12.1747 58.8169-12.7457 59.701-13.1878 60.5851-13.6299 61.5272-13.851 62.5273-13.851 64.4438-13.851 66.0389-13.1907 67.3127-11.8701 68.5864-10.5495 69.2233-8.86978 69.2233-6.831 69.2233-4.76072 68.5623-3.05515 67.2403-1.71429 65.9183-0.37343 64.2933 0.297 62.3653 0.297 61.4386 0.297 60.5492 0.105047 59.6972-0.278859 58.8451-0.662766 58.2765-1.18181 57.9913-1.836ZM62.2843-11.394C61.0466-11.394 60.0081-10.949 59.169-10.059 58.3299-9.16896 57.9103-8.05697 57.9103-6.723 57.9103-5.39522 58.3222-4.29827 59.1458-3.43216 59.9694-2.56605 60.9886-2.133 62.2033-2.133 63.4532-2.133 64.4722-2.55255 65.2602-3.39166 66.0483-4.23077 66.4423-5.35922 66.4423-6.777 66.4423-8.16075 66.0569-9.27619 65.286-10.1233 64.5151-10.9704 63.5145-11.394 62.2843-11.394ZM71.16-3.753 71.16-11.097 69.378-11.097 69.378-13.554 71.16-13.554 71.16-17.55 73.887-17.55 73.887-13.554 76.911-13.554 76.911-11.097 73.887-11.097 73.887-3.942C73.887-3.42084 73.9924-3.04755 74.2032-2.82213 74.414-2.59671 74.7496-2.484 75.21-2.484L76.911-2.484 76.911 0 74.886 0C73.6032 0 72.6615-0.305227 72.0609-0.91568 71.4603-1.52613 71.16-2.47191 71.16-3.753ZM78.566-17.928 81.536-17.928 81.536-15.012 78.566-15.012ZM78.674 0 78.674-13.554 81.428-13.554 81.428 0ZM90.1903 0.405C88.1156 0.405 86.4269-0.255656 85.1243-1.57697 83.8216-2.89828 83.1703-4.62262 83.1703-6.75 83.1703-8.75419 83.8525-10.4477 85.2169-11.8306 86.5812-13.2135 88.257-13.905 90.2443-13.905 91.6832-13.905 92.9175-13.5697 93.9471-12.899 94.9768-12.2284 95.7585-11.1957 96.2923-9.801L94.0252-8.775C93.5555-9.73406 93.0137-10.4238 92.3999-10.8443 91.7861-11.2648 91.0586-11.475 90.2173-11.475 89.0181-11.475 88.0073-11.0214 87.1849-10.1142 86.3625-9.20707 85.9513-8.08566 85.9513-6.75 85.9513-5.38509 86.3636-4.25637 87.1881-3.36382 88.0125-2.47127 89.0403-2.025 90.2713-2.025 91.0591-2.025 91.7965-2.24121 92.4834-2.67363 93.1704-3.10605 93.7715-3.77184 94.2867-4.671L96.3733-3.57961C95.8094-2.27264 94.984-1.2818 93.8969-0.607078 92.8099 0.0676406 91.5744 0.405 90.1903 0.405Z" transform="translate(82.9404 37)"/></g></g></g><rect x="653" y="464" width="222" height="137" stroke="#000000" stroke-width="4" stroke-miterlimit="8" fill="#F2F2F2"/><text font-family="IntelOne Display AR Regular,IntelOne Display AR Regular_MSFontService,sans-serif" font-weight="700" font-size="27" transform="translate(685.945 555)">Post<tspan font-size="27" x="51.8333" y="0">-</tspan><tspan font-size="27" x="60.1667" y="0">synaptic</tspan></text><rect x="863" y="507" width="21" height="20" fill="#7030A0"/><rect x="653.5" y="464.5" width="222" height="33" stroke="#000000" stroke-width="3" stroke-miterlimit="8" fill="#595959"/><text fill="#FFFFFF" font-family="IntelOne Display AR Regular,IntelOne Display AR Regular_MSFontService,sans-serif" font-weight="700" font-size="21" transform="translate(714.231 487)">RSTDPLIF</text><rect x="643" y="565" width="23" height="21" fill="#00B050"/><g clip-path="url(#clip49)"><g clip-path="url(#clip50)" filter="url(#fx12)" transform="translate(944 214)"><g clip-path="url(#clip51)"><rect x="8.82843" y="8.82843" width="222" height="137" stroke="#000000" stroke-width="4" stroke-miterlimit="8" fill="#F2F2F2"/></g></g><g clip-path="url(#clip52)" filter="url(#fx13)" transform="translate(1003 276)"><g clip-path="url(#clip53)"><path d="M1.755 0 1.755-19.413 10.233-19.413C12.3713-19.413 14.0669-18.8714 15.3198-17.7881 16.5726-16.7049 17.199-15.2485 17.199-13.419 17.199-11.5521 16.5222-10.0593 15.1687-8.9408 13.8152-7.82227 12.026-7.263 9.801-7.263L4.617-7.263 4.617 0ZM14.283-13.365C14.283-14.4318 13.9238-15.27 13.2055-15.8796 12.4872-16.4892 11.4694-16.794 10.152-16.794L4.617-16.794 4.617-9.855 9.963-9.855C11.2984-9.855 12.3522-10.1699 13.1245-10.7996 13.8968-11.4293 14.283-12.2844 14.283-13.365ZM18.3407-19.413 21.0947-19.413 21.0947 0 18.3407 0ZM35.176 0 32.503 0 32.503-2.133C32.2808-1.41469 31.7043-0.834609 30.7735-0.392766 29.8427 0.0490781 28.8442 0.27 27.778 0.27 26.2713 0.27 25.0397-0.117422 24.083-0.892266 23.1263-1.66711 22.648-2.69269 22.648-3.969 22.648-5.36428 23.1821-6.4196 24.2503-7.13496 25.3185-7.85032 26.8724-8.208 28.912-8.208L32.476-8.208C32.4588-9.19659 32.1646-9.99724 31.5932-10.6099 31.0219-11.2226 30.2001-11.529 29.128-11.529 28.4817-11.529 27.8417-11.392 27.208-11.1179 26.5744-10.8438 25.8717-10.3958 25.0999-9.774L23.701-11.5151C24.5287-12.3602 25.4097-12.9743 26.344-13.3574 27.2784-13.7405 28.2783-13.932 29.344-13.932 31.1713-13.932 32.6001-13.3885 33.6305-12.3015 34.6608-11.2144 35.176-9.73294 35.176-7.857ZM32.476-5.994 28.939-5.994C27.6728-5.994 26.7578-5.83291 26.1939-5.51074 25.63-5.18857 25.348-4.69266 25.348-4.023 25.348-3.44616 25.5937-2.96445 26.085-2.57787 26.5764-2.19129 27.2217-1.998 28.021-1.998 29.2416-1.998 30.2721-2.39266 31.1123-3.18199 31.9525-3.97132 32.4071-4.90866 32.476-5.994ZM47.974-4.077C47.974-2.76103 47.4223-1.69404 46.319-0.876023 45.2156-0.0580078 43.7963 0.351 42.061 0.351 40.9242 0.351 39.8606 0.170508 38.8704-0.190477 37.8801-0.551461 36.9546-1.14595 36.094-1.97395L37.4381-3.969C38.4064-3.23887 39.2341-2.72784 39.921-2.43591 40.608-2.14397 41.3393-1.998 42.115-1.998 43.1005-1.998 43.8824-2.18123 44.4606-2.5477 45.0389-2.91417 45.328-3.37894 45.328-3.942 45.328-4.49888 45.0899-4.9083 44.6136-5.17029 44.1373-5.43227 43.3002-5.57184 42.1023-5.589 40.2261-5.66325 38.8412-6.01755 37.9475-6.65191 37.0538-7.28627 36.607-8.28197 36.607-9.639 36.607-10.8638 37.1165-11.8811 38.1355-12.6906 39.1544-13.5002 40.4539-13.905 42.034-13.905 43.0909-13.905 44.0854-13.7372 45.0173-13.4017 45.9492-13.0662 46.8268-12.5266 47.65-11.783L46.389-9.828C45.5169-10.4434 44.7522-10.8807 44.0951-11.14 43.4379-11.3993 42.7419-11.529 42.007-11.529 41.1818-11.529 40.5165-11.3525 40.0111-10.9995 39.5057-10.6466 39.253-10.2291 39.253-9.747 39.253-9.20306 39.4739-8.80488 39.9158-8.55246 40.3576-8.30004 41.1076-8.14781 42.1656-8.09578 44.1749-8.04037 45.6452-7.6957 46.5768-7.06177 47.5082-6.42783 47.974-5.43291 47.974-4.077ZM49.9933-3.753 49.9933-11.097 48.2113-11.097 48.2113-13.554 49.9933-13.554 49.9933-17.55 52.7203-17.55 52.7203-13.554 55.7443-13.554 55.7443-11.097 52.7203-11.097 52.7203-3.942C52.7203-3.42084 52.8257-3.04755 53.0365-2.82213 53.2473-2.59671 53.5829-2.484 54.0433-2.484L55.7443-2.484 55.7443 0 53.7193 0C52.4366 0 51.4949-0.305227 50.8942-0.91568 50.2936-1.52613 49.9933-2.47191 49.9933-3.753ZM57.3993-17.928 60.3693-17.928 60.3693-15.012 57.3993-15.012ZM57.5073 0 57.5073-13.554 60.2613-13.554 60.2613 0ZM69.0237 0.405C66.9489 0.405 65.2602-0.255656 63.9576-1.57697 62.655-2.89828 62.0037-4.62262 62.0037-6.75 62.0037-8.75419 62.6858-10.4477 64.0502-11.8306 65.4145-13.2135 67.0904-13.905 69.0777-13.905 70.5165-13.905 71.7508-13.5697 72.7805-12.899 73.8101-12.2284 74.5919-11.1957 75.1257-9.801L72.8585-8.775C72.3888-9.73406 71.8471-10.4238 71.2332-10.8443 70.6194-11.2648 69.8919-11.475 69.0507-11.475 67.8514-11.475 66.8406-11.0214 66.0182-10.1142 65.1959-9.20707 64.7847-8.08566 64.7847-6.75 64.7847-5.38509 65.1969-4.25637 66.0214-3.36382 66.8459-2.47127 67.8736-2.025 69.1047-2.025 69.8924-2.025 70.6298-2.24121 71.3168-2.67363 72.0037-3.10605 72.6048-3.77184 73.1201-4.671L75.2067-3.57961C74.6428-2.27264 73.8173-1.2818 72.7303-0.607078 71.6432 0.0676406 70.4077 0.405 69.0237 0.405Z" transform="translate(22.973 37)"/></g></g></g><rect x="950" y="220" width="222" height="137" stroke="#000000" stroke-width="4" stroke-miterlimit="8" fill="#F2F2F2"/><text font-family="IntelOne Display AR Regular,IntelOne Display AR Regular_MSFontService,sans-serif" font-weight="700" font-size="27" transform="translate(1023.14 311)">Plastic </text><rect x="950.5" y="220.5" width="222" height="33" stroke="#000000" stroke-width="3" stroke-miterlimit="8" fill="#595959"/><text fill="#FFFFFF" font-family="IntelOne Display AR Regular,IntelOne Display AR Regular_MSFontService,sans-serif" font-weight="700" font-size="21" transform="translate(990.514 243)">LearningDense</text><rect x="939" y="285" width="23" height="21" fill="#00B050"/><path d="M884.5 91.0001 913.591 91.0001 913.591 295.692 912.091 294.192 932.182 294.192 932.182 297.192 910.591 297.192 910.591 92.5001 912.091 94.0001 884.5 94.0001ZM930.682 291.192 939.682 295.692 930.682 300.192Z" fill="#00B050"/><rect x="965" y="346" width="23" height="21" fill="#00B050"/><path d="M0-1.5 93.6743-1.5 93.6743 142.565 90.6743 142.565 90.6743 0 92.1743 1.5 0 1.5ZM96.6743 141.065 92.1743 150.065 87.6743 141.065Z" fill="#C00000" transform="matrix(1 0 0 -1 884.5 517.565)"/><text font-family="IntelOne Display AR Regular,IntelOne Display AR Regular_MSFontService,sans-serif" font-weight="700" font-size="21" transform="translate(914.226 481)">Post <tspan font-size="21" x="-10" y="26">Spikes</tspan></text><rect x="1160" y="288" width="23" height="21" fill="#7030A0"/><path d="M1183.5 298.5 1200.1 298.5 1200.1 659.109" stroke="#FFC000" stroke-width="3" stroke-miterlimit="8" fill="none" fill-rule="evenodd"/><path d="M1200.83 659.767 618.002 659.767 618.002 583 636 583 636 586 619.502 586 621.002 584.5 621.002 658.267 619.502 656.767 1200.83 656.767ZM634.5 580 643.5 584.5 634.5 589Z" fill="#FFC000"/><rect x="863" y="539" width="21" height="21" fill="#7030A0"/><rect x="1057" y="345" width="23" height="20" fill="#00B050"/><path d="M0-1.5 186.067-1.5 186.067 176.686 183.067 176.686 183.067 0 184.567 1.5 0 1.5ZM189.067 175.186 184.567 184.186 180.067 175.186Z" fill="#4472C4" transform="matrix(1 0 0 -1 884.5 549.686)"/><text font-family="IntelOne Display AR Regular,IntelOne Display AR Regular_MSFontService,sans-serif" font-weight="700" font-size="21" transform="translate(927.168 544)">Reward <tspan font-size="21" x="74.3334" y="0">T</tspan>race</text><g clip-path="url(#clip54)"><g clip-path="url(#clip55)" filter="url(#fx14)" transform="translate(24 557)"><g clip-path="url(#clip56)"><rect x="8.82843" y="8.82843" width="221" height="136" stroke="#000000" stroke-width="4" stroke-miterlimit="8" fill="#F2F2F2"/></g></g><g clip-path="url(#clip57)" filter="url(#fx15)" transform="translate(31 619)"><g clip-path="url(#clip58)"><path d="M12.42-8.04558 17.793 0 14.6197 0 9.51666-7.695 4.617-7.695 4.617 0 1.755 0 1.755-19.413 10.341-19.413C12.5317-19.413 14.2493-18.8991 15.494-17.8713 16.7387-16.8434 17.361-15.4403 17.361-13.662 17.361-12.1899 16.9069-10.9524 15.9986-9.9495 15.0903-8.94656 13.8974-8.31192 12.42-8.04558ZM14.472-13.608C14.472-14.616 14.1089-15.408 13.3827-15.984 12.6565-16.56 11.6246-16.848 10.287-16.848L4.617-16.848 4.617-10.233 10.098-10.233C11.4528-10.233 12.5205-10.5394 13.3011-11.1523 14.0817-11.7651 14.472-12.5837 14.472-13.608ZM30.676 0 28.003 0 28.003-2.133C27.7808-1.41469 27.2043-0.834609 26.2735-0.392766 25.3427 0.0490781 24.3442 0.27 23.278 0.27 21.7713 0.27 20.5397-0.117422 19.583-0.892266 18.6263-1.66711 18.148-2.69269 18.148-3.969 18.148-5.36428 18.6821-6.4196 19.7503-7.13496 20.8185-7.85032 22.3724-8.208 24.412-8.208L27.976-8.208C27.9588-9.19659 27.6646-9.99724 27.0932-10.6099 26.5219-11.2226 25.7001-11.529 24.628-11.529 23.9817-11.529 23.3417-11.392 22.708-11.1179 22.0744-10.8438 21.3717-10.3958 20.5999-9.774L19.201-11.5151C20.0287-12.3602 20.9097-12.9743 21.844-13.3574 22.7784-13.7405 23.7783-13.932 24.844-13.932 26.6713-13.932 28.1001-13.3885 29.1305-12.3015 30.1608-11.2144 30.676-9.73294 30.676-7.857ZM27.976-5.994 24.439-5.994C23.1728-5.994 22.2578-5.83291 21.6939-5.51074 21.13-5.18857 20.848-4.69266 20.848-4.023 20.848-3.44616 21.0937-2.96445 21.585-2.57787 22.0764-2.19129 22.7217-1.998 23.521-1.998 24.7416-1.998 25.7721-2.39266 26.6123-3.18199 27.4525-3.97132 27.9071-4.90866 27.976-5.994ZM32.431-13.554 35.131-13.554 35.131-11.556C35.3445-12.2524 35.8722-12.8135 36.7141-13.2393 37.556-13.6651 38.4953-13.878 39.532-13.878 41.3466-13.878 42.7633-13.2931 43.782-12.1234 44.8007-10.9537 45.31-9.36956 45.31-7.371L45.31 0 42.583 0 42.583-7.236C42.583-8.53537 42.2692-9.55322 41.6416-10.2895 41.014-11.0258 40.1398-11.394 39.019-11.394 37.8563-11.394 36.9221-10.9992 36.2165-10.2096 35.5108-9.41998 35.158-8.38378 35.158-7.101L35.158 0 32.431 0ZM57.7357-19.413 60.4897-19.413 60.4897 0 57.7627 0 57.7627-2.106C57.4637-1.38488 56.8781-0.808594 56.0058-0.377156 55.1335 0.0542812 54.1981 0.27 53.1997 0.27 51.3043 0.27 49.7145-0.390867 48.4302-1.7126 47.1458-3.03434 46.5037-4.71347 46.5037-6.75 46.5037-8.78934 47.1631-10.4872 48.4821-11.8435 49.801-13.1998 51.4275-13.878 53.3617-13.878 54.3019-13.878 55.1909-13.6851 56.0288-13.2992 56.8666-12.9133 57.4356-12.4042 57.7357-11.772ZM53.4427-2.16C54.6745-2.16 55.7115-2.60655 56.5536-3.49966 57.3956-4.39277 57.8167-5.50322 57.8167-6.831 57.8167-8.16216 57.4098-9.25994 56.5962-10.1244 55.7825-10.9888 54.7674-11.421 53.5507-11.421 52.2952-11.421 51.2703-10.9985 50.476-10.1535 49.6818-9.30846 49.2847-8.19197 49.2847-6.804 49.2847-5.40281 49.6745-4.27852 50.4541-3.43111 51.2337-2.5837 52.2299-2.16 53.4427-2.16ZM75.7913-6.777C75.7913-4.73934 75.1084-3.03293 73.7425-1.65776 72.3766-0.282586 70.6926 0.405 68.6903 0.405 66.6873 0.405 65.0165-0.278297 63.678-1.64489 62.3396-3.01148 61.6703-4.71319 61.6703-6.75 61.6703-8.775 62.3519-10.4738 63.7152-11.8463 65.0784-13.2188 66.7638-13.905 68.7713-13.905 70.7744-13.905 72.4452-13.2217 73.7836-11.8551 75.1221-10.4885 75.7913-8.79581 75.7913-6.777ZM64.4513-6.75C64.4513-5.40253 64.8637-4.27816 65.6885-3.3769 66.5133-2.47563 67.5319-2.025 68.7443-2.025 69.936-2.025 70.9449-2.47641 71.7711-3.37922 72.5973-4.28203 73.0103-5.41463 73.0103-6.777 73.0103-8.08847 72.5935-9.19934 71.7597-10.1096 70.9259-11.0199 69.9118-11.475 68.7173-11.475 67.5201-11.475 66.5097-11.0251 65.6864-10.1252 64.863-9.22535 64.4513-8.10028 64.4513-6.75ZM77.0977-13.554 79.7977-13.554 79.7977-12.015C79.9782-12.5871 80.3987-13.0406 81.0591-13.3755 81.7195-13.7105 82.46-13.878 83.2807-13.878 84.2274-13.878 85.0734-13.6773 85.8189-13.2758 86.5643-12.8743 87.0825-12.346 87.3733-11.691 87.7178-12.3503 88.2847-12.8796 89.0739-13.2789 89.8631-13.6783 90.749-13.878 91.7317-13.878 93.3449-13.878 94.6302-13.3566 95.5876-12.3139 96.545-11.2712 97.0237-9.92953 97.0237-8.289L97.0237 0 94.2697 0 94.2697-8.154C94.2697-9.18197 94.0195-9.97896 93.5192-10.545 93.0188-11.111 92.315-11.394 91.4077-11.394 90.515-11.394 89.7923-11.0846 89.2397-10.4659 88.687-9.84713 88.4107-9.0315 88.4107-8.019L88.4107 0 85.6837 0 85.6837-8.154C85.6837-9.18197 85.4335-9.97896 84.9332-10.545 84.4328-11.111 83.729-11.394 82.8217-11.394 81.929-11.394 81.2063-11.0846 80.6537-10.4659 80.101-9.84713 79.8247-9.0315 79.8247-8.019L79.8247 0 77.0977 0ZM116.089-5.589C116.089-6.58097 115.692-7.31081 114.899-7.77853 114.105-8.24625 112.779-8.50669 110.921-8.55984 108.295-8.68781 106.376-9.16376 105.164-9.98768 103.951-10.8116 103.345-12.0904 103.345-13.824 103.345-15.5168 104.062-16.9346 105.495-18.0771 106.928-19.2197 108.722-19.791 110.878-19.791 112.443-19.791 113.858-19.5213 115.123-18.9818 116.388-18.4424 117.52-17.5725 118.519-16.3721L116.785-14.58C115.924-15.4558 114.998-16.1113 114.006-16.5464 113.014-16.9815 111.971-17.199 110.878-17.199 109.499-17.199 108.371-16.8872 107.495-16.2637 106.618-15.6402 106.18-14.8899 106.18-14.013 106.18-13.0764 106.568-12.3958 107.342-11.9711 108.116-11.5464 109.415-11.3078 111.238-11.2552 113.871-11.1447 115.811-10.6507 117.056-9.77337 118.302-8.89601 118.924-7.56422 118.924-5.778 118.924-3.99769 118.184-2.52661 116.704-1.36477 115.223-0.202922 113.344 0.378 111.067 0.378 109.226 0.378 107.635 0.0822656 106.295-0.509203 104.955-1.10067 103.747-2.10164 102.67-3.51211L104.377-5.319C105.405-4.20497 106.441-3.40896 107.484-2.93098 108.527-2.45299 109.721-2.214 111.067-2.214 112.555-2.214 113.763-2.53962 114.694-3.19085 115.624-3.84209 116.089-4.64147 116.089-5.589ZM123.158 4.86 120.431 4.86 120.431-13.554 123.131-13.554 123.131-11.475C123.405-12.1747 123.984-12.7457 124.868-13.1878 125.752-13.6299 126.694-13.851 127.694-13.851 129.61-13.851 131.206-13.1907 132.479-11.8701 133.753-10.5495 134.39-8.86978 134.39-6.831 134.39-4.76072 133.729-3.05515 132.407-1.71429 131.085-0.37343 129.46 0.297 127.532 0.297 126.605 0.297 125.716 0.105047 124.864-0.278859 124.012-0.662766 123.443-1.18181 123.158-1.836ZM127.451-11.394C126.213-11.394 125.175-10.949 124.336-10.059 123.497-9.16896 123.077-8.05697 123.077-6.723 123.077-5.39522 123.489-4.29827 124.312-3.43216 125.136-2.56605 126.155-2.133 127.37-2.133 128.62-2.133 129.639-2.55255 130.427-3.39166 131.215-4.23077 131.609-5.35922 131.609-6.777 131.609-8.16075 131.224-9.27619 130.453-10.1233 129.682-10.9704 128.681-11.394 127.451-11.394ZM135.733-17.928 138.703-17.928 138.703-15.012 135.733-15.012ZM135.841 0 135.841-13.554 138.595-13.554 138.595 0ZM140.931-19.413 143.658-19.413 143.658-8.046 149.38-13.554 152.676-13.554 152.676-13.1321 145.683-7.08033 152.703-0.417234 152.703 0 149.404 0 143.658-6.048 143.658 0 140.931 0ZM159.825-1.971C160.643-1.971 161.397-2.14594 162.088-2.49581 162.779-2.84569 163.481-3.42675 164.195-4.239L165.819-2.77552C165.016-1.64433 164.1-0.831445 163.074-0.336867 162.047 0.157711 160.901 0.405 159.636 0.405 157.597 0.405 155.926-0.264938 154.624-1.60481 153.322-2.94469 152.67-4.65975 152.67-6.75 152.67-8.77134 153.334-10.4647 154.662-11.83 155.99-13.1953 157.63-13.878 159.582-13.878 161.571-13.878 163.185-13.2311 164.422-11.9374 165.66-10.6436 166.278-8.9685 166.278-6.912 166.278-6.87375 166.273-6.76364 166.261-6.58167 166.25-6.3997 166.216-6.11381 166.161-5.724L155.478-5.724C155.613-4.69941 156.084-3.81776 156.89-3.07905 157.697-2.34035 158.675-1.971 159.825-1.971ZM159.609-11.502C158.547-11.502 157.635-11.1549 156.873-10.4608 156.111-9.76669 155.646-8.92575 155.478-7.938L163.524-7.938C163.37-8.94741 162.939-9.79376 162.231-10.4771 161.522-11.1604 160.648-11.502 159.609-11.502ZM178.641-4.077C178.641-2.76103 178.089-1.69404 176.986-0.876023 175.882-0.0580078 174.463 0.351 172.728 0.351 171.591 0.351 170.527 0.170508 169.537-0.190477 168.547-0.551461 167.621-1.14595 166.761-1.97395L168.105-3.969C169.073-3.23887 169.901-2.72784 170.588-2.43591 171.275-2.14397 172.006-1.998 172.782-1.998 173.767-1.998 174.549-2.18123 175.127-2.5477 175.706-2.91417 175.995-3.37894 175.995-3.942 175.995-4.49888 175.757-4.9083 175.28-5.17029 174.804-5.43227 173.967-5.57184 172.769-5.589 170.893-5.66325 169.508-6.01755 168.614-6.65191 167.72-7.28627 167.274-8.28197 167.274-9.639 167.274-10.8638 167.783-11.8811 168.802-12.6906 169.821-13.5002 171.121-13.905 172.701-13.905 173.758-13.905 174.752-13.7372 175.684-13.4017 176.616-13.0662 177.493-12.5266 178.317-11.783L177.056-9.828C176.184-10.4434 175.419-10.8807 174.762-11.14 174.105-11.3993 173.409-11.529 172.674-11.529 171.848-11.529 171.183-11.3525 170.678-10.9995 170.172-10.6466 169.92-10.2291 169.92-9.747 169.92-9.20306 170.141-8.80488 170.582-8.55246 171.024-8.30004 171.774-8.14781 172.832-8.09578 174.842-8.04037 176.312-7.6957 177.243-7.06177 178.175-6.42783 178.641-5.43291 178.641-4.077Z" transform="translate(23.0691 37)"/></g></g></g><rect x="30" y="563" width="221" height="136" stroke="#000000" stroke-width="4" stroke-miterlimit="8" fill="#F2F2F2"/><text font-family="IntelOne Display AR Regular,IntelOne Display AR Regular_MSFontService,sans-serif" font-weight="700" font-size="27" transform="translate(51.2406 653)">Random Spikes</text><rect x="239" y="627" width="23" height="23" fill="#7030A0"/><rect x="30.5001" y="563.5" width="221" height="32" stroke="#000000" stroke-width="3" stroke-miterlimit="8" fill="#595959"/><text fill="#FFFFFF" font-family="IntelOne Display AR Regular,IntelOne Display AR Regular_MSFontService,sans-serif" font-weight="700" font-size="21" transform="translate(106.61 586)">SpikeIn</text><path d="M261.513 637 326.761 637.546 326.736 640.545 261.488 640ZM325.286 634.533 334.248 639.108 325.211 643.533Z" fill="#00B050"/><g clip-path="url(#clip59)"><g clip-path="url(#clip60)" filter="url(#fx16)" transform="translate(337 557)"><g clip-path="url(#clip61)"><rect x="8.82843" y="8.82843" width="221" height="136" stroke="#000000" stroke-width="4" stroke-miterlimit="8" fill="#F2F2F2"/></g></g><g clip-path="url(#clip62)" filter="url(#fx17)" transform="translate(404 619)"><g clip-path="url(#clip63)"><path d="M1.944 0 1.944-19.413 4.806-19.413 4.806 0ZM7.431-13.554 10.131-13.554 10.131-11.556C10.3445-12.2524 10.8722-12.8135 11.7141-13.2393 12.556-13.6651 13.4953-13.878 14.532-13.878 16.3466-13.878 17.7633-13.2931 18.782-12.1234 19.8007-10.9537 20.31-9.36956 20.31-7.371L20.31 0 17.583 0 17.583-7.236C17.583-8.53537 17.2692-9.55322 16.6416-10.2895 16.014-11.0258 15.1398-11.394 14.019-11.394 12.8563-11.394 11.9221-10.9992 11.2165-10.2096 10.5108-9.41998 10.158-8.38378 10.158-7.101L10.158 0 7.431 0ZM24.8247 4.86 22.0977 4.86 22.0977-13.554 24.7977-13.554 24.7977-11.475C25.0713-12.1747 25.6502-12.7457 26.5343-13.1878 27.4184-13.6299 28.3605-13.851 29.3607-13.851 31.2771-13.851 32.8722-13.1907 34.146-11.8701 35.4198-10.5495 36.0567-8.86978 36.0567-6.831 36.0567-4.76072 35.3957-3.05515 34.0736-1.71429 32.7516-0.37343 31.1266 0.297 29.1987 0.297 28.2719 0.297 27.3826 0.105047 26.5305-0.278859 25.6785-0.662766 25.1099-1.18181 24.8247-1.836ZM29.1177-11.394C27.8799-11.394 26.8414-10.949 26.0023-10.059 25.1632-9.16896 24.7437-8.05697 24.7437-6.723 24.7437-5.39522 25.1555-4.29827 25.9791-3.43216 26.8028-2.56605 27.8219-2.133 29.0367-2.133 30.2865-2.133 31.3055-2.55255 32.0936-3.39166 32.8816-4.23077 33.2757-5.35922 33.2757-6.777 33.2757-8.16075 32.8902-9.27619 32.1193-10.1233 31.3484-10.9704 30.3479-11.394 29.1177-11.394ZM50.0083 0 47.2813 0 47.2813-1.998C47.0583-1.27856 46.5322-0.716203 45.7029-0.310922 44.8736 0.0943594 43.9328 0.297 42.8803 0.297 41.0846 0.297 39.6726-0.287789 38.6445-1.45737 37.6164-2.62695 37.1023-4.21116 37.1023-6.21L37.1023-13.554 39.8563-13.554 39.8563-6.345C39.8563-5.02791 40.1702-4.00113 40.798-3.26468 41.4257-2.52823 42.2998-2.16 43.4203-2.16 44.5591-2.16 45.4828-2.55649 46.1914-3.34948 46.9-4.14246 47.2543-5.18597 47.2543-6.48L47.2543-13.554 50.0083-13.554ZM52.66-3.753 52.66-11.097 50.878-11.097 50.878-13.554 52.66-13.554 52.66-17.55 55.387-17.55 55.387-13.554 58.411-13.554 58.411-11.097 55.387-11.097 55.387-3.942C55.387-3.42084 55.4924-3.04755 55.7032-2.82213 55.914-2.59671 56.2496-2.484 56.71-2.484L58.411-2.484 58.411 0 56.386 0C55.1032 0 54.1615-0.305227 53.5609-0.91568 52.9603-1.52613 52.66-2.47191 52.66-3.753Z" transform="translate(23.078 37)"/></g></g></g><rect x="343" y="563" width="221" height="136" stroke="#000000" stroke-width="4" stroke-miterlimit="8" fill="#F2F2F2"/><text font-family="IntelOne Display AR Regular,IntelOne Display AR Regular_MSFontService,sans-serif" font-weight="700" font-size="27" transform="translate(424.25 653)">Input</text><rect x="553" y="628" width="21" height="21" fill="#7030A0"/><rect x="343.5" y="563.5" width="221" height="32" stroke="#000000" stroke-width="3" stroke-miterlimit="8" fill="#595959"/><text fill="#FFFFFF" font-family="IntelOne Display AR Regular,IntelOne Display AR Regular_MSFontService,sans-serif" font-weight="700" font-size="21" transform="translate(423.869 586)">Dense</text><rect x="332" y="628" width="23" height="21" fill="#00B050"/><rect x="643" y="513" width="23" height="20" fill="#00B050"/><path d="M0-1.5 36.1309-1.5 36.1309 66.4903 34.6309 64.9903 61.7618 64.9903 61.7618 67.9903 33.1309 67.9903 33.1309 0 34.6309 1.5 0 1.5ZM60.2618 61.9903 69.2618 66.4903 60.2618 70.9903Z" fill="#00B050" transform="matrix(1 0 0 -1 574.5 638.99)"/><path d="M574.5 408 610.714 408 610.714 523.869 609.214 522.369 636.429 522.369 636.429 525.369 607.714 525.369 607.714 409.5 609.214 411 574.5 411ZM634.929 519.369 643.929 523.869 634.929 528.369Z" fill="#00B050"/><rect x="864" y="575" width="21" height="20" fill="#7030A0"/><rect x="1136" y="344" width="23" height="21" fill="#00B050"/><path d="M0-1.5 264.239-1.5 264.239 212.812 261.239 212.812 261.239 0 262.739 1.5 0 1.5ZM267.239 211.311 262.739 220.311 258.239 211.311Z" fill="#C55A11" transform="matrix(1 0 0 -1 885.5 585.812)"/><text font-family="IntelOne Display AR Regular,IntelOne Display AR Regular_MSFontService,sans-serif" font-weight="700" font-size="21" transform="translate(962.053 579)">Filtered Spike Train</text></g></svg>